<svg xmlns="http://www.w3.org/2000/svg" xmlns:xlink="http://www.w3.org/1999/xlink" width="861" zoomAndPan="magnify" viewBox="0 0 645.75 661.499985" height="882" preserveAspectRatio="xMidYMid meet" version="1.0"><defs><clipPath id="24ec2f9d40"><path d="M 216.320312 224.761719 L 428.613281 224.761719 L 428.613281 660.277344 L 216.320312 660.277344 Z M 216.320312 224.761719 " clip-rule="nonzero"/></clipPath><clipPath id="a46aae433f"><path d="M 0.320312 0.761719 L 212.613281 0.761719 L 212.613281 436.277344 L 0.320312 436.277344 Z M 0.320312 0.761719 " clip-rule="nonzero"/></clipPath><clipPath id="5a1007595e"><rect x="0" width="213" y="0" height="437"/></clipPath><clipPath id="9d19383f25"><path d="M 216.320312 224.761719 L 428.410156 224.761719 L 428.410156 660.179688 L 216.320312 660.179688 Z M 216.320312 224.761719 " clip-rule="nonzero"/></clipPath><clipPath id="ccf121cd66"><path d="M 0.117188 0.0390625 L 644.808594 0.0390625 L 644.808594 228.316406 L 0.117188 228.316406 Z M 0.117188 0.0390625 " clip-rule="nonzero"/></clipPath><clipPath id="2562db46b2"><path d="M 0.117188 0.0390625 L 644.808594 0.0390625 L 644.808594 228.316406 L 0.117188 228.316406 Z M 0.117188 0.0390625 " clip-rule="nonzero"/></clipPath><clipPath id="a82a14502e"><rect x="0" width="645" y="0" height="229"/></clipPath><clipPath id="4c646c7d14"><path d="M 0.296875 0.0390625 L 644.808594 0.0390625 L 644.808594 228.3125 L 0.296875 228.3125 Z M 0.296875 0.0390625 " clip-rule="nonzero"/></clipPath><clipPath id="f665491832"><path d="M 216.320312 226.25 L 428.613281 226.25 L 428.613281 462.152344 L 216.320312 462.152344 Z M 216.320312 226.25 " clip-rule="nonzero"/></clipPath><clipPath id="9a9ea7d60f"><path d="M 0.320312 0.25 L 212.613281 0.25 L 212.613281 236 L 0.320312 236 Z M 0.320312 0.25 " clip-rule="nonzero"/></clipPath><clipPath id="20935cb7da"><rect x="0" width="213" y="0" height="237"/></clipPath><clipPath id="443a66dde0"><path d="M 216.324219 226.25 L 428.410156 226.25 L 428.410156 462.144531 L 216.324219 462.144531 Z M 216.324219 226.25 " clip-rule="nonzero"/></clipPath><clipPath id="4d28e0b9b7"><path d="M 232.90625 226.613281 L 311.59375 226.613281 L 311.59375 287.316406 L 232.90625 287.316406 Z M 232.90625 226.613281 " clip-rule="nonzero"/></clipPath><clipPath id="ba399ee597"><path d="M 1 0.613281 L 79.59375 0.613281 L 79.59375 60.953125 L 1 60.953125 Z M 1 0.613281 " clip-rule="nonzero"/></clipPath><clipPath id="2aa828c303"><rect x="0" width="80" y="0" height="62"/></clipPath><clipPath id="7db6146ed2"><path d="M 30.3125 0.0351562 L 209.542969 0.0351562 L 209.542969 47.148438 L 30.3125 47.148438 Z M 30.3125 0.0351562 " clip-rule="nonzero"/></clipPath><clipPath id="b770c11248"><path d="M 0.3125 0.0351562 L 179.542969 0.0351562 L 179.542969 47.148438 L 0.3125 47.148438 Z M 0.3125 0.0351562 " clip-rule="nonzero"/></clipPath><clipPath id="a366add2d5"><rect x="0" width="180" y="0" height="48"/></clipPath><clipPath id="1a579d5dcf"><path d="M 435.398438 0 L 614.625 0 L 614.625 47.109375 L 435.398438 47.109375 Z M 435.398438 0 " clip-rule="nonzero"/></clipPath><clipPath id="031dc48f47"><path d="M 0.398438 0 L 179.625 0 L 179.625 47.109375 L 0.398438 47.109375 Z M 0.398438 0 " clip-rule="nonzero"/></clipPath><clipPath id="8fd0c04860"><rect x="0" width="180" y="0" height="48"/></clipPath><clipPath id="0e4462fbdd"><path d="M 230.523438 0 L 414.410156 0 L 414.410156 47.109375 L 230.523438 47.109375 Z M 230.523438 0 " clip-rule="nonzero"/></clipPath><clipPath id="197d32df22"><path d="M 0.523438 0 L 184.410156 0 L 184.410156 47.109375 L 0.523438 47.109375 Z M 0.523438 0 " clip-rule="nonzero"/></clipPath><clipPath id="38b9371233"><rect x="0" width="185" y="0" height="48"/></clipPath><clipPath id="7689d59e13"><path d="M 30.308594 179.125 L 123.34375 179.125 L 123.34375 228.308594 L 30.308594 228.308594 Z M 30.308594 179.125 " clip-rule="nonzero"/></clipPath><clipPath id="637b54eaec"><path d="M 0.308594 0.125 L 93.34375 0.125 L 93.34375 49.308594 L 0.308594 49.308594 Z M 0.308594 0.125 " clip-rule="nonzero"/></clipPath><clipPath id="7382cb105d"><rect x="0" width="94" y="0" height="50"/></clipPath><clipPath id="6371c3acfb"><path d="M 137.488281 179.125 L 209.539062 179.125 L 209.539062 228.308594 L 137.488281 228.308594 Z M 137.488281 179.125 " clip-rule="nonzero"/></clipPath><clipPath id="a80b42012e"><path d="M 0.488281 0.125 L 72.539062 0.125 L 72.539062 49.308594 L 0.488281 49.308594 Z M 0.488281 0.125 " clip-rule="nonzero"/></clipPath><clipPath id="3faf93d68a"><rect x="0" width="73" y="0" height="50"/></clipPath><clipPath id="32d24844da"><path d="M 341.628906 221.832031 L 386.449219 221.832031 L 386.449219 230.660156 L 341.628906 230.660156 Z M 341.628906 221.832031 " clip-rule="nonzero"/></clipPath><clipPath id="f1669e3f03"><path d="M 0.628906 0.832031 L 45.449219 0.832031 L 45.449219 9.660156 L 0.628906 9.660156 Z M 0.628906 0.832031 " clip-rule="nonzero"/></clipPath><clipPath id="d1b88c4634"><rect x="0" width="46" y="0" height="10"/></clipPath><clipPath id="398b237948"><path d="M 300.984375 457.730469 L 345.527344 457.730469 L 345.527344 466.5625 L 300.984375 466.5625 Z M 300.984375 457.730469 " clip-rule="nonzero"/></clipPath><clipPath id="9ecd06e51e"><path d="M 0.984375 0.730469 L 45.527344 0.730469 L 45.527344 9.5625 L 0.984375 9.5625 Z M 0.984375 0.730469 " clip-rule="nonzero"/></clipPath><clipPath id="c6bc08268d"><rect x="0" width="46" y="0" height="10"/></clipPath><clipPath id="56bfe7ca5b"><path d="M 298 459.378906 L 348 459.378906 L 348 508.839844 L 298 508.839844 Z M 298 459.378906 " clip-rule="nonzero"/></clipPath><clipPath id="13bf417980"><path d="M 346 459.378906 L 356.816406 459.378906 L 356.816406 462 L 346 462 Z M 346 459.378906 " clip-rule="nonzero"/></clipPath><clipPath id="741fb4717e"><path d="M 289.367188 459.378906 L 300 459.378906 L 300 462 L 289.367188 462 Z M 289.367188 459.378906 " clip-rule="nonzero"/></clipPath><clipPath id="abf3fe0237"><path d="M 339 179.136719 L 389 179.136719 L 389 228.601562 L 339 228.601562 Z M 339 179.136719 " clip-rule="nonzero"/></clipPath><clipPath id="98af1d4486"><path d="M 330.667969 226 L 341 226 L 341 228.601562 L 330.667969 228.601562 Z M 330.667969 226 " clip-rule="nonzero"/></clipPath><clipPath id="41000a3aa8"><path d="M 387 226 L 398 226 L 398 228.601562 L 387 228.601562 Z M 387 226 " clip-rule="nonzero"/></clipPath><clipPath id="0950acca00"><path d="M 435.398438 179.132812 L 614.625 179.132812 L 614.625 226.246094 L 435.398438 226.246094 Z M 435.398438 179.132812 " clip-rule="nonzero"/></clipPath><clipPath id="b567da86a1"><path d="M 0.398438 0.132812 L 179.625 0.132812 L 179.625 47.246094 L 0.398438 47.246094 Z M 0.398438 0.132812 " clip-rule="nonzero"/></clipPath><clipPath id="47a3f0878c"><rect x="0" width="180" y="0" height="48"/></clipPath><clipPath id="d3f750739d"><path d="M 381.496094 513.523438 L 428.609375 513.523438 L 428.609375 660.269531 L 381.496094 660.269531 Z M 381.496094 513.523438 " clip-rule="nonzero"/></clipPath><clipPath id="838ea49c06"><path d="M 0.496094 0.523438 L 47.609375 0.523438 L 47.609375 147.269531 L 0.496094 147.269531 Z M 0.496094 0.523438 " clip-rule="nonzero"/></clipPath><clipPath id="77efe53ef3"><rect x="0" width="48" y="0" height="148"/></clipPath><clipPath id="7038b6dc95"><path d="M 216.371094 513.523438 L 263.484375 513.523438 L 263.484375 660.269531 L 216.371094 660.269531 Z M 216.371094 513.523438 " clip-rule="nonzero"/></clipPath><clipPath id="a1411bc777"><path d="M 0.371094 0.523438 L 47.484375 0.523438 L 47.484375 147.269531 L 0.371094 147.269531 Z M 0.371094 0.523438 " clip-rule="nonzero"/></clipPath><clipPath id="1323d313e2"><rect x="0" width="48" y="0" height="148"/></clipPath><clipPath id="0b94684df7"><path d="M 381.496094 344.464844 L 428.609375 344.464844 L 428.609375 424.367188 L 381.496094 424.367188 Z M 381.496094 344.464844 " clip-rule="nonzero"/></clipPath><clipPath id="fab68ce698"><path d="M 0.496094 0.464844 L 47.609375 0.464844 L 47.609375 80.367188 L 0.496094 80.367188 Z M 0.496094 0.464844 " clip-rule="nonzero"/></clipPath><clipPath id="1fcada9414"><rect x="0" width="48" y="0" height="81"/></clipPath><clipPath id="f86a561884"><path d="M 386.445312 366.085938 L 424.667969 366.085938 L 424.667969 402.808594 L 386.445312 402.808594 Z M 386.445312 366.085938 " clip-rule="nonzero"/></clipPath><clipPath id="3a6fbe435d"><path d="M 153.285156 186.0625 L 193.757812 186.0625 L 193.757812 225 L 153.285156 225 Z M 153.285156 186.0625 " clip-rule="nonzero"/></clipPath></defs><g clip-path="url(#24ec2f9d40)"><g transform="matrix(1, 0, 0, 1, 216, 224)"><g clip-path="url(#5a1007595e)"><g clip-path="url(#a46aae433f)"><path fill="#ffffff" d="M 0.320312 0.761719 L 212.613281 0.761719 L 212.613281 436.121094 L 0.320312 436.121094 Z M 0.320312 0.761719 " fill-opacity="1" fill-rule="nonzero"/></g></g></g></g><g clip-path="url(#9d19383f25)"><path stroke-linecap="butt" transform="matrix(0.749433, 0, 0, 0.749433, 216.321041, 224.761295)" fill="none" stroke-linejoin="miter" d="M -0.000972076 0.000565655 L 283.265077 0.000565655 L 283.265077 581.121808 L -0.000972076 581.121808 Z M -0.000972076 0.000565655 " stroke="#d50b2e" stroke-width="8" stroke-opacity="1" stroke-miterlimit="4"/></g><g clip-path="url(#ccf121cd66)"><g transform="matrix(1, 0, 0, 1, 0.000000000000000014, 0)"><g clip-path="url(#a82a14502e)"><g clip-path="url(#2562db46b2)"><path fill="#ffffff" d="M 644.808594 0.0390625 L 644.808594 228.316406 L 0.109375 228.316406 L 0.109375 0.0390625 Z M 644.808594 0.0390625 " fill-opacity="1" fill-rule="nonzero"/></g></g></g></g><g clip-path="url(#4c646c7d14)"><path stroke-linecap="butt" transform="matrix(0, 0.749433, -0.749433, 0, 644.809469, 0.039681)" fill="none" stroke-linejoin="miter" d="M -0.000825294 0.00116821 L 304.593834 0.00116821 L 304.593834 860.234279 L -0.000825294 860.234279 Z M -0.000825294 0.00116821 " stroke="#d50b2e" stroke-width="8" stroke-opacity="1" stroke-miterlimit="4"/></g><g clip-path="url(#f665491832)"><g transform="matrix(1, 0, 0, 1, 216, 226)"><g clip-path="url(#20935cb7da)"><g clip-path="url(#9a9ea7d60f)"><path fill="#ffffff" d="M 0.320312 0.25 L 212.613281 0.25 L 212.613281 235.761719 L 0.320312 235.761719 Z M 0.320312 0.25 " fill-opacity="1" fill-rule="nonzero"/></g></g></g></g><g clip-path="url(#443a66dde0)"><path stroke-linecap="butt" transform="matrix(0.749433, 0, 0, 0.749433, 216.3229, 226.250193)" fill="none" stroke-linejoin="miter" d="M 0.00176019 -0.000256913 L 283.262597 -0.000256913 L 283.262597 314.763542 L 0.00176019 314.763542 Z M 0.00176019 -0.000256913 " stroke="#d50b2e" stroke-width="8" stroke-opacity="1" stroke-miterlimit="4"/></g><g clip-path="url(#4d28e0b9b7)"><g transform="matrix(1, 0, 0, 1, 232, 226)"><g clip-path="url(#2aa828c303)"><g clip-path="url(#ba399ee597)"><path fill="#d50b2e" d="M 59.96875 61.316406 L 79.574219 61.316406 L 79.574219 59.078125 L 61.085938 59.078125 L 61.085938 40.585938 C 61.085938 40.4375 61.058594 40.296875 61.003906 40.15625 C 60.945312 40.019531 60.863281 39.898438 60.757812 39.792969 C 60.65625 39.691406 60.535156 39.609375 60.394531 39.550781 C 60.257812 39.496094 60.117188 39.46875 59.96875 39.46875 L 41.480469 39.46875 L 41.480469 20.976562 C 41.480469 20.828125 41.449219 20.6875 41.394531 20.550781 C 41.335938 20.414062 41.257812 20.292969 41.152344 20.1875 C 41.046875 20.082031 40.925781 20 40.789062 19.945312 C 40.652344 19.886719 40.507812 19.859375 40.359375 19.859375 L 21.867188 19.859375 L 21.867188 1.371094 C 21.867188 1.222656 21.839844 1.078125 21.785156 0.941406 C 21.726562 0.804688 21.644531 0.683594 21.542969 0.578125 C 21.4375 0.472656 21.316406 0.390625 21.179688 0.335938 C 21.039062 0.277344 20.898438 0.25 20.75 0.25 L 1.140625 0.25 L 1.140625 2.488281 L 19.628906 2.488281 L 19.628906 20.976562 C 19.628906 21.125 19.660156 21.269531 19.714844 21.40625 C 19.773438 21.542969 19.851562 21.664062 19.957031 21.769531 C 20.0625 21.875 20.183594 21.957031 20.320312 22.011719 C 20.457031 22.070312 20.601562 22.097656 20.75 22.097656 L 39.238281 22.097656 L 39.238281 40.585938 C 39.238281 40.734375 39.269531 40.878906 39.324219 41.015625 C 39.382812 41.152344 39.460938 41.273438 39.566406 41.378906 C 39.671875 41.484375 39.792969 41.5625 39.929688 41.621094 C 40.066406 41.679688 40.210938 41.707031 40.359375 41.707031 L 58.847656 41.707031 L 58.847656 60.195312 C 58.847656 60.34375 58.875 60.488281 58.933594 60.625 C 58.992188 60.761719 59.070312 60.882812 59.175781 60.988281 C 59.28125 61.09375 59.402344 61.171875 59.539062 61.230469 C 59.675781 61.289062 59.820312 61.316406 59.96875 61.316406 Z M 59.96875 61.316406 " fill-opacity="1" fill-rule="nonzero"/></g></g></g></g><g clip-path="url(#7db6146ed2)"><g transform="matrix(1, 0, 0, 1, 30, 0)"><g clip-path="url(#a366add2d5)"><g clip-path="url(#b770c11248)"><path fill="#d50b2e" d="M 0.3125 47.148438 L 0.3125 0.0351562 L 179.5625 0.0351562 L 179.5625 47.148438 Z M 0.3125 47.148438 " fill-opacity="1" fill-rule="nonzero"/></g></g></g></g><g clip-path="url(#1a579d5dcf)"><g transform="matrix(1, 0, 0, 1, 435, 0)"><g clip-path="url(#8fd0c04860)"><g clip-path="url(#031dc48f47)"><path fill="#d50b2e" d="M 0.398438 47.109375 L 0.398438 -0.00390625 L 179.652344 -0.00390625 L 179.652344 47.109375 Z M 0.398438 47.109375 " fill-opacity="1" fill-rule="nonzero"/></g></g></g></g><g clip-path="url(#0e4462fbdd)"><g transform="matrix(1, 0, 0, 1, 230, 0)"><g clip-path="url(#38b9371233)"><g clip-path="url(#197d32df22)"><path fill="#d50b2e" d="M 0.523438 47.109375 L 0.523438 -0.00390625 L 184.375 -0.00390625 L 184.375 47.109375 Z M 0.523438 47.109375 " fill-opacity="1" fill-rule="nonzero"/></g></g></g></g><g clip-path="url(#7689d59e13)"><g transform="matrix(1, 0, 0, 1, 30, 179)"><g clip-path="url(#7382cb105d)"><g clip-path="url(#637b54eaec)"><path fill="#d50b2e" d="M 0.308594 49.308594 L 0.308594 0.125 L 93.289062 0.125 L 93.289062 49.308594 Z M 0.308594 49.308594 " fill-opacity="1" fill-rule="nonzero"/></g></g></g></g><g clip-path="url(#6371c3acfb)"><g transform="matrix(1, 0, 0, 1, 137, 179)"><g clip-path="url(#3faf93d68a)"><g clip-path="url(#a80b42012e)"><path fill="#d50b2e" d="M 0.488281 49.308594 L 0.488281 0.125 L 72.53125 0.125 L 72.53125 49.308594 Z M 0.488281 49.308594 " fill-opacity="1" fill-rule="nonzero"/></g></g></g></g><g clip-path="url(#32d24844da)"><g transform="matrix(1, 0, 0, 1, 341, 221)"><g clip-path="url(#d1b88c4634)"><g clip-path="url(#f1669e3f03)"><path fill="#ffffff" d="M 0.628906 9.660156 L 0.628906 0.832031 L 45.4375 0.832031 L 45.4375 9.660156 Z M 0.628906 9.660156 " fill-opacity="1" fill-rule="nonzero"/></g></g></g></g><g clip-path="url(#398b237948)"><g transform="matrix(1, 0, 0, 1, 300, 457)"><g clip-path="url(#c6bc08268d)"><g clip-path="url(#9ecd06e51e)"><path fill="#ffffff" d="M 0.984375 9.5625 L 0.984375 0.730469 L 45.519531 0.730469 L 45.519531 9.5625 Z M 0.984375 9.5625 " fill-opacity="1" fill-rule="nonzero"/></g></g></g></g><g clip-path="url(#56bfe7ca5b)"><path fill="#d50b2e" d="M 302.445312 479.472656 C 304.867188 485.199219 308.335938 490.339844 312.746094 494.753906 C 317.160156 499.167969 322.304688 502.632812 328.027344 505.054688 C 333.953125 507.5625 340.246094 508.832031 346.738281 508.832031 L 347.832031 508.832031 L 347.832031 459.667969 L 345.640625 459.667969 L 345.640625 506.628906 C 321.210938 506.054688 301.445312 486.289062 300.871094 461.859375 L 300.871094 459.667969 L 298.667969 459.667969 L 298.667969 460.765625 C 298.667969 467.253906 299.9375 473.546875 302.445312 479.472656 " fill-opacity="1" fill-rule="nonzero"/></g><g clip-path="url(#13bf417980)"><path fill="#d50b2e" d="M 346.734375 459.667969 L 356.816406 459.667969 L 356.816406 461.859375 L 346.734375 461.859375 L 346.734375 459.667969 " fill-opacity="1" fill-rule="nonzero"/></g><g clip-path="url(#741fb4717e)"><path fill="#d50b2e" d="M 289.683594 459.667969 L 299.761719 459.667969 L 299.761719 461.859375 L 289.683594 461.859375 L 289.683594 459.667969 " fill-opacity="1" fill-rule="nonzero"/></g><g clip-path="url(#abf3fe0237)"><path fill="#d50b2e" d="M 385.035156 208.503906 C 382.613281 202.78125 379.148438 197.640625 374.734375 193.226562 C 370.320312 188.8125 365.179688 185.34375 359.457031 182.925781 C 353.53125 180.417969 347.234375 179.144531 340.746094 179.144531 L 339.652344 179.144531 L 339.652344 228.308594 L 341.839844 228.308594 L 341.839844 181.347656 C 366.269531 181.925781 386.035156 201.691406 386.609375 226.117188 L 386.609375 228.308594 L 388.816406 228.308594 L 388.816406 227.214844 C 388.816406 220.726562 387.542969 214.429688 385.035156 208.503906 " fill-opacity="1" fill-rule="nonzero"/></g><g clip-path="url(#98af1d4486)"><path fill="#d50b2e" d="M 340.746094 228.308594 L 330.667969 228.308594 L 330.667969 226.117188 L 340.746094 226.117188 L 340.746094 228.308594 " fill-opacity="1" fill-rule="nonzero"/></g><g clip-path="url(#41000a3aa8)"><path fill="#d50b2e" d="M 397.800781 228.308594 L 387.71875 228.308594 L 387.71875 226.117188 L 397.800781 226.117188 L 397.800781 228.308594 " fill-opacity="1" fill-rule="nonzero"/></g><g clip-path="url(#0950acca00)"><g transform="matrix(1, 0, 0, 1, 435, 179)"><g clip-path="url(#47a3f0878c)"><g clip-path="url(#b567da86a1)"><path fill="#d50b2e" d="M 0.398438 47.246094 L 0.398438 0.132812 L 179.652344 0.132812 L 179.652344 47.246094 Z M 0.398438 47.246094 " fill-opacity="1" fill-rule="nonzero"/></g></g></g></g><g clip-path="url(#d3f750739d)"><g transform="matrix(1, 0, 0, 1, 381, 513)"><g clip-path="url(#77efe53ef3)"><g clip-path="url(#838ea49c06)"><path fill="#d50b2e" d="M 47.609375 147.269531 L 0.496094 147.269531 L 0.496094 0.59375 L 47.609375 0.59375 Z M 47.609375 147.269531 " fill-opacity="1" fill-rule="nonzero"/></g></g></g></g><g clip-path="url(#7038b6dc95)"><g transform="matrix(1, 0, 0, 1, 216, 513)"><g clip-path="url(#1323d313e2)"><g clip-path="url(#a1411bc777)"><path fill="#d50b2e" d="M 47.484375 147.269531 L 0.371094 147.269531 L 0.371094 0.59375 L 47.484375 0.59375 Z M 47.484375 147.269531 " fill-opacity="1" fill-rule="nonzero"/></g></g></g></g><g clip-path="url(#0b94684df7)"><g transform="matrix(1, 0, 0, 1, 381, 344)"><g clip-path="url(#1fcada9414)"><g clip-path="url(#fab68ce698)"><path fill="#d50b2e" d="M 47.609375 80.367188 L 0.496094 80.367188 L 0.496094 0.496094 L 47.609375 0.496094 Z M 47.609375 80.367188 " fill-opacity="1" fill-rule="nonzero"/></g></g></g></g><g clip-path="url(#f86a561884)"><path fill="#ffffff" d="M 393.8125 373.632812 C 394.820312 373.632812 395.734375 373.207031 396.394531 372.519531 C 397.050781 371.835938 397.453125 370.894531 397.453125 369.859375 C 397.453125 368.824219 397.050781 367.882812 396.394531 367.199219 C 395.734375 366.511719 394.820312 366.085938 393.8125 366.085938 C 392.800781 366.085938 391.890625 366.511719 391.226562 367.203125 C 390.574219 367.882812 390.167969 368.824219 390.167969 369.859375 C 390.167969 370.894531 390.574219 371.835938 391.226562 372.519531 C 391.890625 373.207031 392.800781 373.632812 393.8125 373.632812 Z M 392.105469 368.042969 C 392.542969 367.589844 393.144531 367.304688 393.8125 367.304688 C 394.476562 367.304688 395.078125 367.589844 395.515625 368.042969 C 395.957031 368.507812 396.234375 369.148438 396.234375 369.859375 C 396.234375 370.570312 395.957031 371.214844 395.515625 371.675781 C 395.078125 372.128906 394.476562 372.414062 393.8125 372.414062 C 393.144531 372.414062 392.542969 372.128906 392.105469 371.675781 C 391.664062 371.214844 391.390625 370.570312 391.390625 369.859375 C 391.390625 369.148438 391.664062 368.507812 392.105469 368.042969 Z M 399.992188 375.394531 C 399.289062 374.699219 398.320312 374.269531 397.253906 374.269531 L 390.371094 374.269531 C 389.304688 374.269531 388.332031 374.699219 387.628906 375.394531 C 386.921875 376.09375 386.484375 377.054688 386.484375 378.113281 L 386.484375 386.820312 C 386.484375 387.464844 386.738281 388.054688 387.148438 388.480469 C 387.566406 388.914062 388.140625 389.183594 388.773438 389.183594 C 389.160156 389.183594 389.523438 389.082031 389.84375 388.90625 L 389.84375 400.386719 C 389.84375 401.03125 390.097656 401.617188 390.507812 402.046875 C 390.925781 402.480469 391.5 402.746094 392.132812 402.746094 C 392.765625 402.746094 393.34375 402.476562 393.757812 402.046875 C 393.777344 402.027344 393.792969 402.003906 393.8125 401.984375 C 393.832031 402.003906 393.847656 402.027344 393.867188 402.046875 C 394.285156 402.480469 394.859375 402.746094 395.492188 402.746094 C 396.125 402.746094 396.699219 402.476562 397.117188 402.046875 C 397.527344 401.617188 397.78125 401.03125 397.78125 400.386719 L 397.78125 388.90625 C 398.101562 389.082031 398.464844 389.183594 398.851562 389.183594 C 399.484375 389.183594 400.058594 388.914062 400.476562 388.480469 C 400.886719 388.054688 401.140625 387.464844 401.140625 386.824219 L 401.140625 378.113281 C 401.136719 377.054688 400.699219 376.09375 399.992188 375.394531 Z M 399.597656 387.636719 C 399.402344 387.839844 399.140625 387.960938 398.847656 387.960938 C 398.558594 387.960938 398.292969 387.835938 398.101562 387.636719 C 397.902344 387.429688 397.78125 387.144531 397.78125 386.824219 L 397.78125 379.289062 C 397.78125 378.949219 397.507812 378.675781 397.167969 378.675781 C 396.832031 378.675781 396.558594 378.949219 396.558594 379.289062 L 396.558594 400.386719 C 396.558594 400.707031 396.4375 400.996094 396.238281 401.203125 C 396.046875 401.40625 395.78125 401.527344 395.488281 401.527344 C 395.199219 401.527344 394.9375 401.402344 394.742188 401.203125 C 394.542969 400.996094 394.421875 400.707031 394.421875 400.386719 L 394.421875 388.675781 C 394.421875 388.335938 394.148438 388.0625 393.8125 388.0625 C 393.472656 388.0625 393.199219 388.335938 393.199219 388.675781 L 393.199219 400.386719 C 393.199219 400.707031 393.078125 400.996094 392.878906 401.203125 C 392.6875 401.40625 392.421875 401.527344 392.132812 401.527344 C 391.839844 401.527344 391.578125 401.402344 391.382812 401.203125 C 391.1875 400.996094 391.0625 400.707031 391.0625 400.386719 L 391.0625 379.289062 C 391.0625 378.949219 390.789062 378.675781 390.453125 378.675781 C 390.113281 378.675781 389.84375 378.949219 389.84375 379.289062 L 389.84375 386.824219 C 389.84375 387.140625 389.71875 387.429688 389.519531 387.636719 C 389.328125 387.839844 389.0625 387.960938 388.773438 387.960938 C 388.484375 387.960938 388.21875 387.835938 388.023438 387.636719 C 387.828125 387.429688 387.703125 387.140625 387.703125 386.820312 L 387.703125 378.113281 C 387.703125 377.390625 388 376.738281 388.480469 376.261719 C 388.964844 375.785156 389.632812 375.488281 390.367188 375.488281 L 397.25 375.488281 C 397.984375 375.488281 398.652344 375.785156 399.136719 376.261719 C 399.617188 376.738281 399.914062 377.390625 399.914062 378.113281 L 399.914062 386.820312 C 399.917969 387.140625 399.792969 387.429688 399.597656 387.636719 Z M 415.476562 373.632812 C 416.484375 373.632812 417.398438 373.207031 418.058594 372.519531 C 418.714844 371.835938 419.117188 370.894531 419.117188 369.859375 C 419.117188 368.824219 418.714844 367.882812 418.058594 367.199219 C 417.398438 366.511719 416.484375 366.085938 415.476562 366.085938 C 414.46875 366.085938 413.554688 366.511719 412.894531 367.203125 C 412.238281 367.882812 411.832031 368.824219 411.832031 369.859375 C 411.832031 370.894531 412.238281 371.835938 412.894531 372.519531 C 413.554688 373.207031 414.464844 373.632812 415.476562 373.632812 Z M 413.769531 368.042969 C 414.207031 367.589844 414.808594 367.304688 415.476562 367.304688 C 416.140625 367.304688 416.742188 367.589844 417.179688 368.042969 C 417.621094 368.507812 417.898438 369.148438 417.898438 369.859375 C 417.898438 370.570312 417.621094 371.214844 417.179688 371.675781 C 416.742188 372.128906 416.140625 372.414062 415.476562 372.414062 C 414.808594 372.414062 414.207031 372.128906 413.769531 371.675781 C 413.328125 371.214844 413.054688 370.570312 413.054688 369.859375 C 413.054688 369.148438 413.328125 368.507812 413.769531 368.042969 Z M 424.351562 385.148438 C 423.585938 382.457031 422.875 379.410156 421.972656 376.800781 C 421.734375 376.109375 421.316406 375.503906 420.777344 375.0625 C 420.171875 374.566406 419.417969 374.269531 418.601562 374.269531 L 412.347656 374.269531 C 411.53125 374.269531 410.777344 374.566406 410.171875 375.0625 C 409.636719 375.503906 409.214844 376.109375 408.980469 376.800781 C 408.972656 376.824219 408.964844 376.84375 408.957031 376.867188 L 408.945312 376.910156 C 408.925781 376.96875 408.910156 377.023438 408.894531 377.082031 C 408.894531 377.082031 408.894531 377.085938 408.894531 377.085938 L 406.601562 385.148438 C 406.429688 385.746094 406.488281 386.371094 406.71875 386.894531 C 406.957031 387.433594 407.386719 387.875 407.9375 388.085938 C 407.992188 388.105469 408.050781 388.125 408.105469 388.144531 C 408.386719 388.222656 408.671875 388.234375 408.945312 388.191406 L 408.1875 390.855469 C 408.097656 391.175781 408.285156 391.515625 408.605469 391.605469 C 408.664062 391.621094 408.71875 391.628906 408.773438 391.628906 L 411.507812 391.628906 L 411.507812 400.386719 C 411.507812 401.03125 411.761719 401.617188 412.175781 402.046875 C 412.589844 402.480469 413.164062 402.746094 413.800781 402.746094 C 414.433594 402.746094 415.007812 402.476562 415.421875 402.042969 C 415.441406 402.023438 415.460938 402.003906 415.476562 401.984375 C 415.496094 402.003906 415.515625 402.027344 415.53125 402.042969 C 415.949219 402.476562 416.523438 402.746094 417.15625 402.746094 C 417.789062 402.746094 418.367188 402.476562 418.78125 402.042969 C 419.191406 401.617188 419.445312 401.027344 419.445312 400.386719 L 419.445312 391.628906 L 422.179688 391.628906 C 422.519531 391.628906 422.792969 391.355469 422.792969 391.019531 C 422.792969 390.949219 422.78125 390.882812 422.757812 390.820312 L 422.007812 388.1875 C 422.285156 388.230469 422.570312 388.222656 422.851562 388.140625 C 422.90625 388.125 422.960938 388.105469 423.011719 388.085938 C 423.566406 387.871094 423.996094 387.433594 424.234375 386.890625 C 424.460938 386.371094 424.519531 385.746094 424.351562 385.148438 Z M 414.542969 401.203125 C 414.351562 401.40625 414.085938 401.53125 413.796875 401.53125 C 413.507812 401.53125 413.242188 401.40625 413.050781 401.203125 C 412.851562 400.996094 412.726562 400.710938 412.726562 400.390625 L 412.726562 391.632812 L 414.867188 391.632812 L 414.867188 400.390625 C 414.867188 400.707031 414.742188 400.996094 414.542969 401.203125 Z M 418.222656 400.386719 C 418.222656 400.707031 418.101562 400.996094 417.902344 401.203125 C 417.710938 401.40625 417.445312 401.527344 417.152344 401.527344 C 416.863281 401.527344 416.601562 401.402344 416.40625 401.203125 C 416.207031 400.996094 416.085938 400.707031 416.085938 400.386719 L 416.085938 391.632812 L 418.222656 391.632812 Z M 423.117188 386.402344 C 423.003906 386.660156 422.8125 386.863281 422.574219 386.953125 L 422.511719 386.972656 C 422.316406 387.027344 422.113281 386.996094 421.9375 386.894531 C 421.738281 386.785156 421.574219 386.589844 421.480469 386.335938 C 421.472656 386.3125 421.464844 386.289062 421.457031 386.265625 L 419.410156 379.074219 C 419.339844 378.828125 419.136719 378.664062 418.898438 378.632812 C 418.820312 378.625 418.738281 378.628906 418.660156 378.652344 C 418.335938 378.746094 418.148438 379.082031 418.238281 379.40625 C 418.894531 381.710938 419.515625 384.296875 420.273438 386.558594 L 421.371094 390.410156 L 409.582031 390.410156 L 410.675781 386.558594 C 411.4375 384.296875 412.054688 381.714844 412.710938 379.40625 C 412.804688 379.082031 412.617188 378.742188 412.292969 378.652344 C 411.96875 378.5625 411.632812 378.75 411.539062 379.074219 L 409.492188 386.265625 C 409.484375 386.289062 409.476562 386.3125 409.46875 386.335938 C 409.375 386.589844 409.210938 386.78125 409.015625 386.894531 C 408.839844 386.996094 408.636719 387.027344 408.4375 386.96875 L 408.375 386.949219 C 408.136719 386.863281 407.949219 386.660156 407.835938 386.402344 C 407.714844 386.125 407.683594 385.796875 407.773438 385.480469 L 410.128906 377.199219 C 410.128906 377.199219 410.132812 377.195312 410.132812 377.195312 C 410.292969 376.71875 410.578125 376.300781 410.945312 376 C 411.335938 375.679688 411.824219 375.488281 412.351562 375.488281 L 418.605469 375.488281 C 419.132812 375.488281 419.617188 375.679688 420.007812 376 C 420.371094 376.300781 420.65625 376.710938 420.820312 377.183594 L 423.179688 385.476562 C 423.269531 385.796875 423.238281 386.128906 423.117188 386.402344 Z M 405.1875 366.695312 L 405.1875 402.140625 C 405.1875 402.476562 404.914062 402.75 404.578125 402.75 C 404.238281 402.75 403.964844 402.476562 403.964844 402.140625 L 403.964844 366.695312 C 403.964844 366.359375 404.238281 366.085938 404.578125 366.085938 C 404.914062 366.085938 405.1875 366.359375 405.1875 366.695312 Z M 405.1875 366.695312 " fill-opacity="1" fill-rule="nonzero"/></g><g clip-path="url(#3a6fbe435d)"><path fill="#ffffff" d="M 161.058594 194.027344 C 162.125 194.027344 163.085938 193.578125 163.785156 192.847656 C 164.476562 192.128906 164.902344 191.136719 164.902344 190.042969 C 164.902344 188.953125 164.476562 187.960938 163.785156 187.238281 C 163.085938 186.511719 162.125 186.0625 161.058594 186.0625 C 159.992188 186.0625 159.03125 186.511719 158.332031 187.238281 C 157.640625 187.960938 157.214844 188.953125 157.214844 190.046875 C 157.214844 191.136719 157.640625 192.128906 158.332031 192.851562 C 159.03125 193.578125 159.992188 194.027344 161.058594 194.027344 Z M 159.257812 188.128906 C 159.71875 187.648438 160.355469 187.351562 161.058594 187.351562 C 161.761719 187.351562 162.398438 187.648438 162.859375 188.128906 C 163.324219 188.617188 163.613281 189.292969 163.613281 190.042969 C 163.613281 190.796875 163.324219 191.472656 162.859375 191.957031 C 162.398438 192.441406 161.761719 192.738281 161.058594 192.738281 C 160.355469 192.738281 159.71875 192.441406 159.257812 191.957031 C 158.792969 191.472656 158.503906 190.796875 158.503906 190.042969 C 158.503906 189.292969 158.792969 188.617188 159.257812 188.128906 Z M 167.582031 195.886719 C 166.839844 195.152344 165.816406 194.695312 164.691406 194.695312 L 157.425781 194.695312 C 156.300781 194.695312 155.277344 195.152344 154.535156 195.886719 C 153.789062 196.621094 153.328125 197.636719 153.328125 198.753906 L 153.328125 207.945312 C 153.328125 208.621094 153.597656 209.242188 154.03125 209.691406 C 154.46875 210.152344 155.074219 210.433594 155.742188 210.433594 C 156.152344 210.433594 156.535156 210.328125 156.871094 210.144531 L 156.871094 222.257812 C 156.871094 222.9375 157.140625 223.558594 157.574219 224.007812 C 158.011719 224.464844 158.621094 224.75 159.289062 224.75 C 159.957031 224.75 160.5625 224.464844 161.003906 224.007812 C 161.023438 223.988281 161.042969 223.964844 161.058594 223.945312 C 161.078125 223.964844 161.097656 223.988281 161.117188 224.007812 C 161.558594 224.464844 162.164062 224.75 162.832031 224.75 C 163.5 224.75 164.109375 224.464844 164.546875 224.007812 C 164.980469 223.554688 165.25 222.9375 165.25 222.257812 L 165.25 210.144531 C 165.585938 210.328125 165.96875 210.433594 166.378906 210.433594 C 167.046875 210.433594 167.652344 210.152344 168.089844 209.695312 C 168.523438 209.242188 168.792969 208.621094 168.792969 207.945312 L 168.792969 198.753906 C 168.789062 197.636719 168.328125 196.621094 167.582031 195.886719 Z M 167.164062 208.804688 C 166.960938 209.015625 166.679688 209.148438 166.375 209.148438 C 166.070312 209.148438 165.789062 209.015625 165.585938 208.804688 C 165.375 208.585938 165.246094 208.28125 165.246094 207.945312 L 165.246094 199.992188 C 165.246094 199.636719 164.957031 199.347656 164.601562 199.347656 C 164.246094 199.347656 163.957031 199.636719 163.957031 199.992188 L 163.957031 222.257812 C 163.957031 222.597656 163.828125 222.902344 163.621094 223.121094 C 163.414062 223.332031 163.136719 223.464844 162.828125 223.464844 C 162.523438 223.464844 162.246094 223.332031 162.042969 223.121094 C 161.832031 222.902344 161.703125 222.597656 161.703125 222.257812 L 161.703125 209.898438 C 161.703125 209.542969 161.414062 209.253906 161.058594 209.253906 C 160.703125 209.253906 160.414062 209.542969 160.414062 209.898438 L 160.414062 222.257812 C 160.414062 222.597656 160.285156 222.902344 160.074219 223.121094 C 159.871094 223.332031 159.59375 223.464844 159.285156 223.464844 C 158.980469 223.464844 158.699219 223.332031 158.496094 223.121094 C 158.289062 222.902344 158.15625 222.597656 158.15625 222.257812 L 158.15625 199.992188 C 158.15625 199.636719 157.871094 199.347656 157.515625 199.347656 C 157.160156 199.347656 156.871094 199.636719 156.871094 199.992188 L 156.871094 207.945312 C 156.871094 208.28125 156.738281 208.585938 156.53125 208.804688 C 156.328125 209.015625 156.046875 209.148438 155.742188 209.148438 C 155.4375 209.148438 155.15625 209.015625 154.953125 208.804688 C 154.742188 208.585938 154.613281 208.28125 154.613281 207.945312 L 154.613281 198.753906 C 154.613281 197.992188 154.929688 197.300781 155.433594 196.800781 C 155.945312 196.296875 156.648438 195.984375 157.425781 195.984375 L 164.6875 195.984375 C 165.464844 195.984375 166.167969 196.296875 166.679688 196.800781 C 167.183594 197.300781 167.5 197.992188 167.5 198.753906 L 167.5 207.945312 C 167.503906 208.28125 167.371094 208.585938 167.164062 208.804688 Z M 183.921875 194.027344 C 184.984375 194.027344 185.949219 193.578125 186.644531 192.847656 C 187.335938 192.128906 187.765625 191.136719 187.765625 190.042969 C 187.765625 188.953125 187.335938 187.960938 186.644531 187.238281 C 185.949219 186.511719 184.984375 186.0625 183.921875 186.0625 C 182.855469 186.0625 181.890625 186.511719 181.195312 187.238281 C 180.503906 187.960938 180.078125 188.953125 180.078125 190.046875 C 180.078125 191.136719 180.503906 192.128906 181.195312 192.851562 C 181.890625 193.578125 182.855469 194.027344 183.921875 194.027344 Z M 182.121094 188.128906 C 182.582031 187.648438 183.21875 187.351562 183.917969 187.351562 C 184.621094 187.351562 185.257812 187.648438 185.71875 188.128906 C 186.1875 188.617188 186.476562 189.292969 186.476562 190.042969 C 186.476562 190.796875 186.1875 191.472656 185.71875 191.957031 C 185.257812 192.441406 184.621094 192.738281 183.917969 192.738281 C 183.21875 192.738281 182.582031 192.441406 182.121094 191.957031 C 181.652344 191.472656 181.363281 190.796875 181.363281 190.042969 C 181.363281 189.292969 181.652344 188.617188 182.121094 188.128906 Z M 193.285156 206.175781 C 192.476562 203.335938 191.726562 200.121094 190.773438 197.371094 C 190.527344 196.636719 190.082031 196.003906 189.515625 195.535156 C 188.875 195.007812 188.082031 194.695312 187.21875 194.695312 L 180.621094 194.695312 C 179.757812 194.695312 178.964844 195.007812 178.324219 195.535156 C 177.757812 196.003906 177.316406 196.636719 177.066406 197.371094 C 177.058594 197.390625 177.046875 197.414062 177.039062 197.4375 L 177.027344 197.484375 C 177.011719 197.542969 176.992188 197.605469 176.976562 197.664062 C 176.976562 197.664062 176.976562 197.667969 176.976562 197.667969 L 174.554688 206.175781 C 174.375 206.808594 174.4375 207.46875 174.679688 208.019531 C 174.933594 208.589844 175.382812 209.054688 175.96875 209.277344 C 176.023438 209.300781 176.082031 209.320312 176.140625 209.335938 C 176.4375 209.421875 176.738281 209.4375 177.027344 209.390625 L 176.230469 212.199219 C 176.132812 212.539062 176.332031 212.894531 176.671875 212.992188 C 176.730469 213.007812 176.789062 213.015625 176.847656 213.015625 L 179.734375 213.015625 L 179.734375 222.257812 C 179.734375 222.9375 180.003906 223.558594 180.4375 224.007812 C 180.875 224.464844 181.480469 224.75 182.152344 224.75 C 182.820312 224.75 183.425781 224.464844 183.863281 224.007812 C 183.882812 223.984375 183.902344 223.964844 183.921875 223.945312 C 183.941406 223.964844 183.960938 223.988281 183.980469 224.007812 C 184.417969 224.464844 185.027344 224.75 185.695312 224.75 C 186.363281 224.75 186.96875 224.464844 187.410156 224.007812 C 187.839844 223.554688 188.109375 222.9375 188.109375 222.257812 L 188.109375 213.015625 L 190.996094 213.015625 C 191.351562 213.015625 191.640625 212.726562 191.640625 212.371094 C 191.640625 212.300781 191.628906 212.230469 191.605469 212.164062 L 190.816406 209.382812 C 191.105469 209.433594 191.40625 209.417969 191.703125 209.335938 C 191.757812 209.316406 191.820312 209.296875 191.875 209.277344 C 192.460938 209.050781 192.910156 208.585938 193.160156 208.015625 C 193.402344 207.46875 193.464844 206.808594 193.285156 206.175781 Z M 182.9375 223.121094 C 182.734375 223.332031 182.453125 223.464844 182.148438 223.464844 C 181.84375 223.464844 181.5625 223.332031 181.359375 223.121094 C 181.152344 222.902344 181.019531 222.597656 181.019531 222.261719 L 181.019531 213.019531 L 183.277344 213.019531 L 183.277344 222.261719 C 183.277344 222.597656 183.144531 222.902344 182.9375 223.121094 Z M 186.820312 222.257812 C 186.820312 222.597656 186.691406 222.902344 186.480469 223.121094 C 186.277344 223.332031 185.996094 223.464844 185.691406 223.464844 C 185.386719 223.464844 185.105469 223.332031 184.902344 223.121094 C 184.695312 222.902344 184.5625 222.597656 184.5625 222.257812 L 184.5625 213.019531 L 186.820312 213.019531 Z M 191.980469 207.5 C 191.863281 207.773438 191.664062 207.988281 191.410156 208.082031 L 191.347656 208.101562 C 191.136719 208.160156 190.921875 208.125 190.738281 208.019531 C 190.53125 207.902344 190.355469 207.699219 190.257812 207.433594 C 190.25 207.40625 190.242188 207.382812 190.234375 207.355469 L 188.074219 199.765625 C 188 199.507812 187.78125 199.335938 187.53125 199.304688 C 187.449219 199.292969 187.363281 199.300781 187.277344 199.324219 C 186.9375 199.421875 186.738281 199.777344 186.835938 200.117188 C 187.527344 202.550781 188.183594 205.28125 188.984375 207.664062 L 190.140625 211.730469 L 177.699219 211.730469 L 178.855469 207.664062 C 179.660156 205.28125 180.3125 202.550781 181.003906 200.117188 C 181.101562 199.777344 180.902344 199.417969 180.5625 199.324219 C 180.21875 199.226562 179.863281 199.425781 179.765625 199.765625 L 177.605469 207.355469 C 177.597656 207.382812 177.589844 207.40625 177.582031 207.433594 C 177.484375 207.699219 177.308594 207.902344 177.101562 208.019531 C 176.917969 208.125 176.703125 208.160156 176.492188 208.101562 L 176.429688 208.078125 C 176.175781 207.984375 175.976562 207.769531 175.859375 207.5 C 175.730469 207.210938 175.699219 206.859375 175.792969 206.527344 L 178.28125 197.789062 C 178.28125 197.789062 178.28125 197.785156 178.28125 197.785156 C 178.453125 197.28125 178.753906 196.84375 179.140625 196.523438 C 179.550781 196.183594 180.066406 195.980469 180.621094 195.980469 L 187.222656 195.980469 C 187.777344 195.980469 188.289062 196.183594 188.703125 196.523438 C 189.085938 196.839844 189.386719 197.273438 189.558594 197.773438 L 192.050781 206.523438 C 192.144531 206.863281 192.109375 207.210938 191.980469 207.5 Z M 173.0625 186.707031 L 173.0625 224.105469 C 173.0625 224.464844 172.773438 224.75 172.417969 224.75 C 172.0625 224.75 171.773438 224.464844 171.773438 224.105469 L 171.773438 186.707031 C 171.773438 186.351562 172.0625 186.0625 172.417969 186.0625 C 172.773438 186.0625 173.0625 186.351562 173.0625 186.707031 Z M 173.0625 186.707031 " fill-opacity="1" fill-rule="nonzero"/></g></svg>