<svg xmlns="http://www.w3.org/2000/svg" xmlns:xlink="http://www.w3.org/1999/xlink" width="861" zoomAndPan="magnify" viewBox="0 0 645.75 661.499985" height="882" preserveAspectRatio="xMidYMid meet" version="1.0"><defs><g/><clipPath id="e3f0ed3de3"><path d="M 202.566406 224.761719 L 442.367188 224.761719 L 442.367188 660.277344 L 202.566406 660.277344 Z M 202.566406 224.761719 " clip-rule="nonzero"/></clipPath><clipPath id="4f60504fe4"><path d="M 0.566406 0.761719 L 240.367188 0.761719 L 240.367188 436.277344 L 0.566406 436.277344 Z M 0.566406 0.761719 " clip-rule="nonzero"/></clipPath><clipPath id="bde735aa75"><rect x="0" width="241" y="0" height="437"/></clipPath><clipPath id="45befe66ff"><path d="M 202.566406 224.761719 L 442.363281 224.761719 L 442.363281 660.179688 L 202.566406 660.179688 Z M 202.566406 224.761719 " clip-rule="nonzero"/></clipPath><clipPath id="0c192ee936"><path d="M 0.117188 0.0390625 L 644.808594 0.0390625 L 644.808594 228.316406 L 0.117188 228.316406 Z M 0.117188 0.0390625 " clip-rule="nonzero"/></clipPath><clipPath id="abf0d0634b"><path d="M 0.117188 0.0390625 L 644.808594 0.0390625 L 644.808594 228.316406 L 0.117188 228.316406 Z M 0.117188 0.0390625 " clip-rule="nonzero"/></clipPath><clipPath id="c92e3892ea"><rect x="0" width="645" y="0" height="229"/></clipPath><clipPath id="e736e340b4"><path d="M 0.296875 0.0390625 L 644.808594 0.0390625 L 644.808594 228.3125 L 0.296875 228.3125 Z M 0.296875 0.0390625 " clip-rule="nonzero"/></clipPath><clipPath id="76a76070e4"><path d="M 202.566406 226.25 L 442.367188 226.25 L 442.367188 462.152344 L 202.566406 462.152344 Z M 202.566406 226.25 " clip-rule="nonzero"/></clipPath><clipPath id="3189be6845"><path d="M 0.566406 0.25 L 240.367188 0.25 L 240.367188 236.152344 L 0.566406 236.152344 Z M 0.566406 0.25 " clip-rule="nonzero"/></clipPath><clipPath id="5f078339cb"><rect x="0" width="241" y="0" height="237"/></clipPath><clipPath id="959bacc628"><path d="M 202.566406 226.25 L 442.359375 226.25 L 442.359375 462.144531 L 202.566406 462.144531 Z M 202.566406 226.25 " clip-rule="nonzero"/></clipPath><clipPath id="36969147f1"><path d="M 30.3125 0.0351562 L 209.542969 0.0351562 L 209.542969 47.148438 L 30.3125 47.148438 Z M 30.3125 0.0351562 " clip-rule="nonzero"/></clipPath><clipPath id="85208e14b7"><path d="M 0.3125 0.0351562 L 179.542969 0.0351562 L 179.542969 47.148438 L 0.3125 47.148438 Z M 0.3125 0.0351562 " clip-rule="nonzero"/></clipPath><clipPath id="dfb77c68df"><rect x="0" width="180" y="0" height="48"/></clipPath><clipPath id="921540d0f6"><path d="M 435.398438 0 L 614.625 0 L 614.625 47.109375 L 435.398438 47.109375 Z M 435.398438 0 " clip-rule="nonzero"/></clipPath><clipPath id="31229492f8"><path d="M 0.398438 0 L 179.625 0 L 179.625 47.109375 L 0.398438 47.109375 Z M 0.398438 0 " clip-rule="nonzero"/></clipPath><clipPath id="608d7bb466"><rect x="0" width="180" y="0" height="48"/></clipPath><clipPath id="08fa1ef6a9"><path d="M 230.523438 0 L 414.410156 0 L 414.410156 47.109375 L 230.523438 47.109375 Z M 230.523438 0 " clip-rule="nonzero"/></clipPath><clipPath id="dc042f0dd6"><path d="M 0.523438 0 L 184.410156 0 L 184.410156 47.109375 L 0.523438 47.109375 Z M 0.523438 0 " clip-rule="nonzero"/></clipPath><clipPath id="b6c9fa283a"><rect x="0" width="185" y="0" height="48"/></clipPath><clipPath id="ce9f3b2547"><path d="M 30.304688 179.132812 L 109.753906 179.132812 L 109.753906 228.3125 L 30.304688 228.3125 Z M 30.304688 179.132812 " clip-rule="nonzero"/></clipPath><clipPath id="6c060b6f52"><path d="M 0.304688 0.132812 L 79.753906 0.132812 L 79.753906 49.3125 L 0.304688 49.3125 Z M 0.304688 0.132812 " clip-rule="nonzero"/></clipPath><clipPath id="e5ce3e0c6d"><rect x="0" width="80" y="0" height="50"/></clipPath><clipPath id="77d2e5ed0a"><path d="M 120.140625 179.125 L 192.1875 179.125 L 192.1875 228.308594 L 120.140625 228.308594 Z M 120.140625 179.125 " clip-rule="nonzero"/></clipPath><clipPath id="1a6010c27f"><path d="M 0.140625 0.125 L 72.1875 0.125 L 72.1875 49.308594 L 0.140625 49.308594 Z M 0.140625 0.125 " clip-rule="nonzero"/></clipPath><clipPath id="28f16050d5"><rect x="0" width="73" y="0" height="50"/></clipPath><clipPath id="4a75a059dc"><path d="M 300.117188 221.832031 L 344.9375 221.832031 L 344.9375 230.660156 L 300.117188 230.660156 Z M 300.117188 221.832031 " clip-rule="nonzero"/></clipPath><clipPath id="4bd73fc733"><path d="M 0.117188 0.832031 L 44.9375 0.832031 L 44.9375 9.660156 L 0.117188 9.660156 Z M 0.117188 0.832031 " clip-rule="nonzero"/></clipPath><clipPath id="761ad1cc8e"><rect x="0" width="45" y="0" height="10"/></clipPath><clipPath id="b94026b6a5"><path d="M 300.117188 457.734375 L 344.9375 457.734375 L 344.9375 466.5625 L 300.117188 466.5625 Z M 300.117188 457.734375 " clip-rule="nonzero"/></clipPath><clipPath id="67848f5c38"><path d="M 0.117188 0.734375 L 44.9375 0.734375 L 44.9375 9.5625 L 0.117188 9.5625 Z M 0.117188 0.734375 " clip-rule="nonzero"/></clipPath><clipPath id="d044dbd713"><rect x="0" width="45" y="0" height="10"/></clipPath><clipPath id="5f1a64d819"><path d="M 297 412.972656 L 348 412.972656 L 348 462.433594 L 297 462.433594 Z M 297 412.972656 " clip-rule="nonzero"/></clipPath><clipPath id="f299dd53d9"><path d="M 288.953125 459 L 300 459 L 300 462.433594 L 288.953125 462.433594 Z M 288.953125 459 " clip-rule="nonzero"/></clipPath><clipPath id="1dbeb35add"><path d="M 346 459 L 356.402344 459 L 356.402344 462.433594 L 346 462.433594 Z M 346 459 " clip-rule="nonzero"/></clipPath><clipPath id="9bec9288a3"><path d="M 288.953125 226.25 L 356.402344 226.25 L 356.402344 275.710938 L 288.953125 275.710938 Z M 288.953125 226.25 " clip-rule="nonzero"/></clipPath><clipPath id="5a4bfa969e"><path d="M 9 0.25 L 60 0.25 L 60 49.421875 L 9 49.421875 Z M 9 0.25 " clip-rule="nonzero"/></clipPath><clipPath id="c92f0f9dbe"><path d="M 0.953125 0.25 L 12 0.25 L 12 3 L 0.953125 3 Z M 0.953125 0.25 " clip-rule="nonzero"/></clipPath><clipPath id="54363d3e47"><path d="M 58 0.25 L 68.25 0.25 L 68.25 3 L 58 3 Z M 58 0.25 " clip-rule="nonzero"/></clipPath><clipPath id="7fd0ecd836"><rect x="0" width="69" y="0" height="50"/></clipPath><clipPath id="9d45206e53"><path d="M 452.859375 179.132812 L 614.625 179.132812 L 614.625 226.246094 L 452.859375 226.246094 Z M 452.859375 179.132812 " clip-rule="nonzero"/></clipPath><clipPath id="fb878b0470"><path d="M 0.859375 0.132812 L 162.625 0.132812 L 162.625 47.246094 L 0.859375 47.246094 Z M 0.859375 0.132812 " clip-rule="nonzero"/></clipPath><clipPath id="499d3ce6f1"><rect x="0" width="163" y="0" height="48"/></clipPath><clipPath id="a041455ff8"><path d="M 136.046875 184.378906 L 176.515625 184.378906 L 176.515625 223.347656 L 136.046875 223.347656 Z M 136.046875 184.378906 " clip-rule="nonzero"/></clipPath><clipPath id="64815f437c"><path d="M 202.566406 228.515625 L 244.535156 228.515625 L 244.535156 318.445312 L 202.566406 318.445312 Z M 202.566406 228.515625 " clip-rule="nonzero"/></clipPath><clipPath id="7eed5ee557"><path d="M 0.566406 0.515625 L 42.359375 0.515625 L 42.359375 90.445312 L 0.566406 90.445312 Z M 0.566406 0.515625 " clip-rule="nonzero"/></clipPath><clipPath id="93fed4ec09"><rect x="0" width="43" y="0" height="91"/></clipPath><clipPath id="1580acc7d4"><path d="M 386.566406 269.539062 L 442.367188 269.539062 L 442.367188 348.992188 L 386.566406 348.992188 Z M 386.566406 269.539062 " clip-rule="nonzero"/></clipPath><clipPath id="8ab89ee078"><path d="M 0.566406 0.539062 L 56.367188 0.539062 L 56.367188 79.992188 L 0.566406 79.992188 Z M 0.566406 0.539062 " clip-rule="nonzero"/></clipPath><clipPath id="fc35a48ed7"><rect x="0" width="57" y="0" height="80"/></clipPath><clipPath id="0aabba50e6"><path d="M 398 297 L 431 297 L 431 336.339844 L 398 336.339844 Z M 398 297 " clip-rule="nonzero"/></clipPath><clipPath id="f29a75a3ed"><path d="M 413 297 L 416 297 L 416 336.339844 L 413 336.339844 Z M 413 297 " clip-rule="nonzero"/></clipPath><clipPath id="5068ffef6b"><path d="M 392.007812 283.878906 L 436.972656 283.878906 L 436.972656 336.339844 L 392.007812 336.339844 Z M 392.007812 283.878906 " clip-rule="nonzero"/></clipPath><clipPath id="295626daa3"><path d="M 202.566406 482.804688 L 249.679688 482.804688 L 249.679688 638.296875 L 202.566406 638.296875 Z M 202.566406 482.804688 " clip-rule="nonzero"/></clipPath><clipPath id="f970bdfb8a"><path d="M 0.566406 0.804688 L 47.679688 0.804688 L 47.679688 156.296875 L 0.566406 156.296875 Z M 0.566406 0.804688 " clip-rule="nonzero"/></clipPath><clipPath id="c48ad0ed5b"><rect x="0" width="48" y="0" height="157"/></clipPath><clipPath id="793f2168ff"><path d="M 392.007812 483.46875 L 439.121094 483.46875 L 439.121094 638.960938 L 392.007812 638.960938 Z M 392.007812 483.46875 " clip-rule="nonzero"/></clipPath><clipPath id="33b517f240"><path d="M 0.0078125 0.46875 L 47.121094 0.46875 L 47.121094 155.960938 L 0.0078125 155.960938 Z M 0.0078125 0.46875 " clip-rule="nonzero"/></clipPath><clipPath id="f586269094"><rect x="0" width="48" y="0" height="156"/></clipPath><clipPath id="33b0d92a33"><path d="M 202.566406 461.488281 L 442.367188 461.488281 L 442.367188 659.613281 L 202.566406 659.613281 Z M 202.566406 461.488281 " clip-rule="nonzero"/></clipPath><clipPath id="3993dacf9a"><path d="M 0.566406 0.488281 L 240.367188 0.488281 L 240.367188 198.613281 L 0.566406 198.613281 Z M 0.566406 0.488281 " clip-rule="nonzero"/></clipPath><clipPath id="898a4999be"><rect x="0" width="241" y="0" height="199"/></clipPath><clipPath id="7b409dd05c"><path d="M 386.566406 369.214844 L 442.367188 369.214844 L 442.367188 441.265625 L 386.566406 441.265625 Z M 386.566406 369.214844 " clip-rule="nonzero"/></clipPath><clipPath id="6d98e84fff"><path d="M 0.566406 0.214844 L 56.367188 0.214844 L 56.367188 72.265625 L 0.566406 72.265625 Z M 0.566406 0.214844 " clip-rule="nonzero"/></clipPath><clipPath id="23ab13aa85"><rect x="0" width="57" y="0" height="73"/></clipPath><clipPath id="4017992e4a"><path d="M 395.167969 385.890625 L 435.636719 385.890625 L 435.636719 424.859375 L 395.167969 424.859375 Z M 395.167969 385.890625 " clip-rule="nonzero"/></clipPath></defs><g clip-path="url(#e3f0ed3de3)"><g transform="matrix(1, 0, 0, 1, 202, 224)"><g clip-path="url(#bde735aa75)"><g clip-path="url(#4f60504fe4)"><path fill="#ffffff" d="M 0.566406 0.761719 L 240.367188 0.761719 L 240.367188 436.332031 L 0.566406 436.332031 Z M 0.566406 0.761719 " fill-opacity="1" fill-rule="nonzero"/></g></g></g></g><g clip-path="url(#45befe66ff)"><path stroke-linecap="butt" transform="matrix(0.749433, 0, 0, 0.749433, 202.566829, 224.762758)" fill="none" stroke-linejoin="miter" d="M -0.000563446 -0.00138635 L 319.970314 -0.00138635 L 319.970314 581.119893 L -0.000563446 581.119893 Z M -0.000563446 -0.00138635 " stroke="#d50b2e" stroke-width="8" stroke-opacity="1" stroke-miterlimit="4"/></g><g clip-path="url(#0c192ee936)"><g transform="matrix(1, 0, 0, 1, 0.000000000000000014, 0)"><g clip-path="url(#c92e3892ea)"><g clip-path="url(#abf0d0634b)"><path fill="#ffffff" d="M 644.808594 0.0390625 L 644.808594 228.316406 L 0.109375 228.316406 L 0.109375 0.0390625 Z M 644.808594 0.0390625 " fill-opacity="1" fill-rule="nonzero"/></g></g></g></g><g clip-path="url(#e736e340b4)"><path stroke-linecap="butt" transform="matrix(0, 0.749433, -0.749433, 0, 644.809469, 0.039681)" fill="none" stroke-linejoin="miter" d="M -0.000825294 0.00116821 L 304.593834 0.00116821 L 304.593834 860.234279 L -0.000825294 860.234279 Z M -0.000825294 0.00116821 " stroke="#d50b2e" stroke-width="8" stroke-opacity="1" stroke-miterlimit="4"/></g><g clip-path="url(#76a76070e4)"><g transform="matrix(1, 0, 0, 1, 202, 226)"><g clip-path="url(#5f078339cb)"><g clip-path="url(#3189be6845)"><path fill="#ffffff" d="M 0.566406 0.25 L 240.15625 0.25 L 240.15625 236.152344 L 0.566406 236.152344 Z M 0.566406 0.25 " fill-opacity="1" fill-rule="nonzero"/></g></g></g></g><g clip-path="url(#959bacc628)"><path stroke-linecap="butt" transform="matrix(0.749433, 0, 0, 0.749433, 202.568116, 226.250193)" fill="none" stroke-linejoin="miter" d="M -0.00228185 -0.000256913 L 319.963363 -0.000256913 L 319.963363 314.763542 L -0.00228185 314.763542 Z M -0.00228185 -0.000256913 " stroke="#d50b2e" stroke-width="8" stroke-opacity="1" stroke-miterlimit="4"/></g><g clip-path="url(#36969147f1)"><g transform="matrix(1, 0, 0, 1, 30, 0)"><g clip-path="url(#dfb77c68df)"><g clip-path="url(#85208e14b7)"><path fill="#d50b2e" d="M 0.3125 47.148438 L 0.3125 0.0351562 L 179.5625 0.0351562 L 179.5625 47.148438 Z M 0.3125 47.148438 " fill-opacity="1" fill-rule="nonzero"/></g></g></g></g><g clip-path="url(#921540d0f6)"><g transform="matrix(1, 0, 0, 1, 435, 0)"><g clip-path="url(#608d7bb466)"><g clip-path="url(#31229492f8)"><path fill="#d50b2e" d="M 0.398438 47.109375 L 0.398438 -0.00390625 L 179.652344 -0.00390625 L 179.652344 47.109375 Z M 0.398438 47.109375 " fill-opacity="1" fill-rule="nonzero"/></g></g></g></g><g clip-path="url(#08fa1ef6a9)"><g transform="matrix(1, 0, 0, 1, 230, 0)"><g clip-path="url(#b6c9fa283a)"><g clip-path="url(#dc042f0dd6)"><path fill="#d50b2e" d="M 0.523438 47.109375 L 0.523438 -0.00390625 L 184.375 -0.00390625 L 184.375 47.109375 Z M 0.523438 47.109375 " fill-opacity="1" fill-rule="nonzero"/></g></g></g></g><g clip-path="url(#ce9f3b2547)"><g transform="matrix(1, 0, 0, 1, 30, 179)"><g clip-path="url(#e5ce3e0c6d)"><g clip-path="url(#6c060b6f52)"><path fill="#d50b2e" d="M 0.304688 49.3125 L 0.304688 0.132812 L 79.835938 0.132812 L 79.835938 49.3125 Z M 0.304688 49.3125 " fill-opacity="1" fill-rule="nonzero"/></g></g></g></g><g clip-path="url(#77d2e5ed0a)"><g transform="matrix(1, 0, 0, 1, 120, 179)"><g clip-path="url(#28f16050d5)"><g clip-path="url(#1a6010c27f)"><path fill="#d50b2e" d="M 0.140625 49.308594 L 0.140625 0.125 L 72.179688 0.125 L 72.179688 49.308594 Z M 0.140625 49.308594 " fill-opacity="1" fill-rule="nonzero"/></g></g></g></g><g clip-path="url(#4a75a059dc)"><g transform="matrix(1, 0, 0, 1, 300, 221)"><g clip-path="url(#761ad1cc8e)"><g clip-path="url(#4bd73fc733)"><path fill="#ffffff" d="M 0.117188 9.660156 L 0.117188 0.832031 L 44.925781 0.832031 L 44.925781 9.660156 Z M 0.117188 9.660156 " fill-opacity="1" fill-rule="nonzero"/></g></g></g></g><g clip-path="url(#b94026b6a5)"><g transform="matrix(1, 0, 0, 1, 300, 457)"><g clip-path="url(#d044dbd713)"><g clip-path="url(#67848f5c38)"><path fill="#ffffff" d="M 0.117188 9.5625 L 0.117188 0.734375 L 44.925781 0.734375 L 44.925781 9.5625 Z M 0.117188 9.5625 " fill-opacity="1" fill-rule="nonzero"/></g></g></g></g><g clip-path="url(#5f1a64d819)"><path fill="#d50b2e" d="M 343.324219 442.339844 C 340.902344 436.617188 337.4375 431.476562 333.023438 427.0625 C 328.609375 422.648438 323.46875 419.179688 317.742188 416.757812 C 311.816406 414.253906 305.523438 412.980469 299.03125 412.980469 L 297.9375 412.980469 L 297.9375 462.144531 L 300.128906 462.144531 L 300.128906 415.183594 C 324.558594 415.761719 344.324219 435.523438 344.898438 459.953125 L 344.898438 462.144531 L 347.101562 462.144531 L 347.101562 461.050781 C 347.101562 454.5625 345.832031 448.265625 343.324219 442.339844 " fill-opacity="1" fill-rule="nonzero"/></g><g clip-path="url(#f299dd53d9)"><path fill="#d50b2e" d="M 299.035156 462.144531 L 288.953125 462.144531 L 288.953125 459.953125 L 299.035156 459.953125 L 299.035156 462.144531 " fill-opacity="1" fill-rule="nonzero"/></g><g clip-path="url(#1dbeb35add)"><path fill="#d50b2e" d="M 356.085938 462.144531 L 346.007812 462.144531 L 346.007812 459.953125 L 356.085938 459.953125 L 356.085938 462.144531 " fill-opacity="1" fill-rule="nonzero"/></g><g clip-path="url(#9bec9288a3)"><g transform="matrix(1, 0, 0, 1, 288, 226)"><g clip-path="url(#7fd0ecd836)"><g clip-path="url(#5a4bfa969e)"><path fill="#d50b2e" d="M 55.324219 20.050781 C 52.902344 25.777344 49.4375 30.917969 45.023438 35.332031 C 40.609375 39.746094 35.46875 43.210938 29.742188 45.632812 C 23.816406 48.140625 17.523438 49.410156 11.03125 49.410156 L 9.9375 49.410156 L 9.9375 0.246094 L 12.128906 0.246094 L 12.128906 47.207031 C 36.558594 46.632812 56.324219 26.867188 56.898438 2.4375 L 56.898438 0.246094 L 59.101562 0.246094 L 59.101562 1.34375 C 59.101562 7.832031 57.832031 14.125 55.324219 20.050781 " fill-opacity="1" fill-rule="nonzero"/></g><g clip-path="url(#c92f0f9dbe)"><path fill="#d50b2e" d="M 11.035156 0.25 L 0.953125 0.25 L 0.953125 2.4375 L 11.035156 2.4375 L 11.035156 0.25 " fill-opacity="1" fill-rule="nonzero"/></g><g clip-path="url(#54363d3e47)"><path fill="#d50b2e" d="M 68.085938 0.25 L 58.007812 0.25 L 58.007812 2.4375 L 68.085938 2.4375 L 68.085938 0.25 " fill-opacity="1" fill-rule="nonzero"/></g></g></g></g><g clip-path="url(#9d45206e53)"><g transform="matrix(1, 0, 0, 1, 452, 179)"><g clip-path="url(#499d3ce6f1)"><g clip-path="url(#fb878b0470)"><path fill="#d50b2e" d="M 0.859375 47.246094 L 0.859375 0.132812 L 162.625 0.132812 L 162.625 47.246094 Z M 0.859375 47.246094 " fill-opacity="1" fill-rule="nonzero"/></g></g></g></g><g clip-path="url(#a041455ff8)"><path fill="#ffffff" d="M 143.820312 192.339844 C 144.882812 192.339844 145.847656 191.890625 146.542969 191.164062 C 147.234375 190.445312 147.664062 189.453125 147.664062 188.359375 C 147.664062 187.265625 147.234375 186.273438 146.542969 185.554688 C 145.847656 184.828125 144.882812 184.378906 143.820312 184.378906 C 142.753906 184.378906 141.789062 184.828125 141.09375 185.554688 C 140.402344 186.273438 139.976562 187.269531 139.976562 188.359375 C 139.976562 189.453125 140.402344 190.445312 141.09375 191.164062 C 141.789062 191.890625 142.753906 192.339844 143.820312 192.339844 Z M 142.019531 186.445312 C 142.480469 185.964844 143.117188 185.664062 143.820312 185.664062 C 144.519531 185.664062 145.15625 185.960938 145.617188 186.445312 C 146.085938 186.929688 146.375 187.609375 146.375 188.359375 C 146.375 189.109375 146.085938 189.789062 145.617188 190.273438 C 145.15625 190.753906 144.519531 191.054688 143.820312 191.054688 C 143.117188 191.054688 142.480469 190.757812 142.019531 190.273438 C 141.550781 189.789062 141.261719 189.109375 141.261719 188.359375 C 141.261719 187.609375 141.550781 186.933594 142.019531 186.445312 Z M 150.339844 194.203125 C 149.597656 193.46875 148.574219 193.011719 147.449219 193.011719 L 140.1875 193.011719 C 139.0625 193.011719 138.039062 193.46875 137.296875 194.203125 C 136.550781 194.9375 136.085938 195.953125 136.085938 197.070312 L 136.085938 206.257812 C 136.085938 206.9375 136.355469 207.558594 136.789062 208.007812 C 137.226562 208.464844 137.835938 208.75 138.503906 208.75 C 138.910156 208.75 139.296875 208.644531 139.632812 208.457031 L 139.632812 220.574219 C 139.632812 221.253906 139.902344 221.871094 140.335938 222.324219 C 140.773438 222.78125 141.378906 223.066406 142.050781 223.066406 C 142.71875 223.066406 143.324219 222.78125 143.761719 222.324219 C 143.78125 222.300781 143.800781 222.28125 143.820312 222.261719 C 143.839844 222.28125 143.859375 222.304688 143.878906 222.324219 C 144.316406 222.78125 144.925781 223.066406 145.59375 223.066406 C 146.261719 223.066406 146.867188 222.78125 147.308594 222.324219 C 147.738281 221.871094 148.007812 221.253906 148.007812 220.574219 L 148.007812 208.460938 C 148.347656 208.644531 148.730469 208.75 149.136719 208.75 C 149.804688 208.75 150.414062 208.464844 150.851562 208.007812 C 151.285156 207.558594 151.554688 206.9375 151.554688 206.261719 L 151.554688 197.070312 C 151.554688 197.070312 151.554688 197.070312 151.554688 197.066406 C 151.550781 195.953125 151.085938 194.9375 150.339844 194.203125 Z M 149.925781 207.121094 C 149.71875 207.332031 149.441406 207.460938 149.132812 207.460938 C 148.828125 207.460938 148.550781 207.332031 148.347656 207.121094 C 148.136719 206.902344 148.007812 206.597656 148.007812 206.261719 L 148.007812 205.492188 C 148.007812 205.492188 148.007812 205.492188 148.007812 205.488281 L 148.007812 198.308594 C 148.007812 197.953125 147.71875 197.664062 147.363281 197.664062 C 147.007812 197.664062 146.71875 197.953125 146.71875 198.308594 L 146.71875 205.488281 C 146.71875 205.488281 146.71875 205.492188 146.71875 205.492188 L 146.71875 220.574219 C 146.71875 220.914062 146.589844 221.21875 146.378906 221.433594 C 146.175781 221.648438 145.898438 221.777344 145.589844 221.777344 C 145.285156 221.777344 145.003906 221.648438 144.800781 221.433594 C 144.59375 221.21875 144.460938 220.914062 144.460938 220.574219 L 144.460938 208.214844 C 144.460938 207.859375 144.175781 207.570312 143.820312 207.570312 C 143.464844 207.570312 143.175781 207.859375 143.175781 208.214844 L 143.175781 220.574219 C 143.175781 220.914062 143.042969 221.21875 142.835938 221.433594 C 142.632812 221.648438 142.351562 221.777344 142.046875 221.777344 C 141.742188 221.777344 141.460938 221.648438 141.257812 221.433594 C 141.046875 221.21875 140.917969 220.914062 140.917969 220.574219 L 140.917969 205.492188 C 140.917969 205.492188 140.917969 205.488281 140.917969 205.488281 L 140.917969 198.308594 C 140.917969 197.953125 140.628906 197.664062 140.273438 197.664062 C 139.917969 197.664062 139.628906 197.953125 139.628906 198.308594 L 139.628906 205.488281 C 139.628906 205.488281 139.628906 205.492188 139.628906 205.492188 L 139.628906 206.261719 C 139.628906 206.597656 139.5 206.902344 139.289062 207.121094 C 139.085938 207.332031 138.808594 207.460938 138.5 207.460938 C 138.195312 207.460938 137.917969 207.332031 137.714844 207.121094 C 137.503906 206.902344 137.375 206.597656 137.375 206.257812 L 137.375 197.070312 C 137.375 196.308594 137.6875 195.617188 138.195312 195.117188 C 138.703125 194.613281 139.410156 194.300781 140.183594 194.300781 L 147.449219 194.300781 C 148.222656 194.300781 148.929688 194.613281 149.4375 195.117188 C 149.945312 195.617188 150.257812 196.308594 150.257812 197.070312 L 150.257812 206.257812 C 150.261719 206.597656 150.132812 206.902344 149.925781 207.121094 Z M 166.679688 192.339844 C 167.746094 192.339844 168.710938 191.890625 169.40625 191.164062 C 170.097656 190.445312 170.523438 189.453125 170.523438 188.359375 C 170.523438 187.265625 170.097656 186.273438 169.40625 185.554688 C 168.707031 184.828125 167.746094 184.378906 166.679688 184.378906 C 165.617188 184.378906 164.652344 184.828125 163.957031 185.554688 C 163.265625 186.273438 162.835938 187.269531 162.835938 188.359375 C 162.835938 189.453125 163.265625 190.445312 163.957031 191.164062 C 164.652344 191.890625 165.613281 192.339844 166.679688 192.339844 Z M 164.878906 186.445312 C 165.339844 185.964844 165.976562 185.664062 166.679688 185.664062 C 167.382812 185.664062 168.019531 185.960938 168.480469 186.445312 C 168.945312 186.929688 169.234375 187.609375 169.234375 188.359375 C 169.234375 189.109375 168.945312 189.789062 168.480469 190.273438 C 168.019531 190.753906 167.382812 191.054688 166.679688 191.054688 C 165.976562 191.054688 165.339844 190.757812 164.878906 190.273438 C 164.414062 189.789062 164.125 189.109375 164.125 188.359375 C 164.125 187.609375 164.414062 186.933594 164.878906 186.445312 Z M 176.046875 204.492188 C 175.238281 201.652344 174.488281 198.4375 173.535156 195.6875 C 173.285156 194.953125 172.84375 194.316406 172.277344 193.851562 C 171.636719 193.324219 170.839844 193.011719 169.980469 193.011719 L 163.378906 193.011719 C 162.519531 193.011719 161.722656 193.324219 161.085938 193.851562 C 160.515625 194.316406 160.074219 194.953125 159.828125 195.683594 C 159.816406 195.707031 159.808594 195.730469 159.800781 195.753906 L 159.789062 195.800781 C 159.769531 195.859375 159.753906 195.917969 159.738281 195.980469 C 159.734375 195.980469 159.734375 195.984375 159.734375 195.984375 L 157.316406 204.492188 C 157.136719 205.125 157.199219 205.785156 157.441406 206.335938 C 157.691406 206.90625 158.144531 207.367188 158.726562 207.59375 C 158.785156 207.613281 158.84375 207.636719 158.902344 207.652344 C 159.199219 207.738281 159.5 207.75 159.789062 207.703125 L 158.988281 210.511719 C 158.894531 210.855469 159.089844 211.210938 159.433594 211.308594 C 159.492188 211.324219 159.550781 211.332031 159.609375 211.332031 L 162.496094 211.332031 L 162.496094 220.574219 C 162.496094 221.253906 162.761719 221.871094 163.195312 222.324219 C 163.636719 222.78125 164.242188 223.066406 164.910156 223.066406 C 165.578125 223.066406 166.1875 222.78125 166.625 222.324219 C 166.644531 222.300781 166.664062 222.28125 166.683594 222.257812 C 166.703125 222.28125 166.722656 222.300781 166.742188 222.324219 C 167.179688 222.78125 167.785156 223.0625 168.457031 223.0625 C 169.125 223.0625 169.730469 222.78125 170.167969 222.324219 C 170.601562 221.871094 170.871094 221.25 170.871094 220.574219 L 170.871094 211.332031 L 173.757812 211.332031 C 174.113281 211.332031 174.402344 211.042969 174.402344 210.6875 C 174.402344 210.613281 174.386719 210.542969 174.367188 210.476562 L 173.574219 207.699219 C 173.863281 207.746094 174.164062 207.734375 174.460938 207.648438 C 174.519531 207.632812 174.578125 207.613281 174.632812 207.589844 C 175.21875 207.367188 175.667969 206.902344 175.921875 206.332031 C 176.164062 205.785156 176.226562 205.125 176.046875 204.492188 Z M 165.695312 221.433594 C 165.492188 221.648438 165.214844 221.78125 164.910156 221.78125 C 164.605469 221.78125 164.324219 221.648438 164.121094 221.4375 C 163.910156 221.21875 163.78125 220.914062 163.78125 220.574219 L 163.78125 211.335938 L 166.035156 211.335938 L 166.035156 220.574219 C 166.035156 220.914062 165.90625 221.21875 165.695312 221.433594 Z M 169.582031 220.574219 C 169.582031 220.914062 169.449219 221.21875 169.242188 221.433594 C 169.039062 221.648438 168.757812 221.777344 168.453125 221.777344 C 168.144531 221.777344 167.867188 221.648438 167.664062 221.433594 C 167.453125 221.21875 167.324219 220.914062 167.324219 220.574219 L 167.324219 211.332031 L 169.582031 211.332031 Z M 174.742188 205.816406 C 174.621094 206.085938 174.421875 206.300781 174.171875 206.394531 L 174.105469 206.417969 C 173.898438 206.476562 173.683594 206.441406 173.496094 206.335938 C 173.289062 206.21875 173.117188 206.015625 173.015625 205.75 C 173.007812 205.722656 173 205.695312 172.992188 205.671875 L 170.832031 198.082031 C 170.761719 197.824219 170.542969 197.648438 170.292969 197.617188 C 170.210938 197.609375 170.125 197.613281 170.039062 197.640625 C 169.699219 197.734375 169.5 198.089844 169.597656 198.433594 C 170.289062 200.867188 170.941406 203.59375 171.742188 205.980469 L 172.898438 210.046875 L 160.460938 210.046875 L 161.617188 205.980469 C 162.417969 203.597656 163.070312 200.867188 163.765625 198.433594 C 163.863281 198.089844 163.664062 197.734375 163.320312 197.640625 C 162.980469 197.542969 162.625 197.738281 162.527344 198.082031 L 160.367188 205.671875 C 160.359375 205.695312 160.351562 205.722656 160.34375 205.746094 C 160.242188 206.011719 160.070312 206.21875 159.863281 206.335938 C 159.679688 206.441406 159.460938 206.476562 159.253906 206.414062 L 159.1875 206.394531 C 158.9375 206.300781 158.738281 206.085938 158.621094 205.816406 C 158.488281 205.523438 158.457031 205.175781 158.554688 204.84375 L 161.039062 196.105469 C 161.039062 196.105469 161.042969 196.101562 161.042969 196.101562 C 161.210938 195.59375 161.515625 195.15625 161.898438 194.839844 C 162.3125 194.5 162.828125 194.296875 163.382812 194.296875 L 169.984375 194.296875 C 170.539062 194.296875 171.050781 194.5 171.464844 194.839844 C 171.847656 195.15625 172.148438 195.585938 172.320312 196.089844 L 174.8125 204.839844 C 174.902344 205.175781 174.871094 205.527344 174.742188 205.816406 Z M 155.824219 185.023438 L 155.824219 222.421875 C 155.824219 222.777344 155.535156 223.066406 155.179688 223.066406 C 154.824219 223.066406 154.535156 222.777344 154.535156 222.421875 L 154.535156 185.023438 C 154.535156 184.667969 154.824219 184.378906 155.179688 184.378906 C 155.535156 184.378906 155.824219 184.667969 155.824219 185.023438 Z M 155.824219 185.023438 " fill-opacity="1" fill-rule="nonzero"/></g><g clip-path="url(#64815f437c)"><g transform="matrix(1, 0, 0, 1, 202, 228)"><g clip-path="url(#93fed4ec09)"><g clip-path="url(#7eed5ee557)"><path fill="#d50b2e" d="M 16.640625 1.980469 L 16.640625 6.574219 L 27.894531 6.574219 C 28.105469 6.574219 28.3125 6.613281 28.507812 6.695312 C 28.707031 6.777344 28.878906 6.894531 29.03125 7.042969 C 29.179688 7.195312 29.296875 7.367188 29.378906 7.566406 C 29.460938 7.761719 29.5 7.96875 29.5 8.179688 L 29.5 12.925781 L 40.753906 12.925781 C 40.964844 12.925781 41.171875 12.96875 41.367188 13.050781 C 41.566406 13.132812 41.738281 13.246094 41.890625 13.398438 C 42.039062 13.550781 42.15625 13.722656 42.238281 13.917969 C 42.320312 14.117188 42.359375 14.320312 42.359375 14.535156 L 42.359375 76.226562 C 42.359375 76.441406 42.320312 76.644531 42.238281 76.84375 C 42.15625 77.039062 42.039062 77.214844 41.890625 77.363281 C 41.738281 77.515625 41.566406 77.628906 41.367188 77.710938 C 41.171875 77.792969 40.964844 77.835938 40.753906 77.835938 L 29.5 77.835938 L 29.5 82.582031 C 29.5 82.792969 29.460938 83 29.378906 83.195312 C 29.296875 83.394531 29.179688 83.566406 29.03125 83.71875 C 28.878906 83.867188 28.707031 83.984375 28.507812 84.066406 C 28.3125 84.148438 28.105469 84.1875 27.894531 84.1875 L 16.640625 84.1875 L 16.640625 88.78125 C 16.640625 88.996094 16.601562 89.199219 16.519531 89.394531 C 16.4375 89.59375 16.324219 89.765625 16.171875 89.917969 C 16.019531 90.070312 15.847656 90.183594 15.648438 90.265625 C 15.453125 90.347656 15.246094 90.386719 15.035156 90.386719 L 2.175781 90.386719 C 1.960938 90.386719 1.757812 90.347656 1.558594 90.265625 C 1.363281 90.183594 1.191406 90.070312 1.039062 89.917969 C 0.886719 89.765625 0.773438 89.59375 0.691406 89.394531 C 0.609375 89.199219 0.566406 88.996094 0.566406 88.78125 L 0.566406 1.980469 C 0.566406 1.769531 0.609375 1.5625 0.691406 1.367188 C 0.773438 1.167969 0.886719 0.996094 1.039062 0.84375 C 1.191406 0.695312 1.363281 0.578125 1.558594 0.496094 C 1.757812 0.414062 1.960938 0.375 2.175781 0.375 L 15.035156 0.375 C 15.246094 0.375 15.453125 0.414062 15.648438 0.496094 C 15.847656 0.578125 16.019531 0.695312 16.171875 0.84375 C 16.324219 0.996094 16.4375 1.167969 16.519531 1.367188 C 16.601562 1.5625 16.640625 1.769531 16.640625 1.980469 Z M 39.144531 74.621094 L 39.144531 16.140625 L 29.5 16.140625 L 29.5 74.621094 Z M 26.285156 80.972656 L 26.285156 9.789062 L 16.640625 9.789062 L 16.640625 80.972656 Z M 3.78125 3.589844 L 3.78125 87.171875 L 13.425781 87.171875 L 13.425781 3.589844 Z M 3.78125 3.589844 " fill-opacity="1" fill-rule="nonzero"/></g></g></g></g><g clip-path="url(#1580acc7d4)"><g transform="matrix(1, 0, 0, 1, 386, 269)"><g clip-path="url(#fc35a48ed7)"><g clip-path="url(#8ab89ee078)"><path fill="#d50b2e" d="M 0.566406 0.539062 L 56.367188 0.539062 L 56.367188 80.097656 L 0.566406 80.097656 Z M 0.566406 0.539062 " fill-opacity="1" fill-rule="nonzero"/></g></g></g></g><g clip-path="url(#0aabba50e6)"><path fill="#ffffff" d="M 429.105469 336.082031 L 399.816406 336.082031 C 399.683594 336.082031 399.554688 336.058594 399.433594 336.007812 C 399.308594 335.957031 399.199219 335.882812 399.105469 335.789062 C 399.011719 335.695312 398.941406 335.585938 398.890625 335.464844 C 398.839844 335.339844 398.8125 335.210938 398.8125 335.078125 L 398.8125 298.097656 C 398.8125 297.964844 398.839844 297.835938 398.890625 297.714844 C 398.941406 297.589844 399.011719 297.480469 399.105469 297.386719 C 399.199219 297.292969 399.308594 297.222656 399.433594 297.171875 C 399.554688 297.121094 399.683594 297.09375 399.816406 297.09375 L 429.105469 297.09375 C 429.238281 297.09375 429.367188 297.121094 429.492188 297.171875 C 429.613281 297.222656 429.722656 297.292969 429.816406 297.386719 C 429.910156 297.480469 429.984375 297.589844 430.035156 297.714844 C 430.085938 297.835938 430.109375 297.964844 430.109375 298.097656 L 430.109375 335.078125 C 430.109375 335.210938 430.085938 335.339844 430.035156 335.464844 C 429.984375 335.585938 429.910156 335.695312 429.816406 335.789062 C 429.722656 335.882812 429.613281 335.957031 429.492188 336.007812 C 429.367188 336.058594 429.238281 336.082031 429.105469 336.082031 Z M 400.820312 334.074219 L 428.101562 334.074219 L 428.101562 299.101562 L 400.820312 299.101562 Z M 400.820312 334.074219 " fill-opacity="1" fill-rule="nonzero"/></g><g clip-path="url(#f29a75a3ed)"><path fill="#ffffff" d="M 414.460938 336.082031 C 414.328125 336.082031 414.199219 336.058594 414.074219 336.007812 C 413.953125 335.957031 413.84375 335.882812 413.75 335.789062 C 413.65625 335.695312 413.582031 335.585938 413.53125 335.464844 C 413.480469 335.339844 413.457031 335.210938 413.457031 335.078125 L 413.457031 298.097656 C 413.457031 297.964844 413.480469 297.835938 413.53125 297.714844 C 413.582031 297.589844 413.65625 297.480469 413.75 297.386719 C 413.84375 297.292969 413.953125 297.222656 414.074219 297.171875 C 414.199219 297.121094 414.328125 297.09375 414.460938 297.09375 C 414.59375 297.09375 414.722656 297.121094 414.84375 297.171875 C 414.96875 297.222656 415.074219 297.292969 415.167969 297.386719 C 415.265625 297.480469 415.335938 297.589844 415.386719 297.714844 C 415.4375 297.835938 415.464844 297.964844 415.464844 298.097656 L 415.464844 335.078125 C 415.464844 335.210938 415.4375 335.339844 415.386719 335.464844 C 415.335938 335.585938 415.265625 335.695312 415.167969 335.789062 C 415.074219 335.882812 414.96875 335.957031 414.84375 336.007812 C 414.722656 336.058594 414.59375 336.082031 414.460938 336.082031 Z M 414.460938 336.082031 " fill-opacity="1" fill-rule="nonzero"/></g><path fill="#ffffff" d="M 407.136719 323.09375 C 407.003906 323.09375 406.875 323.066406 406.753906 323.015625 C 406.628906 322.964844 406.519531 322.890625 406.425781 322.796875 C 406.332031 322.703125 406.261719 322.59375 406.210938 322.472656 C 406.160156 322.347656 406.132812 322.222656 406.132812 322.089844 L 406.132812 311.085938 C 406.132812 310.953125 406.160156 310.828125 406.210938 310.703125 C 406.261719 310.582031 406.332031 310.472656 406.425781 310.378906 C 406.519531 310.285156 406.628906 310.210938 406.753906 310.160156 C 406.875 310.109375 407.003906 310.082031 407.136719 310.082031 C 407.269531 310.082031 407.398438 310.109375 407.519531 310.160156 C 407.644531 310.210938 407.753906 310.285156 407.847656 310.378906 C 407.941406 310.472656 408.011719 310.582031 408.0625 310.703125 C 408.113281 310.828125 408.140625 310.953125 408.140625 311.085938 L 408.140625 322.089844 C 408.140625 322.222656 408.113281 322.347656 408.0625 322.472656 C 408.011719 322.59375 407.941406 322.703125 407.847656 322.796875 C 407.753906 322.890625 407.644531 322.964844 407.519531 323.015625 C 407.398438 323.066406 407.269531 323.09375 407.136719 323.09375 Z M 407.136719 323.09375 " fill-opacity="1" fill-rule="nonzero"/><path fill="#ffffff" d="M 407.136719 323.09375 C 406.863281 323.09375 406.632812 322.996094 406.4375 322.808594 L 403.765625 320.207031 C 403.667969 320.113281 403.59375 320.007812 403.539062 319.882812 C 403.488281 319.761719 403.460938 319.632812 403.457031 319.5 C 403.453125 319.367188 403.476562 319.238281 403.527344 319.113281 C 403.578125 318.988281 403.648438 318.878906 403.742188 318.785156 C 403.835938 318.6875 403.941406 318.613281 404.066406 318.5625 C 404.1875 318.507812 404.316406 318.480469 404.449219 318.480469 C 404.582031 318.476562 404.710938 318.503906 404.835938 318.550781 C 404.960938 318.601562 405.070312 318.675781 405.164062 318.769531 L 407.835938 321.371094 C 407.984375 321.511719 408.078125 321.683594 408.121094 321.882812 C 408.160156 322.082031 408.144531 322.277344 408.066406 322.46875 C 407.988281 322.65625 407.867188 322.808594 407.699219 322.921875 C 407.527344 323.035156 407.339844 323.09375 407.136719 323.09375 Z M 407.136719 323.09375 " fill-opacity="1" fill-rule="nonzero"/><path fill="#ffffff" d="M 407.136719 323.09375 C 406.933594 323.09375 406.746094 323.035156 406.578125 322.921875 C 406.40625 322.808594 406.285156 322.65625 406.207031 322.46875 C 406.128906 322.277344 406.113281 322.082031 406.15625 321.882812 C 406.195312 321.683594 406.289062 321.511719 406.4375 321.371094 L 409.109375 318.769531 C 409.203125 318.671875 409.3125 318.597656 409.4375 318.546875 C 409.5625 318.492188 409.691406 318.46875 409.828125 318.46875 C 409.960938 318.46875 410.09375 318.496094 410.214844 318.546875 C 410.339844 318.601562 410.449219 318.675781 410.542969 318.773438 C 410.636719 318.867188 410.710938 318.980469 410.757812 319.105469 C 410.808594 319.230469 410.832031 319.363281 410.828125 319.496094 C 410.824219 319.632812 410.796875 319.761719 410.738281 319.882812 C 410.683594 320.007812 410.605469 320.113281 410.507812 320.207031 L 407.835938 322.808594 C 407.640625 322.996094 407.410156 323.09375 407.136719 323.09375 Z M 407.136719 323.09375 " fill-opacity="1" fill-rule="nonzero"/><path fill="#ffffff" d="M 421.785156 323.09375 C 421.652344 323.09375 421.523438 323.066406 421.398438 323.015625 C 421.277344 322.964844 421.167969 322.894531 421.074219 322.796875 C 420.980469 322.703125 420.90625 322.597656 420.855469 322.472656 C 420.804688 322.351562 420.78125 322.222656 420.78125 322.089844 L 420.78125 311.085938 C 420.78125 310.953125 420.804688 310.828125 420.855469 310.703125 C 420.90625 310.582031 420.980469 310.472656 421.074219 310.378906 C 421.167969 310.285156 421.277344 310.210938 421.398438 310.160156 C 421.523438 310.109375 421.652344 310.082031 421.785156 310.082031 C 421.917969 310.082031 422.042969 310.109375 422.167969 310.160156 C 422.289062 310.210938 422.398438 310.285156 422.492188 310.378906 C 422.585938 310.472656 422.660156 310.582031 422.710938 310.703125 C 422.761719 310.828125 422.789062 310.953125 422.789062 311.085938 L 422.789062 322.089844 C 422.789062 322.222656 422.761719 322.351562 422.710938 322.472656 C 422.660156 322.597656 422.585938 322.703125 422.492188 322.796875 C 422.398438 322.894531 422.289062 322.964844 422.167969 323.015625 C 422.042969 323.066406 421.917969 323.09375 421.785156 323.09375 Z M 421.785156 323.09375 " fill-opacity="1" fill-rule="nonzero"/><path fill="#ffffff" d="M 419.109375 314.695312 C 418.90625 314.695312 418.71875 314.636719 418.550781 314.523438 C 418.378906 314.410156 418.257812 314.257812 418.179688 314.070312 C 418.101562 313.878906 418.085938 313.683594 418.128906 313.484375 C 418.167969 313.285156 418.265625 313.113281 418.410156 312.96875 L 421.082031 310.367188 C 421.179688 310.273438 421.289062 310.203125 421.410156 310.152344 C 421.535156 310.101562 421.664062 310.078125 421.796875 310.078125 C 421.929688 310.082031 422.058594 310.109375 422.183594 310.160156 C 422.304688 310.210938 422.414062 310.285156 422.507812 310.382812 C 422.597656 310.476562 422.671875 310.589844 422.71875 310.710938 C 422.769531 310.835938 422.792969 310.964844 422.789062 311.097656 C 422.789062 311.234375 422.761719 311.359375 422.707031 311.484375 C 422.652344 311.605469 422.578125 311.714844 422.484375 311.804688 L 419.8125 314.40625 C 419.617188 314.597656 419.382812 314.695312 419.109375 314.695312 Z M 419.109375 314.695312 " fill-opacity="1" fill-rule="nonzero"/><path fill="#ffffff" d="M 424.457031 314.695312 C 424.183594 314.695312 423.949219 314.601562 423.753906 314.410156 L 421.082031 311.804688 C 420.988281 311.714844 420.914062 311.605469 420.859375 311.484375 C 420.808594 311.359375 420.78125 311.234375 420.78125 311.101562 C 420.777344 310.96875 420.800781 310.839844 420.851562 310.714844 C 420.898438 310.589844 420.972656 310.480469 421.0625 310.386719 C 421.15625 310.292969 421.265625 310.21875 421.386719 310.164062 C 421.507812 310.113281 421.636719 310.085938 421.769531 310.082031 C 421.902344 310.082031 422.03125 310.105469 422.15625 310.152344 C 422.277344 310.203125 422.386719 310.273438 422.484375 310.367188 L 425.15625 312.96875 C 425.304688 313.113281 425.398438 313.285156 425.441406 313.484375 C 425.484375 313.683594 425.464844 313.878906 425.390625 314.070312 C 425.3125 314.257812 425.1875 314.410156 425.019531 314.523438 C 424.847656 314.640625 424.660156 314.695312 424.457031 314.695312 Z M 424.457031 314.695312 " fill-opacity="1" fill-rule="nonzero"/><path fill="#ffffff" d="M 424.457031 299.101562 L 404.464844 299.101562 C 404.332031 299.101562 404.203125 299.074219 404.082031 299.023438 C 403.957031 298.972656 403.847656 298.902344 403.753906 298.808594 C 403.660156 298.714844 403.589844 298.605469 403.539062 298.480469 C 403.484375 298.359375 403.460938 298.230469 403.460938 298.097656 L 403.460938 292.15625 C 403.460938 292.023438 403.484375 291.898438 403.539062 291.773438 C 403.589844 291.652344 403.660156 291.542969 403.753906 291.449219 C 403.847656 291.355469 403.957031 291.28125 404.082031 291.230469 C 404.203125 291.179688 404.332031 291.15625 404.464844 291.15625 L 424.457031 291.15625 C 424.589844 291.15625 424.71875 291.179688 424.839844 291.230469 C 424.964844 291.28125 425.070312 291.355469 425.164062 291.449219 C 425.261719 291.542969 425.332031 291.652344 425.382812 291.773438 C 425.433594 291.898438 425.460938 292.023438 425.460938 292.15625 L 425.460938 298.097656 C 425.460938 298.230469 425.433594 298.359375 425.382812 298.480469 C 425.332031 298.605469 425.261719 298.714844 425.164062 298.808594 C 425.070312 298.902344 424.964844 298.972656 424.839844 299.023438 C 424.71875 299.074219 424.589844 299.101562 424.457031 299.101562 Z M 405.46875 297.09375 L 423.453125 297.09375 L 423.453125 293.160156 L 405.46875 293.160156 Z M 405.46875 297.09375 " fill-opacity="1" fill-rule="nonzero"/><path fill="#ffffff" d="M 409.304688 296.292969 C 409.171875 296.292969 409.042969 296.269531 408.917969 296.214844 C 408.796875 296.164062 408.6875 296.09375 408.59375 296 C 408.5 295.90625 408.425781 295.796875 408.375 295.671875 C 408.324219 295.550781 408.300781 295.421875 408.300781 295.289062 L 408.300781 294.964844 C 408.300781 294.832031 408.324219 294.703125 408.375 294.582031 C 408.425781 294.457031 408.5 294.351562 408.59375 294.253906 C 408.6875 294.160156 408.796875 294.089844 408.917969 294.039062 C 409.042969 293.988281 409.171875 293.960938 409.304688 293.960938 C 409.4375 293.960938 409.566406 293.988281 409.6875 294.039062 C 409.8125 294.089844 409.917969 294.160156 410.011719 294.253906 C 410.109375 294.351562 410.179688 294.457031 410.230469 294.582031 C 410.28125 294.703125 410.308594 294.832031 410.308594 294.964844 L 410.308594 295.289062 C 410.308594 295.421875 410.28125 295.550781 410.230469 295.671875 C 410.179688 295.796875 410.109375 295.90625 410.011719 296 C 409.917969 296.09375 409.8125 296.164062 409.6875 296.214844 C 409.566406 296.269531 409.4375 296.292969 409.304688 296.292969 Z M 409.304688 296.292969 " fill-opacity="1" fill-rule="nonzero"/><path fill="#ffffff" d="M 419.617188 296.292969 C 419.484375 296.292969 419.355469 296.269531 419.230469 296.214844 C 419.109375 296.164062 419 296.09375 418.90625 296 C 418.8125 295.90625 418.738281 295.796875 418.6875 295.671875 C 418.636719 295.550781 418.613281 295.421875 418.613281 295.289062 L 418.613281 294.964844 C 418.613281 294.832031 418.636719 294.703125 418.6875 294.582031 C 418.738281 294.457031 418.8125 294.351562 418.90625 294.253906 C 419 294.160156 419.109375 294.089844 419.230469 294.039062 C 419.355469 293.988281 419.484375 293.960938 419.617188 293.960938 C 419.75 293.960938 419.878906 293.988281 420 294.039062 C 420.125 294.089844 420.230469 294.160156 420.324219 294.253906 C 420.417969 294.351562 420.492188 294.457031 420.542969 294.582031 C 420.59375 294.703125 420.621094 294.832031 420.621094 294.964844 L 420.621094 295.289062 C 420.621094 295.421875 420.59375 295.550781 420.542969 295.671875 C 420.492188 295.796875 420.417969 295.90625 420.324219 296 C 420.230469 296.09375 420.125 296.164062 420 296.214844 C 419.878906 296.269531 419.75 296.292969 419.617188 296.292969 Z M 419.617188 296.292969 " fill-opacity="1" fill-rule="nonzero"/><g clip-path="url(#5068ffef6b)"><path fill="#ffffff" d="M 435.910156 336.082031 L 393.011719 336.082031 C 392.875 336.082031 392.75 336.058594 392.625 336.007812 C 392.503906 335.957031 392.394531 335.882812 392.300781 335.789062 C 392.207031 335.695312 392.132812 335.585938 392.082031 335.464844 C 392.03125 335.339844 392.007812 335.210938 392.007812 335.078125 L 392.007812 284.902344 C 392.007812 284.769531 392.03125 284.640625 392.082031 284.519531 C 392.132812 284.394531 392.207031 284.289062 392.300781 284.195312 C 392.394531 284.097656 392.503906 284.027344 392.625 283.976562 C 392.75 283.925781 392.875 283.898438 393.011719 283.898438 L 435.910156 283.898438 C 436.042969 283.898438 436.171875 283.925781 436.292969 283.976562 C 436.417969 284.027344 436.527344 284.097656 436.621094 284.195312 C 436.714844 284.289062 436.785156 284.394531 436.835938 284.519531 C 436.886719 284.640625 436.914062 284.769531 436.914062 284.902344 L 436.914062 335.078125 C 436.914062 335.210938 436.886719 335.339844 436.835938 335.464844 C 436.785156 335.585938 436.714844 335.695312 436.621094 335.789062 C 436.527344 335.882812 436.417969 335.957031 436.292969 336.007812 C 436.171875 336.058594 436.042969 336.082031 435.910156 336.082031 Z M 394.011719 334.074219 L 434.90625 334.074219 L 434.90625 285.90625 L 394.011719 285.90625 Z M 394.011719 334.074219 " fill-opacity="1" fill-rule="nonzero"/></g><g clip-path="url(#295626daa3)"><g transform="matrix(1, 0, 0, 1, 202, 482)"><g clip-path="url(#c48ad0ed5b)"><g clip-path="url(#f970bdfb8a)"><path fill="#d50b2e" d="M 0.566406 0.804688 L 47.679688 0.804688 L 47.679688 156.316406 L 0.566406 156.316406 Z M 0.566406 0.804688 " fill-opacity="1" fill-rule="nonzero"/></g></g></g></g><g fill="#ffffff" fill-opacity="1"><g transform="translate(284.069682, 569.45827)"><g><path d="M 5.328125 0 L 2.21875 0 L 2.21875 -17.125 L 6.65625 -17.125 L 10.984375 -4.53125 L 11.234375 -4.53125 L 15.546875 -17.125 L 19.859375 -17.125 L 19.859375 0 L 16.65625 0 L 16.65625 -11.3125 L 16.359375 -11.359375 L 12.40625 0 L 9.578125 0 L 5.625 -11.359375 L 5.328125 -11.3125 Z M 5.328125 0 "/></g></g><g transform="translate(306.16626, 569.45827)"><g><path d="M 12.765625 -5.734375 L 4.46875 -5.734375 C 4.5625 -4.609375 4.878906 -3.785156 5.421875 -3.265625 C 5.960938 -2.753906 6.707031 -2.5 7.65625 -2.5 C 8.394531 -2.5 8.992188 -2.640625 9.453125 -2.921875 C 9.921875 -3.203125 10.296875 -3.625 10.578125 -4.1875 L 10.828125 -4.1875 L 12.96875 -2.796875 C 12.550781 -1.890625 11.914062 -1.15625 11.0625 -0.59375 C 10.21875 -0.03125 9.082031 0.25 7.65625 0.25 C 6.320312 0.25 5.164062 -0.00390625 4.1875 -0.515625 C 3.21875 -1.023438 2.46875 -1.78125 1.9375 -2.78125 C 1.414062 -3.78125 1.15625 -5.003906 1.15625 -6.453125 C 1.15625 -7.921875 1.429688 -9.15625 1.984375 -10.15625 C 2.546875 -11.164062 3.296875 -11.914062 4.234375 -12.40625 C 5.179688 -12.90625 6.242188 -13.15625 7.421875 -13.15625 C 9.253906 -13.15625 10.65625 -12.671875 11.625 -11.703125 C 12.59375 -10.742188 13.078125 -9.328125 13.078125 -7.453125 C 13.078125 -6.765625 13.054688 -6.238281 13.015625 -5.875 Z M 9.984375 -7.828125 C 9.953125 -8.804688 9.722656 -9.519531 9.296875 -9.96875 C 8.867188 -10.414062 8.242188 -10.640625 7.421875 -10.640625 C 5.785156 -10.640625 4.820312 -9.703125 4.53125 -7.828125 Z M 9.984375 -7.828125 "/></g></g><g transform="translate(320.206428, 569.45827)"><g><path d="M 1.859375 0 L 1.859375 -12.921875 L 4.984375 -12.921875 L 4.984375 -11.015625 L 5.21875 -10.96875 C 6.019531 -12.425781 7.328125 -13.15625 9.140625 -13.15625 C 10.628906 -13.15625 11.722656 -12.75 12.421875 -11.9375 C 13.117188 -11.132812 13.46875 -9.953125 13.46875 -8.390625 L 13.46875 0 L 10.21875 0 L 10.21875 -8 C 10.21875 -8.851562 10.046875 -9.46875 9.703125 -9.84375 C 9.359375 -10.226562 8.8125 -10.421875 8.0625 -10.421875 C 7.125 -10.421875 6.394531 -10.117188 5.875 -9.515625 C 5.363281 -8.921875 5.109375 -7.976562 5.109375 -6.6875 L 5.109375 0 Z M 1.859375 0 "/></g></g><g transform="translate(335.335617, 569.45827)"><g><path d="M 6.046875 0.25 C 5.160156 0.25 4.347656 0.144531 3.609375 -0.0625 C 2.878906 -0.269531 2.253906 -0.554688 1.734375 -0.921875 C 1.210938 -1.285156 0.828125 -1.703125 0.578125 -2.171875 L 2.390625 -4.109375 L 2.640625 -4.109375 C 3.066406 -3.535156 3.570312 -3.101562 4.15625 -2.8125 C 4.738281 -2.519531 5.375 -2.375 6.0625 -2.375 C 6.695312 -2.375 7.171875 -2.488281 7.484375 -2.71875 C 7.804688 -2.945312 7.96875 -3.269531 7.96875 -3.6875 C 7.96875 -4.019531 7.851562 -4.296875 7.625 -4.515625 C 7.394531 -4.734375 7.023438 -4.90625 6.515625 -5.03125 L 4.796875 -5.453125 C 3.515625 -5.753906 2.578125 -6.21875 1.984375 -6.84375 C 1.398438 -7.46875 1.109375 -8.265625 1.109375 -9.234375 C 1.109375 -10.046875 1.3125 -10.742188 1.71875 -11.328125 C 2.132812 -11.921875 2.710938 -12.375 3.453125 -12.6875 C 4.203125 -13 5.070312 -13.15625 6.0625 -13.15625 C 7.226562 -13.15625 8.191406 -12.988281 8.953125 -12.65625 C 9.722656 -12.320312 10.320312 -11.875 10.75 -11.3125 L 9.015625 -9.4375 L 8.78125 -9.4375 C 8.425781 -9.84375 8.019531 -10.140625 7.5625 -10.328125 C 7.113281 -10.515625 6.613281 -10.609375 6.0625 -10.609375 C 4.78125 -10.609375 4.140625 -10.210938 4.140625 -9.421875 C 4.140625 -9.078125 4.257812 -8.800781 4.5 -8.59375 C 4.738281 -8.382812 5.160156 -8.210938 5.765625 -8.078125 L 7.359375 -7.734375 C 8.671875 -7.453125 9.628906 -7 10.234375 -6.375 C 10.835938 -5.757812 11.140625 -4.925781 11.140625 -3.875 C 11.140625 -3.050781 10.9375 -2.328125 10.53125 -1.703125 C 10.125 -1.078125 9.535156 -0.59375 8.765625 -0.25 C 8.003906 0.0820312 7.097656 0.25 6.046875 0.25 Z M 6.046875 0.25 "/></g></g><g transform="translate(347.244583, 569.45827)"><g><path d="M 5.03125 0.25 C 4.207031 0.25 3.488281 0.0976562 2.875 -0.203125 C 2.269531 -0.515625 1.800781 -0.960938 1.46875 -1.546875 C 1.144531 -2.140625 0.984375 -2.847656 0.984375 -3.671875 C 0.984375 -4.441406 1.144531 -5.082031 1.46875 -5.59375 C 1.800781 -6.113281 2.3125 -6.539062 3 -6.875 C 3.6875 -7.207031 4.582031 -7.460938 5.6875 -7.640625 C 6.457031 -7.765625 7.046875 -7.898438 7.453125 -8.046875 C 7.859375 -8.203125 8.128906 -8.375 8.265625 -8.5625 C 8.410156 -8.75 8.484375 -8.988281 8.484375 -9.28125 C 8.484375 -9.6875 8.335938 -10 8.046875 -10.21875 C 7.753906 -10.4375 7.273438 -10.546875 6.609375 -10.546875 C 5.890625 -10.546875 5.203125 -10.382812 4.546875 -10.0625 C 3.898438 -9.75 3.34375 -9.332031 2.875 -8.8125 L 2.640625 -8.8125 L 1.28125 -10.859375 C 1.9375 -11.585938 2.734375 -12.148438 3.671875 -12.546875 C 4.617188 -12.953125 5.648438 -13.15625 6.765625 -13.15625 C 8.472656 -13.15625 9.707031 -12.789062 10.46875 -12.0625 C 11.238281 -11.34375 11.625 -10.316406 11.625 -8.984375 L 11.625 -3.375 C 11.625 -2.789062 11.878906 -2.5 12.390625 -2.5 C 12.585938 -2.5 12.78125 -2.535156 12.96875 -2.609375 L 13.125 -2.5625 L 13.359375 -0.296875 C 13.179688 -0.179688 12.929688 -0.0859375 12.609375 -0.015625 C 12.285156 0.0546875 11.9375 0.09375 11.5625 0.09375 C 10.789062 0.09375 10.1875 -0.0507812 9.75 -0.34375 C 9.3125 -0.644531 9 -1.113281 8.8125 -1.75 L 8.578125 -1.765625 C 7.941406 -0.421875 6.757812 0.25 5.03125 0.25 Z M 6.0625 -2.171875 C 6.8125 -2.171875 7.410156 -2.421875 7.859375 -2.921875 C 8.304688 -3.429688 8.53125 -4.132812 8.53125 -5.03125 L 8.53125 -6.34375 L 8.3125 -6.390625 C 8.113281 -6.234375 7.859375 -6.101562 7.546875 -6 C 7.234375 -5.894531 6.78125 -5.789062 6.1875 -5.6875 C 5.476562 -5.570312 4.96875 -5.367188 4.65625 -5.078125 C 4.351562 -4.796875 4.203125 -4.394531 4.203125 -3.875 C 4.203125 -3.320312 4.363281 -2.898438 4.6875 -2.609375 C 5.019531 -2.316406 5.476562 -2.171875 6.0625 -2.171875 Z M 6.0625 -2.171875 "/></g></g></g><g clip-path="url(#793f2168ff)"><g transform="matrix(1, 0, 0, 1, 392, 483)"><g clip-path="url(#f586269094)"><g clip-path="url(#33b517f240)"><path fill="#d50b2e" d="M 0.0078125 0.46875 L 47.121094 0.46875 L 47.121094 155.980469 L 0.0078125 155.980469 Z M 0.0078125 0.46875 " fill-opacity="1" fill-rule="nonzero"/></g></g></g></g><g clip-path="url(#33b0d92a33)"><g transform="matrix(1, 0, 0, 1, 202, 461)"><g clip-path="url(#898a4999be)"><g clip-path="url(#3993dacf9a)"><path fill="#d50b2e" d="M 0.566406 0.488281 L 240.484375 0.488281 L 240.484375 198.613281 L 0.566406 198.613281 Z M 0.566406 0.488281 " fill-opacity="1" fill-rule="nonzero"/></g></g></g></g><g fill="#ffffff" fill-opacity="1"><g transform="translate(294.507535, 568.793972)"><g><path d="M 16.4375 0 L 12.875 0 L 11.578125 -3.953125 L 5.03125 -3.953125 L 3.734375 0 L 0.25 0 L 6.171875 -17.125 L 10.515625 -17.125 Z M 8.140625 -13.546875 L 5.9375 -6.796875 L 10.640625 -6.796875 L 8.4375 -13.546875 Z M 8.140625 -13.546875 "/></g></g><g transform="translate(311.19414, 568.793972)"><g><path d="M 5.921875 0.25 C 4.460938 0.25 3.382812 -0.144531 2.6875 -0.9375 C 2 -1.726562 1.65625 -2.867188 1.65625 -4.359375 L 1.65625 -12.921875 L 4.90625 -12.921875 L 4.90625 -4.765625 C 4.90625 -3.972656 5.070312 -3.394531 5.40625 -3.03125 C 5.75 -2.675781 6.273438 -2.5 6.984375 -2.5 C 7.890625 -2.5 8.59375 -2.789062 9.09375 -3.375 C 9.59375 -3.96875 9.84375 -4.894531 9.84375 -6.15625 L 9.84375 -12.921875 L 13.078125 -12.921875 L 13.078125 0 L 9.96875 0 L 9.96875 -1.890625 L 9.71875 -1.953125 C 9.300781 -1.210938 8.796875 -0.660156 8.203125 -0.296875 C 7.609375 0.0664062 6.847656 0.25 5.921875 0.25 Z M 5.921875 0.25 "/></g></g><g transform="translate(326.13597, 568.793972)"><g><path d="M 5.359375 0.25 C 4.203125 0.25 3.316406 -0.0625 2.703125 -0.6875 C 2.085938 -1.320312 1.78125 -2.28125 1.78125 -3.5625 L 1.78125 -18.109375 L 5.03125 -18.109375 L 5.03125 -3.6875 C 5.03125 -2.894531 5.351562 -2.5 6 -2.5 C 6.1875 -2.5 6.390625 -2.53125 6.609375 -2.59375 L 6.765625 -2.546875 L 7.0625 -0.0625 C 6.882812 0.03125 6.644531 0.101562 6.34375 0.15625 C 6.050781 0.21875 5.722656 0.25 5.359375 0.25 Z M 5.359375 0.25 "/></g></g><g transform="translate(333.560045, 568.793972)"><g><path d="M 5.03125 0.25 C 4.207031 0.25 3.488281 0.0976562 2.875 -0.203125 C 2.269531 -0.515625 1.800781 -0.960938 1.46875 -1.546875 C 1.144531 -2.140625 0.984375 -2.847656 0.984375 -3.671875 C 0.984375 -4.441406 1.144531 -5.082031 1.46875 -5.59375 C 1.800781 -6.113281 2.3125 -6.539062 3 -6.875 C 3.6875 -7.207031 4.582031 -7.460938 5.6875 -7.640625 C 6.457031 -7.765625 7.046875 -7.898438 7.453125 -8.046875 C 7.859375 -8.203125 8.128906 -8.375 8.265625 -8.5625 C 8.410156 -8.75 8.484375 -8.988281 8.484375 -9.28125 C 8.484375 -9.6875 8.335938 -10 8.046875 -10.21875 C 7.753906 -10.4375 7.273438 -10.546875 6.609375 -10.546875 C 5.890625 -10.546875 5.203125 -10.382812 4.546875 -10.0625 C 3.898438 -9.75 3.34375 -9.332031 2.875 -8.8125 L 2.640625 -8.8125 L 1.28125 -10.859375 C 1.9375 -11.585938 2.734375 -12.148438 3.671875 -12.546875 C 4.617188 -12.953125 5.648438 -13.15625 6.765625 -13.15625 C 8.472656 -13.15625 9.707031 -12.789062 10.46875 -12.0625 C 11.238281 -11.34375 11.625 -10.316406 11.625 -8.984375 L 11.625 -3.375 C 11.625 -2.789062 11.878906 -2.5 12.390625 -2.5 C 12.585938 -2.5 12.78125 -2.535156 12.96875 -2.609375 L 13.125 -2.5625 L 13.359375 -0.296875 C 13.179688 -0.179688 12.929688 -0.0859375 12.609375 -0.015625 C 12.285156 0.0546875 11.9375 0.09375 11.5625 0.09375 C 10.789062 0.09375 10.1875 -0.0507812 9.75 -0.34375 C 9.3125 -0.644531 9 -1.113281 8.8125 -1.75 L 8.578125 -1.765625 C 7.941406 -0.421875 6.757812 0.25 5.03125 0.25 Z M 6.0625 -2.171875 C 6.8125 -2.171875 7.410156 -2.421875 7.859375 -2.921875 C 8.304688 -3.429688 8.53125 -4.132812 8.53125 -5.03125 L 8.53125 -6.34375 L 8.3125 -6.390625 C 8.113281 -6.234375 7.859375 -6.101562 7.546875 -6 C 7.234375 -5.894531 6.78125 -5.789062 6.1875 -5.6875 C 5.476562 -5.570312 4.96875 -5.367188 4.65625 -5.078125 C 4.351562 -4.796875 4.203125 -4.394531 4.203125 -3.875 C 4.203125 -3.320312 4.363281 -2.898438 4.6875 -2.609375 C 5.019531 -2.316406 5.476562 -2.171875 6.0625 -2.171875 Z M 6.0625 -2.171875 "/></g></g></g><g clip-path="url(#7b409dd05c)"><g transform="matrix(1, 0, 0, 1, 386, 369)"><g clip-path="url(#23ab13aa85)"><g clip-path="url(#6d98e84fff)"><path fill="#d50b2e" d="M 0.566406 0.214844 L 56.367188 0.214844 L 56.367188 72.363281 L 0.566406 72.363281 Z M 0.566406 0.214844 " fill-opacity="1" fill-rule="nonzero"/></g></g></g></g><g clip-path="url(#4017992e4a)"><path fill="#ffffff" d="M 402.9375 393.855469 C 404.003906 393.855469 404.96875 393.40625 405.664062 392.675781 C 406.355469 391.957031 406.78125 390.964844 406.78125 389.871094 C 406.78125 388.777344 406.355469 387.789062 405.664062 387.066406 C 404.96875 386.339844 404.003906 385.890625 402.9375 385.890625 C 401.875 385.890625 400.910156 386.339844 400.214844 387.066406 C 399.523438 387.789062 399.09375 388.78125 399.09375 389.871094 C 399.09375 390.964844 399.523438 391.957031 400.214844 392.679688 C 400.910156 393.40625 401.875 393.855469 402.9375 393.855469 Z M 401.136719 387.957031 C 401.597656 387.476562 402.234375 387.179688 402.9375 387.179688 C 403.640625 387.179688 404.277344 387.476562 404.738281 387.957031 C 405.203125 388.445312 405.496094 389.121094 405.496094 389.871094 C 405.496094 390.621094 405.203125 391.300781 404.738281 391.785156 C 404.277344 392.265625 403.640625 392.566406 402.9375 392.566406 C 402.234375 392.566406 401.597656 392.269531 401.136719 391.785156 C 400.671875 391.300781 400.382812 390.621094 400.382812 389.871094 C 400.382812 389.121094 400.671875 388.445312 401.136719 387.957031 Z M 409.460938 395.714844 C 408.71875 394.980469 407.695312 394.523438 406.570312 394.523438 L 399.304688 394.523438 C 398.183594 394.523438 397.160156 394.980469 396.417969 395.714844 C 395.671875 396.449219 395.207031 397.464844 395.207031 398.582031 L 395.207031 407.769531 C 395.207031 408.449219 395.476562 409.070312 395.910156 409.519531 C 396.347656 409.980469 396.953125 410.261719 397.625 410.261719 C 398.03125 410.261719 398.414062 410.15625 398.75 409.972656 L 398.75 422.085938 C 398.75 422.765625 399.019531 423.386719 399.453125 423.835938 C 399.890625 424.292969 400.5 424.578125 401.167969 424.578125 C 401.835938 424.578125 402.445312 424.292969 402.882812 423.835938 C 402.902344 423.816406 402.921875 423.792969 402.941406 423.773438 C 402.960938 423.792969 402.976562 423.816406 403 423.835938 C 403.4375 424.292969 404.042969 424.578125 404.714844 424.578125 C 405.382812 424.578125 405.988281 424.292969 406.425781 423.835938 C 406.859375 423.382812 407.128906 422.765625 407.128906 422.085938 L 407.128906 409.972656 C 407.464844 410.15625 407.851562 410.261719 408.257812 410.261719 C 408.925781 410.261719 409.53125 409.980469 409.972656 409.523438 C 410.402344 409.070312 410.671875 408.449219 410.671875 407.773438 L 410.671875 398.582031 C 410.671875 397.464844 410.207031 396.449219 409.460938 395.714844 Z M 409.042969 408.632812 C 408.839844 408.84375 408.5625 408.976562 408.253906 408.976562 C 407.949219 408.976562 407.667969 408.84375 407.464844 408.632812 C 407.257812 408.414062 407.125 408.109375 407.125 407.773438 L 407.125 399.820312 C 407.125 399.464844 406.839844 399.175781 406.484375 399.175781 C 406.128906 399.175781 405.839844 399.464844 405.839844 399.820312 L 405.839844 422.085938 C 405.839844 422.425781 405.707031 422.730469 405.5 422.949219 C 405.296875 423.160156 405.015625 423.292969 404.710938 423.292969 C 404.40625 423.292969 404.125 423.160156 403.921875 422.949219 C 403.710938 422.730469 403.582031 422.425781 403.582031 422.085938 L 403.582031 409.726562 C 403.582031 409.371094 403.292969 409.082031 402.9375 409.082031 C 402.582031 409.082031 402.292969 409.371094 402.292969 409.726562 L 402.292969 422.085938 C 402.292969 422.425781 402.164062 422.730469 401.953125 422.949219 C 401.75 423.160156 401.472656 423.292969 401.164062 423.292969 C 400.859375 423.292969 400.582031 423.160156 400.378906 422.949219 C 400.167969 422.730469 400.039062 422.425781 400.039062 422.085938 L 400.039062 399.820312 C 400.039062 399.464844 399.75 399.175781 399.394531 399.175781 C 399.039062 399.175781 398.75 399.464844 398.75 399.820312 L 398.75 407.773438 C 398.75 408.109375 398.621094 408.414062 398.410156 408.632812 C 398.207031 408.84375 397.925781 408.976562 397.621094 408.976562 C 397.316406 408.976562 397.035156 408.84375 396.832031 408.632812 C 396.625 408.414062 396.492188 408.109375 396.492188 407.769531 L 396.492188 398.582031 C 396.492188 397.820312 396.808594 397.128906 397.316406 396.628906 C 397.824219 396.125 398.53125 395.8125 399.304688 395.8125 L 406.566406 395.8125 C 407.34375 395.8125 408.046875 396.125 408.558594 396.628906 C 409.066406 397.128906 409.378906 397.820312 409.378906 398.582031 L 409.378906 407.769531 C 409.382812 408.109375 409.25 408.414062 409.042969 408.632812 Z M 425.800781 393.855469 C 426.863281 393.855469 427.828125 393.40625 428.527344 392.675781 C 429.214844 391.957031 429.644531 390.964844 429.644531 389.871094 C 429.644531 388.777344 429.214844 387.789062 428.527344 387.066406 C 427.828125 386.339844 426.863281 385.890625 425.800781 385.890625 C 424.734375 385.890625 423.773438 386.339844 423.074219 387.066406 C 422.382812 387.789062 421.957031 388.78125 421.957031 389.871094 C 421.957031 390.964844 422.382812 391.957031 423.074219 392.679688 C 423.769531 393.40625 424.734375 393.855469 425.800781 393.855469 Z M 424 387.957031 C 424.460938 387.476562 425.097656 387.179688 425.800781 387.179688 C 426.5 387.179688 427.136719 387.476562 427.597656 387.957031 C 428.066406 388.445312 428.355469 389.121094 428.355469 389.871094 C 428.355469 390.621094 428.066406 391.300781 427.597656 391.785156 C 427.136719 392.265625 426.5 392.566406 425.800781 392.566406 C 425.097656 392.566406 424.460938 392.269531 424 391.785156 C 423.53125 391.300781 423.242188 390.621094 423.242188 389.871094 C 423.242188 389.121094 423.53125 388.445312 424 387.957031 Z M 435.164062 406.003906 C 434.359375 403.164062 433.605469 399.949219 432.65625 397.199219 C 432.40625 396.464844 431.960938 395.828125 431.394531 395.363281 C 430.757812 394.835938 429.960938 394.523438 429.101562 394.523438 L 422.5 394.523438 C 421.640625 394.523438 420.84375 394.835938 420.203125 395.363281 C 419.636719 395.828125 419.195312 396.464844 418.945312 397.195312 C 418.9375 397.21875 418.929688 397.242188 418.921875 397.265625 L 418.90625 397.3125 C 418.890625 397.371094 418.871094 397.429688 418.855469 397.492188 C 418.855469 397.492188 418.855469 397.496094 418.855469 397.496094 L 416.433594 406.003906 C 416.253906 406.636719 416.316406 407.296875 416.5625 407.847656 C 416.8125 408.417969 417.261719 408.882812 417.847656 409.105469 C 417.902344 409.128906 417.964844 409.148438 418.019531 409.164062 C 418.320312 409.25 418.621094 409.265625 418.910156 409.214844 L 418.109375 412.027344 C 418.011719 412.367188 418.210938 412.722656 418.550781 412.820312 C 418.609375 412.835938 418.671875 412.84375 418.726562 412.84375 L 421.613281 412.84375 L 421.613281 422.085938 C 421.613281 422.765625 421.882812 423.386719 422.316406 423.835938 C 422.753906 424.292969 423.363281 424.578125 424.03125 424.578125 C 424.699219 424.578125 425.304688 424.292969 425.746094 423.835938 C 425.765625 423.8125 425.785156 423.792969 425.800781 423.773438 C 425.820312 423.792969 425.839844 423.816406 425.859375 423.835938 C 426.300781 424.292969 426.90625 424.578125 427.574219 424.578125 C 428.242188 424.578125 428.851562 424.292969 429.289062 423.835938 C 429.722656 423.382812 429.992188 422.761719 429.992188 422.085938 L 429.992188 412.84375 L 432.875 412.84375 C 433.230469 412.84375 433.519531 412.554688 433.519531 412.199219 C 433.519531 412.128906 433.507812 412.058594 433.484375 411.992188 L 432.695312 409.210938 C 432.984375 409.257812 433.285156 409.246094 433.582031 409.164062 C 433.640625 409.144531 433.699219 409.125 433.753906 409.101562 C 434.339844 408.878906 434.789062 408.414062 435.042969 407.84375 C 435.28125 407.296875 435.34375 406.636719 435.164062 406.003906 Z M 424.816406 422.949219 C 424.613281 423.160156 424.335938 423.292969 424.027344 423.292969 C 423.722656 423.292969 423.445312 423.160156 423.242188 422.949219 C 423.03125 422.730469 422.902344 422.425781 422.902344 422.089844 L 422.902344 412.847656 L 425.15625 412.847656 L 425.15625 422.089844 C 425.15625 422.425781 425.027344 422.730469 424.816406 422.949219 Z M 428.699219 422.085938 C 428.699219 422.425781 428.570312 422.730469 428.359375 422.949219 C 428.15625 423.160156 427.878906 423.292969 427.570312 423.292969 C 427.265625 423.292969 426.984375 423.160156 426.78125 422.949219 C 426.574219 422.730469 426.445312 422.425781 426.445312 422.085938 L 426.445312 412.847656 L 428.699219 412.847656 Z M 433.863281 407.328125 C 433.742188 407.601562 433.542969 407.816406 433.292969 407.910156 L 433.226562 407.929688 C 433.019531 407.988281 432.804688 407.953125 432.617188 407.847656 C 432.410156 407.730469 432.238281 407.527344 432.136719 407.261719 C 432.128906 407.234375 432.121094 407.210938 432.113281 407.183594 L 429.953125 399.59375 C 429.878906 399.335938 429.660156 399.164062 429.414062 399.132812 C 429.328125 399.121094 429.242188 399.128906 429.160156 399.152344 C 428.816406 399.25 428.617188 399.605469 428.714844 399.945312 C 429.410156 402.378906 430.0625 405.105469 430.863281 407.492188 L 432.019531 411.558594 L 419.578125 411.558594 L 420.738281 407.492188 C 421.539062 405.109375 422.191406 402.378906 422.882812 399.945312 C 422.980469 399.605469 422.78125 399.246094 422.441406 399.152344 C 422.101562 399.054688 421.742188 399.253906 421.648438 399.59375 L 419.488281 407.183594 C 419.480469 407.210938 419.46875 407.234375 419.460938 407.257812 C 419.363281 407.527344 419.1875 407.730469 418.984375 407.847656 C 418.796875 407.953125 418.582031 407.988281 418.371094 407.925781 L 418.308594 407.90625 C 418.058594 407.8125 417.859375 407.597656 417.738281 407.328125 C 417.609375 407.039062 417.578125 406.6875 417.671875 406.355469 L 420.160156 397.617188 C 420.160156 397.617188 420.160156 397.613281 420.160156 397.613281 C 420.332031 397.109375 420.632812 396.671875 421.019531 396.351562 C 421.433594 396.011719 421.945312 395.808594 422.5 395.808594 L 429.101562 395.808594 C 429.65625 395.808594 430.171875 396.011719 430.582031 396.351562 C 430.96875 396.667969 431.269531 397.101562 431.441406 397.601562 L 433.929688 406.351562 C 434.023438 406.691406 433.988281 407.039062 433.863281 407.328125 Z M 414.941406 386.535156 L 414.941406 423.933594 C 414.941406 424.289062 414.652344 424.578125 414.296875 424.578125 C 413.941406 424.578125 413.65625 424.289062 413.65625 423.933594 L 413.65625 386.535156 C 413.65625 386.179688 413.941406 385.890625 414.296875 385.890625 C 414.652344 385.890625 414.941406 386.179688 414.941406 386.535156 Z M 414.941406 386.535156 " fill-opacity="1" fill-rule="nonzero"/></g></svg>