<svg xmlns="http://www.w3.org/2000/svg" xmlns:xlink="http://www.w3.org/1999/xlink" width="861" zoomAndPan="magnify" viewBox="0 0 645.75 661.499985" height="882" preserveAspectRatio="xMidYMid meet" version="1.0"><defs><g/><clipPath id="3f4b51df54"><path d="M 0.117188 0 L 645.382812 0 L 645.382812 661 L 0.117188 661 Z M 0.117188 0 " clip-rule="nonzero"/></clipPath><clipPath id="c960cdb31b"><path d="M 202.566406 224.761719 L 442.367188 224.761719 L 442.367188 660.277344 L 202.566406 660.277344 Z M 202.566406 224.761719 " clip-rule="nonzero"/></clipPath><clipPath id="08b03c8616"><path d="M 0.566406 0.761719 L 240.367188 0.761719 L 240.367188 436.277344 L 0.566406 436.277344 Z M 0.566406 0.761719 " clip-rule="nonzero"/></clipPath><clipPath id="59760aad3b"><rect x="0" width="241" y="0" height="437"/></clipPath><clipPath id="f5d8a3da9d"><path d="M 202.566406 224.761719 L 442.363281 224.761719 L 442.363281 660.179688 L 202.566406 660.179688 Z M 202.566406 224.761719 " clip-rule="nonzero"/></clipPath><clipPath id="7bb6cdc898"><path d="M 0.117188 0.0390625 L 644.808594 0.0390625 L 644.808594 228.316406 L 0.117188 228.316406 Z M 0.117188 0.0390625 " clip-rule="nonzero"/></clipPath><clipPath id="cda20cffa4"><path d="M 0.117188 0.0390625 L 644.808594 0.0390625 L 644.808594 228.316406 L 0.117188 228.316406 Z M 0.117188 0.0390625 " clip-rule="nonzero"/></clipPath><clipPath id="6705f26405"><rect x="0" width="645" y="0" height="229"/></clipPath><clipPath id="dad6948667"><path d="M 0.296875 0.0390625 L 644.808594 0.0390625 L 644.808594 228.3125 L 0.296875 228.3125 Z M 0.296875 0.0390625 " clip-rule="nonzero"/></clipPath><clipPath id="06a00ea09f"><path d="M 202.566406 226.25 L 442.367188 226.25 L 442.367188 462.152344 L 202.566406 462.152344 Z M 202.566406 226.25 " clip-rule="nonzero"/></clipPath><clipPath id="f81924ccfe"><path d="M 0.566406 0.25 L 240.367188 0.25 L 240.367188 236.152344 L 0.566406 236.152344 Z M 0.566406 0.25 " clip-rule="nonzero"/></clipPath><clipPath id="e12059a48d"><rect x="0" width="241" y="0" height="237"/></clipPath><clipPath id="8110c8c4af"><path d="M 202.566406 226.25 L 442.359375 226.25 L 442.359375 462.144531 L 202.566406 462.144531 Z M 202.566406 226.25 " clip-rule="nonzero"/></clipPath><clipPath id="1f393d01fc"><path d="M 30.3125 0.0351562 L 209.542969 0.0351562 L 209.542969 47.148438 L 30.3125 47.148438 Z M 30.3125 0.0351562 " clip-rule="nonzero"/></clipPath><clipPath id="653d541129"><path d="M 0.3125 0.0351562 L 179.542969 0.0351562 L 179.542969 47.148438 L 0.3125 47.148438 Z M 0.3125 0.0351562 " clip-rule="nonzero"/></clipPath><clipPath id="faafb7e100"><rect x="0" width="180" y="0" height="48"/></clipPath><clipPath id="f4f5f92f3f"><path d="M 435.398438 0 L 614.625 0 L 614.625 47.109375 L 435.398438 47.109375 Z M 435.398438 0 " clip-rule="nonzero"/></clipPath><clipPath id="d81849f9b9"><path d="M 0.398438 0 L 179.625 0 L 179.625 47.109375 L 0.398438 47.109375 Z M 0.398438 0 " clip-rule="nonzero"/></clipPath><clipPath id="020f15464f"><rect x="0" width="180" y="0" height="48"/></clipPath><clipPath id="964f898a45"><path d="M 230.523438 0 L 414.410156 0 L 414.410156 47.109375 L 230.523438 47.109375 Z M 230.523438 0 " clip-rule="nonzero"/></clipPath><clipPath id="60aa60e655"><path d="M 0.523438 0 L 184.410156 0 L 184.410156 47.109375 L 0.523438 47.109375 Z M 0.523438 0 " clip-rule="nonzero"/></clipPath><clipPath id="248987d44c"><rect x="0" width="185" y="0" height="48"/></clipPath><clipPath id="5a514150d1"><path d="M 535.394531 177.066406 L 614.847656 177.066406 L 614.847656 226.246094 L 535.394531 226.246094 Z M 535.394531 177.066406 " clip-rule="nonzero"/></clipPath><clipPath id="3bea59134c"><path d="M 0.394531 0.0664062 L 79.847656 0.0664062 L 79.847656 49.246094 L 0.394531 49.246094 Z M 0.394531 0.0664062 " clip-rule="nonzero"/></clipPath><clipPath id="3dad16debd"><rect x="0" width="80" y="0" height="50"/></clipPath><clipPath id="f8ff73b120"><path d="M 452.859375 177.058594 L 524.90625 177.058594 L 524.90625 226.238281 L 452.859375 226.238281 Z M 452.859375 177.058594 " clip-rule="nonzero"/></clipPath><clipPath id="ba36ea15ef"><path d="M 0.859375 0.0585938 L 72.90625 0.0585938 L 72.90625 49.238281 L 0.859375 49.238281 Z M 0.859375 0.0585938 " clip-rule="nonzero"/></clipPath><clipPath id="e233f57e20"><rect x="0" width="73" y="0" height="50"/></clipPath><clipPath id="c3066fb413"><path d="M 300.117188 221.832031 L 344.9375 221.832031 L 344.9375 230.660156 L 300.117188 230.660156 Z M 300.117188 221.832031 " clip-rule="nonzero"/></clipPath><clipPath id="021869988c"><path d="M 0.117188 0.832031 L 44.9375 0.832031 L 44.9375 9.660156 L 0.117188 9.660156 Z M 0.117188 0.832031 " clip-rule="nonzero"/></clipPath><clipPath id="ea5dae44b5"><rect x="0" width="45" y="0" height="10"/></clipPath><clipPath id="9cdb66639c"><path d="M 288.953125 226.25 L 356.402344 226.25 L 356.402344 275.710938 L 288.953125 275.710938 Z M 288.953125 226.25 " clip-rule="nonzero"/></clipPath><clipPath id="716582ad35"><path d="M 9 0.25 L 60 0.25 L 60 49.421875 L 9 49.421875 Z M 9 0.25 " clip-rule="nonzero"/></clipPath><clipPath id="dc5f501b7f"><path d="M 0.953125 0.25 L 12 0.25 L 12 3 L 0.953125 3 Z M 0.953125 0.25 " clip-rule="nonzero"/></clipPath><clipPath id="d97776f9e5"><path d="M 58 0.25 L 68.25 0.25 L 68.25 3 L 58 3 Z M 58 0.25 " clip-rule="nonzero"/></clipPath><clipPath id="1ba266d2e1"><rect x="0" width="69" y="0" height="50"/></clipPath><clipPath id="426e2acc80"><path d="M 30.308594 179.132812 L 192.074219 179.132812 L 192.074219 226.246094 L 30.308594 226.246094 Z M 30.308594 179.132812 " clip-rule="nonzero"/></clipPath><clipPath id="7f919aad3d"><path d="M 0.308594 0.132812 L 162.074219 0.132812 L 162.074219 47.246094 L 0.308594 47.246094 Z M 0.308594 0.132812 " clip-rule="nonzero"/></clipPath><clipPath id="2713779d20"><rect x="0" width="163" y="0" height="48"/></clipPath><clipPath id="5f34deed8a"><path d="M 468.765625 183.34375 L 509 183.34375 L 509 222.316406 L 468.765625 222.316406 Z M 468.765625 183.34375 " clip-rule="nonzero"/></clipPath><clipPath id="23fa48ad60"><path d="M 400.566406 228.515625 L 442.535156 228.515625 L 442.535156 318.445312 L 400.566406 318.445312 Z M 400.566406 228.515625 " clip-rule="nonzero"/></clipPath><clipPath id="ee841b4d78"><path d="M 0.566406 0.515625 L 42.535156 0.515625 L 42.535156 90.246094 L 0.566406 90.246094 Z M 0.566406 0.515625 " clip-rule="nonzero"/></clipPath><clipPath id="f8c64d4832"><rect x="0" width="43" y="0" height="91"/></clipPath><clipPath id="b843990506"><path d="M 202.621094 349.457031 L 258.421875 349.457031 L 258.421875 428.90625 L 202.621094 428.90625 Z M 202.621094 349.457031 " clip-rule="nonzero"/></clipPath><clipPath id="d8c215c95c"><path d="M 0.621094 0.457031 L 56.421875 0.457031 L 56.421875 79.90625 L 0.621094 79.90625 Z M 0.621094 0.457031 " clip-rule="nonzero"/></clipPath><clipPath id="722c6f8b18"><rect x="0" width="57" y="0" height="80"/></clipPath><clipPath id="ad227128c9"><path d="M 209.539062 360.742188 L 254.503906 360.742188 L 254.503906 413 L 209.539062 413 Z M 209.539062 360.742188 " clip-rule="nonzero"/></clipPath><clipPath id="57add611fe"><path d="M 297 412.972656 L 348 412.972656 L 348 462.433594 L 297 462.433594 Z M 297 412.972656 " clip-rule="nonzero"/></clipPath><clipPath id="6cec5d819b"><path d="M 288.953125 459 L 300 459 L 300 462.433594 L 288.953125 462.433594 Z M 288.953125 459 " clip-rule="nonzero"/></clipPath><clipPath id="c9c0467d37"><path d="M 346 459 L 356.402344 459 L 356.402344 462.433594 L 346 462.433594 Z M 346 459 " clip-rule="nonzero"/></clipPath><clipPath id="343f2361ca"><path d="M 300.117188 457.734375 L 344.9375 457.734375 L 344.9375 466.5625 L 300.117188 466.5625 Z M 300.117188 457.734375 " clip-rule="nonzero"/></clipPath><clipPath id="0b7ec23906"><path d="M 0.117188 0.734375 L 44.9375 0.734375 L 44.9375 9.5625 L 0.117188 9.5625 Z M 0.117188 0.734375 " clip-rule="nonzero"/></clipPath><clipPath id="e4f29a4f6a"><rect x="0" width="45" y="0" height="10"/></clipPath><clipPath id="19e3bb6af7"><path d="M 202.566406 482.804688 L 249.679688 482.804688 L 249.679688 638.296875 L 202.566406 638.296875 Z M 202.566406 482.804688 " clip-rule="nonzero"/></clipPath><clipPath id="754dea4058"><path d="M 0.566406 0.804688 L 47.679688 0.804688 L 47.679688 156.296875 L 0.566406 156.296875 Z M 0.566406 0.804688 " clip-rule="nonzero"/></clipPath><clipPath id="8eb6634ad0"><rect x="0" width="48" y="0" height="157"/></clipPath><clipPath id="3f8d1b671a"><path d="M 395.253906 482.804688 L 442.367188 482.804688 L 442.367188 638.296875 L 395.253906 638.296875 Z M 395.253906 482.804688 " clip-rule="nonzero"/></clipPath><clipPath id="30e157e403"><path d="M 0.253906 0.804688 L 47.367188 0.804688 L 47.367188 156.296875 L 0.253906 156.296875 Z M 0.253906 0.804688 " clip-rule="nonzero"/></clipPath><clipPath id="0802e4647d"><rect x="0" width="48" y="0" height="157"/></clipPath><clipPath id="fcbb942d2e"><path d="M 202.566406 462.152344 L 442.367188 462.152344 L 442.367188 660.277344 L 202.566406 660.277344 Z M 202.566406 462.152344 " clip-rule="nonzero"/></clipPath><clipPath id="46ab7045ba"><path d="M 0.566406 0.152344 L 240.367188 0.152344 L 240.367188 198.277344 L 0.566406 198.277344 Z M 0.566406 0.152344 " clip-rule="nonzero"/></clipPath><clipPath id="259c3c26d1"><rect x="0" width="241" y="0" height="199"/></clipPath></defs><g clip-path="url(#3f4b51df54)"><path fill="#ffffff" d="M 0.117188 0 L 645.382812 0 L 645.382812 661 L 0.117188 661 Z M 0.117188 0 " fill-opacity="1" fill-rule="nonzero"/></g><g clip-path="url(#c960cdb31b)"><g transform="matrix(1, 0, 0, 1, 202, 224)"><g clip-path="url(#59760aad3b)"><g clip-path="url(#08b03c8616)"><path fill="#ffffff" d="M 0.566406 0.761719 L 240.367188 0.761719 L 240.367188 436.332031 L 0.566406 436.332031 Z M 0.566406 0.761719 " fill-opacity="1" fill-rule="nonzero"/></g></g></g></g><g clip-path="url(#f5d8a3da9d)"><path stroke-linecap="butt" transform="matrix(0.749433, 0, 0, 0.749433, 202.566829, 224.762758)" fill="none" stroke-linejoin="miter" d="M -0.000563446 -0.00138635 L 319.970314 -0.00138635 L 319.970314 581.119893 L -0.000563446 581.119893 Z M -0.000563446 -0.00138635 " stroke="#d50b2e" stroke-width="8" stroke-opacity="1" stroke-miterlimit="4"/></g><g clip-path="url(#7bb6cdc898)"><g transform="matrix(1, 0, 0, 1, 0.000000000000000014, 0)"><g clip-path="url(#6705f26405)"><g clip-path="url(#cda20cffa4)"><path fill="#ffffff" d="M 644.808594 0.0390625 L 644.808594 228.316406 L 0.109375 228.316406 L 0.109375 0.0390625 Z M 644.808594 0.0390625 " fill-opacity="1" fill-rule="nonzero"/></g></g></g></g><g clip-path="url(#dad6948667)"><path stroke-linecap="butt" transform="matrix(0, 0.749433, -0.749433, 0, 644.809469, 0.039681)" fill="none" stroke-linejoin="miter" d="M -0.000825294 0.00116821 L 304.593834 0.00116821 L 304.593834 860.234279 L -0.000825294 860.234279 Z M -0.000825294 0.00116821 " stroke="#d50b2e" stroke-width="8" stroke-opacity="1" stroke-miterlimit="4"/></g><g clip-path="url(#06a00ea09f)"><g transform="matrix(1, 0, 0, 1, 202, 226)"><g clip-path="url(#e12059a48d)"><g clip-path="url(#f81924ccfe)"><path fill="#ffffff" d="M 0.566406 0.25 L 240.15625 0.25 L 240.15625 236.152344 L 0.566406 236.152344 Z M 0.566406 0.25 " fill-opacity="1" fill-rule="nonzero"/></g></g></g></g><g clip-path="url(#8110c8c4af)"><path stroke-linecap="butt" transform="matrix(0.749433, 0, 0, 0.749433, 202.568116, 226.250193)" fill="none" stroke-linejoin="miter" d="M -0.00228185 -0.000256913 L 319.963363 -0.000256913 L 319.963363 314.763542 L -0.00228185 314.763542 Z M -0.00228185 -0.000256913 " stroke="#d50b2e" stroke-width="8" stroke-opacity="1" stroke-miterlimit="4"/></g><g clip-path="url(#1f393d01fc)"><g transform="matrix(1, 0, 0, 1, 30, 0)"><g clip-path="url(#faafb7e100)"><g clip-path="url(#653d541129)"><path fill="#d50b2e" d="M 0.3125 47.148438 L 0.3125 0.0351562 L 179.5625 0.0351562 L 179.5625 47.148438 Z M 0.3125 47.148438 " fill-opacity="1" fill-rule="nonzero"/></g></g></g></g><g clip-path="url(#f4f5f92f3f)"><g transform="matrix(1, 0, 0, 1, 435, 0)"><g clip-path="url(#020f15464f)"><g clip-path="url(#d81849f9b9)"><path fill="#d50b2e" d="M 0.398438 47.109375 L 0.398438 -0.00390625 L 179.652344 -0.00390625 L 179.652344 47.109375 Z M 0.398438 47.109375 " fill-opacity="1" fill-rule="nonzero"/></g></g></g></g><g clip-path="url(#964f898a45)"><g transform="matrix(1, 0, 0, 1, 230, 0)"><g clip-path="url(#248987d44c)"><g clip-path="url(#60aa60e655)"><path fill="#d50b2e" d="M 0.523438 47.109375 L 0.523438 -0.00390625 L 184.375 -0.00390625 L 184.375 47.109375 Z M 0.523438 47.109375 " fill-opacity="1" fill-rule="nonzero"/></g></g></g></g><g clip-path="url(#5a514150d1)"><g transform="matrix(1, 0, 0, 1, 535, 177)"><g clip-path="url(#3dad16debd)"><g clip-path="url(#3bea59134c)"><path fill="#d50b2e" d="M 0.394531 49.246094 L 0.394531 0.0664062 L 79.929688 0.0664062 L 79.929688 49.246094 Z M 0.394531 49.246094 " fill-opacity="1" fill-rule="nonzero"/></g></g></g></g><g clip-path="url(#f8ff73b120)"><g transform="matrix(1, 0, 0, 1, 452, 177)"><g clip-path="url(#e233f57e20)"><g clip-path="url(#ba36ea15ef)"><path fill="#d50b2e" d="M 0.859375 49.238281 L 0.859375 0.0585938 L 72.898438 0.0585938 L 72.898438 49.238281 Z M 0.859375 49.238281 " fill-opacity="1" fill-rule="nonzero"/></g></g></g></g><g clip-path="url(#c3066fb413)"><g transform="matrix(1, 0, 0, 1, 300, 221)"><g clip-path="url(#ea5dae44b5)"><g clip-path="url(#021869988c)"><path fill="#ffffff" d="M 0.117188 9.660156 L 0.117188 0.832031 L 44.925781 0.832031 L 44.925781 9.660156 Z M 0.117188 9.660156 " fill-opacity="1" fill-rule="nonzero"/></g></g></g></g><g clip-path="url(#9cdb66639c)"><g transform="matrix(1, 0, 0, 1, 288, 226)"><g clip-path="url(#1ba266d2e1)"><g clip-path="url(#716582ad35)"><path fill="#d50b2e" d="M 55.324219 20.050781 C 52.902344 25.777344 49.4375 30.917969 45.023438 35.332031 C 40.609375 39.746094 35.46875 43.210938 29.742188 45.632812 C 23.816406 48.140625 17.523438 49.410156 11.03125 49.410156 L 9.9375 49.410156 L 9.9375 0.246094 L 12.128906 0.246094 L 12.128906 47.207031 C 36.558594 46.632812 56.324219 26.867188 56.898438 2.4375 L 56.898438 0.246094 L 59.101562 0.246094 L 59.101562 1.34375 C 59.101562 7.832031 57.832031 14.125 55.324219 20.050781 " fill-opacity="1" fill-rule="nonzero"/></g><g clip-path="url(#dc5f501b7f)"><path fill="#d50b2e" d="M 11.035156 0.25 L 0.953125 0.25 L 0.953125 2.4375 L 11.035156 2.4375 L 11.035156 0.25 " fill-opacity="1" fill-rule="nonzero"/></g><g clip-path="url(#d97776f9e5)"><path fill="#d50b2e" d="M 68.085938 0.25 L 58.007812 0.25 L 58.007812 2.4375 L 68.085938 2.4375 L 68.085938 0.25 " fill-opacity="1" fill-rule="nonzero"/></g></g></g></g><g clip-path="url(#426e2acc80)"><g transform="matrix(1, 0, 0, 1, 30, 179)"><g clip-path="url(#2713779d20)"><g clip-path="url(#7f919aad3d)"><path fill="#d50b2e" d="M 0.308594 47.246094 L 0.308594 0.132812 L 162.078125 0.132812 L 162.078125 47.246094 Z M 0.308594 47.246094 " fill-opacity="1" fill-rule="nonzero"/></g></g></g></g><g clip-path="url(#5f34deed8a)"><path fill="#ffffff" d="M 476.539062 191.308594 C 477.605469 191.308594 478.566406 190.859375 479.265625 190.132812 C 479.957031 189.410156 480.382812 188.417969 480.382812 187.324219 C 480.382812 186.234375 479.957031 185.242188 479.265625 184.519531 C 478.566406 183.792969 477.605469 183.34375 476.539062 183.34375 C 475.472656 183.34375 474.511719 183.792969 473.8125 184.523438 C 473.121094 185.242188 472.695312 186.234375 472.695312 187.328125 C 472.695312 188.417969 473.121094 189.410156 473.8125 190.132812 C 474.511719 190.859375 475.472656 191.308594 476.539062 191.308594 Z M 474.738281 185.410156 C 475.199219 184.929688 475.835938 184.632812 476.539062 184.632812 C 477.238281 184.632812 477.878906 184.929688 478.335938 185.410156 C 478.804688 185.898438 479.09375 186.574219 479.09375 187.324219 C 479.09375 188.078125 478.804688 188.753906 478.335938 189.242188 C 477.878906 189.722656 477.238281 190.019531 476.539062 190.019531 C 475.835938 190.019531 475.199219 189.722656 474.738281 189.242188 C 474.273438 188.753906 473.980469 188.078125 473.980469 187.324219 C 473.980469 186.574219 474.273438 185.898438 474.738281 185.410156 Z M 483.0625 193.167969 C 482.320312 192.433594 481.296875 191.980469 480.171875 191.980469 L 472.90625 191.980469 C 471.78125 191.980469 470.757812 192.433594 470.015625 193.167969 C 469.269531 193.902344 468.808594 194.917969 468.808594 196.035156 L 468.808594 205.226562 C 468.808594 205.90625 469.074219 206.523438 469.507812 206.976562 C 469.949219 207.433594 470.554688 207.714844 471.222656 207.714844 C 471.628906 207.714844 472.015625 207.609375 472.351562 207.425781 L 472.351562 219.539062 C 472.351562 220.21875 472.621094 220.839844 473.054688 221.289062 C 473.492188 221.75 474.097656 222.03125 474.769531 222.03125 C 475.4375 222.03125 476.042969 221.746094 476.480469 221.289062 C 476.503906 221.269531 476.519531 221.25 476.539062 221.226562 C 476.558594 221.25 476.578125 221.269531 476.597656 221.289062 C 477.035156 221.75 477.644531 222.03125 478.3125 222.03125 C 478.980469 222.03125 479.585938 221.746094 480.027344 221.289062 C 480.460938 220.839844 480.730469 220.21875 480.730469 219.539062 L 480.730469 207.425781 C 481.066406 207.613281 481.449219 207.71875 481.855469 207.71875 C 482.523438 207.71875 483.132812 207.433594 483.570312 206.976562 C 484.003906 206.523438 484.273438 205.90625 484.273438 205.226562 L 484.273438 196.035156 C 484.269531 194.917969 483.808594 193.902344 483.0625 193.167969 Z M 482.644531 206.085938 C 482.441406 206.296875 482.160156 206.429688 481.855469 206.429688 C 481.546875 206.429688 481.269531 206.296875 481.066406 206.085938 C 480.855469 205.867188 480.726562 205.5625 480.726562 205.226562 L 480.726562 197.277344 C 480.726562 196.917969 480.4375 196.632812 480.082031 196.632812 C 479.726562 196.632812 479.4375 196.917969 479.4375 197.277344 L 479.4375 219.542969 C 479.4375 219.878906 479.308594 220.183594 479.097656 220.402344 C 478.894531 220.613281 478.617188 220.746094 478.308594 220.746094 C 478.003906 220.746094 477.726562 220.613281 477.523438 220.402344 C 477.3125 220.183594 477.183594 219.878906 477.183594 219.542969 L 477.183594 207.179688 C 477.183594 206.824219 476.894531 206.535156 476.539062 206.535156 C 476.183594 206.535156 475.894531 206.824219 475.894531 207.179688 L 475.894531 219.542969 C 475.894531 219.878906 475.765625 220.183594 475.554688 220.402344 C 475.351562 220.613281 475.070312 220.746094 474.765625 220.746094 C 474.460938 220.746094 474.179688 220.613281 473.976562 220.402344 C 473.769531 220.183594 473.636719 219.878906 473.636719 219.542969 L 473.636719 197.277344 C 473.636719 196.917969 473.347656 196.632812 472.992188 196.632812 C 472.636719 196.632812 472.351562 196.917969 472.351562 197.277344 L 472.351562 205.226562 C 472.351562 205.5625 472.21875 205.867188 472.011719 206.085938 C 471.808594 206.296875 471.527344 206.429688 471.222656 206.429688 C 470.914062 206.429688 470.636719 206.296875 470.433594 206.085938 C 470.222656 205.867188 470.09375 205.5625 470.09375 205.226562 L 470.09375 196.035156 C 470.09375 195.273438 470.40625 194.582031 470.914062 194.082031 C 471.425781 193.578125 472.128906 193.265625 472.90625 193.265625 L 480.167969 193.265625 C 480.945312 193.265625 481.648438 193.578125 482.15625 194.082031 C 482.664062 194.582031 482.980469 195.273438 482.980469 196.035156 L 482.980469 200.179688 C 482.980469 200.179688 482.980469 200.183594 482.980469 200.183594 L 482.980469 205.226562 C 482.980469 205.5625 482.851562 205.867188 482.644531 206.085938 Z M 499.398438 191.308594 C 500.464844 191.308594 501.429688 190.859375 502.125 190.132812 C 502.816406 189.410156 503.246094 188.417969 503.246094 187.324219 C 503.246094 186.234375 502.816406 185.242188 502.125 184.519531 C 501.429688 183.792969 500.464844 183.34375 499.398438 183.34375 C 498.335938 183.34375 497.371094 183.792969 496.675781 184.523438 C 495.984375 185.242188 495.554688 186.234375 495.554688 187.328125 C 495.554688 188.417969 495.984375 189.410156 496.675781 190.132812 C 497.371094 190.859375 498.335938 191.308594 499.398438 191.308594 Z M 497.597656 185.410156 C 498.0625 184.929688 498.695312 184.632812 499.398438 184.632812 C 500.101562 184.632812 500.738281 184.929688 501.199219 185.410156 C 501.664062 185.898438 501.957031 186.574219 501.957031 187.324219 C 501.957031 188.078125 501.664062 188.753906 501.199219 189.242188 C 500.738281 189.722656 500.101562 190.019531 499.398438 190.019531 C 498.695312 190.019531 498.058594 189.722656 497.597656 189.242188 C 497.132812 188.753906 496.84375 188.078125 496.84375 187.324219 C 496.84375 186.574219 497.132812 185.898438 497.597656 185.410156 Z M 508.765625 203.457031 C 507.957031 200.617188 507.207031 197.40625 506.253906 194.652344 C 506.003906 193.921875 505.5625 193.285156 504.996094 192.816406 C 504.355469 192.292969 503.5625 191.976562 502.699219 191.976562 L 496.097656 191.976562 C 495.238281 191.976562 494.445312 192.292969 493.804688 192.816406 C 493.238281 193.285156 492.796875 193.917969 492.546875 194.652344 C 492.535156 194.675781 492.527344 194.699219 492.519531 194.722656 L 492.507812 194.765625 C 492.488281 194.828125 492.472656 194.886719 492.457031 194.945312 C 492.457031 194.949219 492.457031 194.949219 492.457031 194.953125 L 490.035156 203.457031 C 489.855469 204.089844 489.917969 204.75 490.160156 205.300781 C 490.414062 205.871094 490.863281 206.335938 491.445312 206.558594 C 491.503906 206.582031 491.5625 206.601562 491.621094 206.621094 C 491.917969 206.703125 492.21875 206.71875 492.507812 206.671875 L 491.710938 209.480469 C 491.613281 209.820312 491.8125 210.179688 492.152344 210.273438 C 492.210938 210.292969 492.269531 210.300781 492.328125 210.300781 L 495.214844 210.300781 L 495.214844 219.539062 C 495.214844 220.21875 495.480469 220.839844 495.914062 221.289062 C 496.355469 221.75 496.960938 222.03125 497.628906 222.03125 C 498.296875 222.03125 498.90625 221.746094 499.34375 221.289062 C 499.363281 221.269531 499.382812 221.246094 499.402344 221.226562 C 499.421875 221.246094 499.441406 221.269531 499.460938 221.289062 C 499.898438 221.746094 500.507812 222.03125 501.175781 222.03125 C 501.84375 222.03125 502.449219 221.746094 502.886719 221.289062 C 503.320312 220.835938 503.589844 220.21875 503.589844 219.539062 L 503.589844 210.296875 L 506.476562 210.296875 C 506.832031 210.296875 507.121094 210.011719 507.121094 209.65625 C 507.121094 209.582031 507.109375 209.511719 507.085938 209.445312 L 506.292969 206.667969 C 506.585938 206.714844 506.882812 206.703125 507.183594 206.617188 C 507.238281 206.597656 507.296875 206.578125 507.351562 206.558594 C 507.9375 206.335938 508.390625 205.871094 508.640625 205.296875 C 508.882812 204.75 508.945312 204.089844 508.765625 203.457031 Z M 498.417969 220.402344 C 498.214844 220.613281 497.933594 220.746094 497.628906 220.746094 C 497.324219 220.746094 497.042969 220.613281 496.839844 220.402344 C 496.632812 220.183594 496.5 219.878906 496.5 219.542969 L 496.5 210.300781 L 498.757812 210.300781 L 498.757812 219.542969 C 498.757812 219.878906 498.625 220.183594 498.417969 220.402344 Z M 502.300781 219.542969 C 502.300781 219.878906 502.167969 220.183594 501.960938 220.402344 C 501.757812 220.613281 501.476562 220.746094 501.171875 220.746094 C 500.867188 220.746094 500.585938 220.613281 500.382812 220.402344 C 500.171875 220.183594 500.042969 219.878906 500.042969 219.542969 L 500.042969 210.300781 L 502.300781 210.300781 Z M 507.460938 204.785156 C 507.34375 205.054688 507.140625 205.269531 506.890625 205.363281 L 506.828125 205.382812 C 506.617188 205.441406 506.402344 205.40625 506.214844 205.304688 C 506.011719 205.1875 505.835938 204.980469 505.738281 204.714844 C 505.730469 204.691406 505.722656 204.664062 505.714844 204.640625 L 503.550781 197.046875 C 503.480469 196.792969 503.261719 196.617188 503.011719 196.585938 C 502.929688 196.574219 502.84375 196.582031 502.757812 196.605469 C 502.417969 196.703125 502.21875 197.058594 502.316406 197.398438 C 503.007812 199.832031 503.660156 202.5625 504.464844 204.945312 L 505.621094 209.011719 L 493.179688 209.011719 L 494.335938 204.945312 C 495.140625 202.5625 495.792969 199.835938 496.484375 197.398438 C 496.582031 197.058594 496.382812 196.703125 496.042969 196.605469 C 495.699219 196.507812 495.34375 196.707031 495.246094 197.046875 L 493.085938 204.640625 C 493.078125 204.664062 493.070312 204.6875 493.0625 204.714844 C 492.964844 204.980469 492.789062 205.183594 492.582031 205.300781 C 492.398438 205.40625 492.179688 205.441406 491.972656 205.382812 L 491.90625 205.363281 C 491.65625 205.269531 491.457031 205.054688 491.339844 204.78125 C 491.210938 204.492188 491.175781 204.144531 491.273438 203.808594 L 493.757812 195.070312 C 493.757812 195.070312 493.761719 195.070312 493.761719 195.066406 C 493.933594 194.5625 494.234375 194.125 494.621094 193.804688 C 495.03125 193.464844 495.546875 193.265625 496.101562 193.265625 L 502.703125 193.265625 C 503.257812 193.265625 503.769531 193.464844 504.183594 193.804688 C 504.566406 194.121094 504.867188 194.554688 505.039062 195.054688 L 507.53125 203.808594 C 507.621094 204.144531 507.589844 204.492188 507.460938 204.785156 Z M 488.542969 183.988281 L 488.542969 221.390625 C 488.542969 221.746094 488.253906 222.035156 487.898438 222.035156 C 487.542969 222.035156 487.253906 221.746094 487.253906 221.390625 L 487.253906 183.988281 C 487.253906 183.632812 487.542969 183.34375 487.898438 183.34375 C 488.253906 183.34375 488.542969 183.632812 488.542969 183.988281 Z M 488.542969 183.988281 " fill-opacity="1" fill-rule="nonzero"/></g><g clip-path="url(#23fa48ad60)"><g transform="matrix(1, 0, 0, 1, 400, 228)"><g clip-path="url(#f8c64d4832)"><g clip-path="url(#ee841b4d78)"><path fill="#d50b2e" d="M 26.285156 88.78125 L 26.285156 84.1875 L 15.03125 84.1875 C 14.820312 84.1875 14.613281 84.148438 14.417969 84.066406 C 14.222656 83.984375 14.046875 83.867188 13.894531 83.71875 C 13.746094 83.566406 13.628906 83.394531 13.546875 83.195312 C 13.464844 83 13.425781 82.792969 13.425781 82.582031 L 13.425781 77.835938 L 2.175781 77.835938 C 1.960938 77.835938 1.753906 77.792969 1.558594 77.710938 C 1.363281 77.628906 1.1875 77.515625 1.039062 77.363281 C 0.886719 77.214844 0.769531 77.039062 0.6875 76.84375 C 0.605469 76.644531 0.566406 76.441406 0.566406 76.226562 L 0.566406 14.535156 C 0.566406 14.320312 0.605469 14.117188 0.6875 13.917969 C 0.769531 13.722656 0.886719 13.550781 1.039062 13.398438 C 1.1875 13.246094 1.363281 13.132812 1.558594 13.050781 C 1.753906 12.96875 1.960938 12.925781 2.175781 12.925781 L 13.425781 12.925781 L 13.425781 8.179688 C 13.425781 7.96875 13.464844 7.761719 13.546875 7.566406 C 13.628906 7.367188 13.746094 7.195312 13.894531 7.042969 C 14.046875 6.894531 14.222656 6.777344 14.417969 6.695312 C 14.613281 6.613281 14.820312 6.574219 15.03125 6.574219 L 26.285156 6.574219 L 26.285156 1.980469 C 26.285156 1.769531 26.324219 1.5625 26.40625 1.367188 C 26.488281 1.167969 26.605469 0.996094 26.753906 0.84375 C 26.90625 0.695312 27.082031 0.578125 27.277344 0.496094 C 27.472656 0.414062 27.679688 0.375 27.890625 0.375 L 40.75 0.375 C 40.964844 0.375 41.171875 0.414062 41.367188 0.496094 C 41.5625 0.578125 41.738281 0.695312 41.886719 0.84375 C 42.039062 0.996094 42.15625 1.167969 42.238281 1.367188 C 42.320312 1.5625 42.359375 1.769531 42.359375 1.980469 L 42.359375 88.78125 C 42.359375 88.996094 42.320312 89.199219 42.238281 89.394531 C 42.15625 89.59375 42.039062 89.765625 41.886719 89.917969 C 41.738281 90.070312 41.5625 90.183594 41.367188 90.265625 C 41.171875 90.347656 40.964844 90.386719 40.75 90.386719 L 27.890625 90.386719 C 27.679688 90.386719 27.472656 90.347656 27.277344 90.265625 C 27.082031 90.183594 26.90625 90.070312 26.753906 89.917969 C 26.605469 89.765625 26.488281 89.59375 26.40625 89.394531 C 26.324219 89.199219 26.285156 88.996094 26.285156 88.78125 Z M 3.78125 16.140625 L 3.78125 74.621094 L 13.425781 74.621094 L 13.425781 16.140625 Z M 16.640625 9.789062 L 16.640625 80.972656 L 26.285156 80.972656 L 26.285156 9.789062 Z M 39.144531 87.171875 L 39.144531 3.589844 L 29.5 3.589844 L 29.5 87.171875 Z M 39.144531 87.171875 " fill-opacity="1" fill-rule="nonzero"/></g></g></g></g><g clip-path="url(#b843990506)"><g transform="matrix(1, 0, 0, 1, 202, 349)"><g clip-path="url(#722c6f8b18)"><g clip-path="url(#d8c215c95c)"><path fill="#d50b2e" d="M 0.621094 0.457031 L 56.421875 0.457031 L 56.421875 80.015625 L 0.621094 80.015625 Z M 0.621094 0.457031 " fill-opacity="1" fill-rule="nonzero"/></g></g></g></g><path fill="#ffffff" d="M 246.640625 412.945312 L 217.347656 412.945312 C 217.214844 412.945312 217.085938 412.921875 216.964844 412.871094 C 216.84375 412.820312 216.734375 412.746094 216.640625 412.652344 C 216.546875 412.558594 216.472656 412.449219 216.421875 412.328125 C 216.371094 412.203125 216.34375 412.074219 216.34375 411.941406 L 216.34375 374.960938 C 216.34375 374.828125 216.371094 374.699219 216.421875 374.578125 C 216.472656 374.453125 216.546875 374.34375 216.640625 374.25 C 216.734375 374.15625 216.84375 374.085938 216.964844 374.035156 C 217.085938 373.984375 217.214844 373.957031 217.347656 373.957031 L 246.640625 373.957031 C 246.773438 373.957031 246.898438 373.984375 247.023438 374.035156 C 247.144531 374.085938 247.253906 374.15625 247.347656 374.25 C 247.441406 374.34375 247.515625 374.453125 247.566406 374.578125 C 247.617188 374.699219 247.644531 374.828125 247.644531 374.960938 L 247.644531 411.941406 C 247.644531 412.074219 247.617188 412.203125 247.566406 412.328125 C 247.515625 412.449219 247.441406 412.558594 247.347656 412.652344 C 247.253906 412.746094 247.144531 412.820312 247.023438 412.871094 C 246.898438 412.921875 246.773438 412.945312 246.640625 412.945312 Z M 218.351562 410.9375 L 245.636719 410.9375 L 245.636719 375.964844 L 218.351562 375.964844 Z M 218.351562 410.9375 " fill-opacity="1" fill-rule="nonzero"/><path fill="#ffffff" d="M 231.992188 412.945312 C 231.859375 412.945312 231.730469 412.921875 231.609375 412.871094 C 231.484375 412.820312 231.378906 412.746094 231.28125 412.652344 C 231.1875 412.558594 231.117188 412.449219 231.066406 412.328125 C 231.015625 412.203125 230.988281 412.074219 230.988281 411.941406 L 230.988281 374.960938 C 230.988281 374.828125 231.015625 374.699219 231.066406 374.578125 C 231.117188 374.453125 231.1875 374.34375 231.28125 374.25 C 231.378906 374.15625 231.484375 374.085938 231.609375 374.035156 C 231.730469 373.984375 231.859375 373.957031 231.992188 373.957031 C 232.125 373.957031 232.253906 373.984375 232.375 374.035156 C 232.5 374.085938 232.609375 374.15625 232.703125 374.25 C 232.796875 374.34375 232.867188 374.453125 232.917969 374.578125 C 232.972656 374.699219 232.996094 374.828125 232.996094 374.960938 L 232.996094 411.941406 C 232.996094 412.074219 232.972656 412.203125 232.917969 412.328125 C 232.867188 412.449219 232.796875 412.558594 232.703125 412.652344 C 232.609375 412.746094 232.5 412.820312 232.375 412.871094 C 232.253906 412.921875 232.125 412.945312 231.992188 412.945312 Z M 231.992188 412.945312 " fill-opacity="1" fill-rule="nonzero"/><path fill="#ffffff" d="M 224.667969 399.957031 C 224.535156 399.957031 224.410156 399.929688 224.285156 399.878906 C 224.164062 399.828125 224.054688 399.753906 223.960938 399.660156 C 223.867188 399.566406 223.792969 399.457031 223.742188 399.335938 C 223.691406 399.210938 223.667969 399.085938 223.667969 398.953125 L 223.667969 387.949219 C 223.667969 387.816406 223.691406 387.691406 223.742188 387.566406 C 223.792969 387.445312 223.867188 387.335938 223.960938 387.242188 C 224.054688 387.148438 224.164062 387.074219 224.285156 387.023438 C 224.410156 386.972656 224.535156 386.945312 224.667969 386.945312 C 224.800781 386.945312 224.929688 386.972656 225.054688 387.023438 C 225.175781 387.074219 225.285156 387.148438 225.378906 387.242188 C 225.472656 387.335938 225.546875 387.445312 225.597656 387.566406 C 225.648438 387.691406 225.671875 387.816406 225.671875 387.949219 L 225.671875 398.953125 C 225.671875 399.085938 225.648438 399.210938 225.597656 399.335938 C 225.546875 399.457031 225.472656 399.566406 225.378906 399.660156 C 225.285156 399.753906 225.175781 399.828125 225.054688 399.878906 C 224.929688 399.929688 224.800781 399.957031 224.667969 399.957031 Z M 224.667969 399.957031 " fill-opacity="1" fill-rule="nonzero"/><path fill="#ffffff" d="M 224.667969 399.957031 C 224.398438 399.957031 224.164062 399.859375 223.96875 399.671875 L 221.296875 397.070312 C 221.199219 396.976562 221.125 396.871094 221.074219 396.746094 C 221.019531 396.625 220.992188 396.496094 220.988281 396.363281 C 220.988281 396.230469 221.011719 396.101562 221.058594 395.976562 C 221.109375 395.851562 221.179688 395.742188 221.273438 395.644531 C 221.367188 395.550781 221.476562 395.476562 221.597656 395.425781 C 221.71875 395.371094 221.847656 395.34375 221.980469 395.34375 C 222.117188 395.339844 222.246094 395.367188 222.367188 395.414062 C 222.492188 395.464844 222.601562 395.539062 222.695312 395.632812 L 225.371094 398.234375 C 225.515625 398.375 225.609375 398.546875 225.652344 398.746094 C 225.695312 398.945312 225.675781 399.140625 225.597656 399.328125 C 225.523438 399.519531 225.398438 399.671875 225.230469 399.785156 C 225.0625 399.898438 224.875 399.957031 224.667969 399.957031 Z M 224.667969 399.957031 " fill-opacity="1" fill-rule="nonzero"/><path fill="#ffffff" d="M 224.667969 399.957031 C 224.464844 399.957031 224.277344 399.898438 224.109375 399.785156 C 223.941406 399.671875 223.816406 399.519531 223.738281 399.328125 C 223.664062 399.140625 223.644531 398.945312 223.6875 398.746094 C 223.730469 398.546875 223.824219 398.375 223.96875 398.234375 L 226.640625 395.632812 C 226.738281 395.535156 226.847656 395.460938 226.972656 395.410156 C 227.09375 395.355469 227.226562 395.332031 227.359375 395.332031 C 227.496094 395.332031 227.625 395.359375 227.75 395.410156 C 227.875 395.464844 227.984375 395.539062 228.078125 395.636719 C 228.171875 395.730469 228.242188 395.84375 228.292969 395.96875 C 228.339844 396.09375 228.363281 396.226562 228.359375 396.359375 C 228.355469 396.496094 228.328125 396.625 228.273438 396.746094 C 228.21875 396.871094 228.140625 396.976562 228.042969 397.070312 L 225.371094 399.671875 C 225.175781 399.859375 224.941406 399.957031 224.667969 399.957031 Z M 224.667969 399.957031 " fill-opacity="1" fill-rule="nonzero"/><path fill="#ffffff" d="M 239.316406 399.957031 C 239.183594 399.957031 239.054688 399.929688 238.933594 399.878906 C 238.808594 399.828125 238.699219 399.757812 238.605469 399.660156 C 238.511719 399.566406 238.441406 399.460938 238.390625 399.335938 C 238.339844 399.214844 238.3125 399.085938 238.3125 398.953125 L 238.3125 387.949219 C 238.3125 387.816406 238.339844 387.691406 238.390625 387.566406 C 238.441406 387.445312 238.511719 387.335938 238.605469 387.242188 C 238.699219 387.148438 238.808594 387.074219 238.933594 387.023438 C 239.054688 386.972656 239.183594 386.945312 239.316406 386.945312 C 239.449219 386.945312 239.578125 386.972656 239.699219 387.023438 C 239.824219 387.074219 239.933594 387.148438 240.027344 387.242188 C 240.121094 387.335938 240.191406 387.445312 240.242188 387.566406 C 240.292969 387.691406 240.320312 387.816406 240.320312 387.949219 L 240.320312 398.953125 C 240.320312 399.085938 240.292969 399.214844 240.242188 399.335938 C 240.191406 399.460938 240.121094 399.566406 240.027344 399.660156 C 239.933594 399.757812 239.824219 399.828125 239.699219 399.878906 C 239.578125 399.929688 239.449219 399.957031 239.316406 399.957031 Z M 239.316406 399.957031 " fill-opacity="1" fill-rule="nonzero"/><path fill="#ffffff" d="M 236.644531 391.558594 C 236.4375 391.558594 236.25 391.5 236.082031 391.386719 C 235.910156 391.273438 235.789062 391.121094 235.710938 390.933594 C 235.636719 390.742188 235.617188 390.546875 235.660156 390.347656 C 235.703125 390.148438 235.796875 389.976562 235.945312 389.832031 L 238.617188 387.230469 C 238.710938 387.136719 238.820312 387.066406 238.945312 387.015625 C 239.070312 386.964844 239.195312 386.941406 239.332031 386.941406 C 239.464844 386.945312 239.59375 386.96875 239.714844 387.023438 C 239.839844 387.074219 239.945312 387.148438 240.039062 387.246094 C 240.132812 387.339844 240.203125 387.453125 240.253906 387.574219 C 240.300781 387.699219 240.324219 387.828125 240.324219 387.960938 C 240.320312 388.09375 240.292969 388.222656 240.238281 388.347656 C 240.1875 388.46875 240.113281 388.574219 240.015625 388.667969 L 237.34375 391.269531 C 237.148438 391.460938 236.914062 391.558594 236.644531 391.558594 Z M 236.644531 391.558594 " fill-opacity="1" fill-rule="nonzero"/><path fill="#ffffff" d="M 241.988281 391.558594 C 241.714844 391.558594 241.484375 391.464844 241.289062 391.273438 L 238.617188 388.667969 C 238.519531 388.578125 238.445312 388.46875 238.394531 388.347656 C 238.339844 388.222656 238.3125 388.097656 238.3125 387.964844 C 238.308594 387.832031 238.335938 387.703125 238.382812 387.578125 C 238.433594 387.453125 238.503906 387.34375 238.597656 387.25 C 238.6875 387.15625 238.796875 387.082031 238.917969 387.027344 C 239.042969 386.976562 239.167969 386.949219 239.300781 386.945312 C 239.433594 386.945312 239.5625 386.96875 239.6875 387.015625 C 239.8125 387.066406 239.921875 387.136719 240.015625 387.230469 L 242.6875 389.832031 C 242.835938 389.976562 242.929688 390.148438 242.972656 390.347656 C 243.015625 390.546875 243 390.742188 242.921875 390.933594 C 242.84375 391.121094 242.722656 391.273438 242.550781 391.386719 C 242.378906 391.503906 242.191406 391.558594 241.988281 391.558594 Z M 241.988281 391.558594 " fill-opacity="1" fill-rule="nonzero"/><path fill="#ffffff" d="M 241.988281 375.964844 L 221.996094 375.964844 C 221.863281 375.964844 221.734375 375.9375 221.613281 375.886719 C 221.488281 375.835938 221.382812 375.765625 221.289062 375.671875 C 221.195312 375.578125 221.121094 375.46875 221.070312 375.34375 C 221.019531 375.222656 220.992188 375.09375 220.992188 374.960938 L 220.992188 369.019531 C 220.992188 368.886719 221.019531 368.761719 221.070312 368.636719 C 221.121094 368.515625 221.195312 368.40625 221.289062 368.3125 C 221.382812 368.21875 221.488281 368.144531 221.613281 368.09375 C 221.734375 368.042969 221.863281 368.019531 221.996094 368.019531 L 241.988281 368.019531 C 242.121094 368.019531 242.25 368.042969 242.375 368.09375 C 242.496094 368.144531 242.605469 368.21875 242.699219 368.3125 C 242.792969 368.40625 242.867188 368.515625 242.917969 368.636719 C 242.96875 368.761719 242.992188 368.886719 242.992188 369.019531 L 242.992188 374.960938 C 242.992188 375.09375 242.96875 375.222656 242.917969 375.34375 C 242.867188 375.46875 242.792969 375.578125 242.699219 375.671875 C 242.605469 375.765625 242.496094 375.835938 242.375 375.886719 C 242.25 375.9375 242.121094 375.964844 241.988281 375.964844 Z M 223 373.957031 L 240.984375 373.957031 L 240.984375 370.023438 L 223 370.023438 Z M 223 373.957031 " fill-opacity="1" fill-rule="nonzero"/><path fill="#ffffff" d="M 226.835938 373.15625 C 226.703125 373.15625 226.574219 373.128906 226.453125 373.078125 C 226.328125 373.027344 226.222656 372.957031 226.125 372.863281 C 226.03125 372.769531 225.960938 372.660156 225.910156 372.535156 C 225.859375 372.414062 225.832031 372.285156 225.832031 372.152344 L 225.832031 371.828125 C 225.832031 371.695312 225.859375 371.566406 225.910156 371.445312 C 225.960938 371.320312 226.03125 371.214844 226.125 371.117188 C 226.222656 371.023438 226.328125 370.953125 226.453125 370.902344 C 226.574219 370.851562 226.703125 370.824219 226.835938 370.824219 C 226.96875 370.824219 227.097656 370.851562 227.21875 370.902344 C 227.34375 370.953125 227.453125 371.023438 227.546875 371.117188 C 227.640625 371.214844 227.710938 371.320312 227.765625 371.445312 C 227.816406 371.566406 227.839844 371.695312 227.839844 371.828125 L 227.839844 372.152344 C 227.839844 372.285156 227.816406 372.414062 227.765625 372.535156 C 227.710938 372.660156 227.640625 372.769531 227.546875 372.863281 C 227.453125 372.957031 227.34375 373.027344 227.21875 373.078125 C 227.097656 373.128906 226.96875 373.15625 226.835938 373.15625 Z M 226.835938 373.15625 " fill-opacity="1" fill-rule="nonzero"/><path fill="#ffffff" d="M 237.148438 373.15625 C 237.015625 373.15625 236.886719 373.128906 236.765625 373.078125 C 236.640625 373.027344 236.535156 372.957031 236.4375 372.863281 C 236.34375 372.769531 236.273438 372.660156 236.222656 372.535156 C 236.171875 372.414062 236.144531 372.285156 236.144531 372.152344 L 236.144531 371.828125 C 236.144531 371.695312 236.171875 371.566406 236.222656 371.445312 C 236.273438 371.320312 236.34375 371.214844 236.4375 371.117188 C 236.535156 371.023438 236.640625 370.953125 236.765625 370.902344 C 236.886719 370.851562 237.015625 370.824219 237.148438 370.824219 C 237.28125 370.824219 237.410156 370.851562 237.53125 370.902344 C 237.65625 370.953125 237.765625 371.023438 237.859375 371.117188 C 237.953125 371.214844 238.023438 371.320312 238.074219 371.445312 C 238.128906 371.566406 238.152344 371.695312 238.152344 371.828125 L 238.152344 372.152344 C 238.152344 372.285156 238.128906 372.414062 238.074219 372.535156 C 238.023438 372.660156 237.953125 372.769531 237.859375 372.863281 C 237.765625 372.957031 237.65625 373.027344 237.53125 373.078125 C 237.410156 373.128906 237.28125 373.15625 237.148438 373.15625 Z M 237.148438 373.15625 " fill-opacity="1" fill-rule="nonzero"/><g clip-path="url(#ad227128c9)"><path fill="#ffffff" d="M 253.441406 412.945312 L 210.542969 412.945312 C 210.410156 412.945312 210.28125 412.921875 210.160156 412.871094 C 210.035156 412.820312 209.925781 412.746094 209.832031 412.652344 C 209.738281 412.558594 209.667969 412.449219 209.617188 412.328125 C 209.566406 412.203125 209.539062 412.074219 209.539062 411.941406 L 209.539062 361.765625 C 209.539062 361.632812 209.566406 361.503906 209.617188 361.382812 C 209.667969 361.257812 209.738281 361.152344 209.832031 361.058594 C 209.925781 360.960938 210.035156 360.890625 210.160156 360.839844 C 210.28125 360.789062 210.410156 360.761719 210.542969 360.761719 L 253.441406 360.761719 C 253.574219 360.761719 253.703125 360.789062 253.828125 360.839844 C 253.949219 360.890625 254.058594 360.960938 254.152344 361.058594 C 254.246094 361.152344 254.320312 361.257812 254.371094 361.382812 C 254.421875 361.503906 254.445312 361.632812 254.445312 361.765625 L 254.445312 411.941406 C 254.445312 412.074219 254.421875 412.203125 254.371094 412.328125 C 254.320312 412.449219 254.246094 412.558594 254.152344 412.652344 C 254.058594 412.746094 253.949219 412.820312 253.828125 412.871094 C 253.703125 412.921875 253.574219 412.945312 253.441406 412.945312 Z M 211.546875 410.9375 L 252.4375 410.9375 L 252.4375 362.769531 L 211.546875 362.769531 Z M 211.546875 410.9375 " fill-opacity="1" fill-rule="nonzero"/></g><g clip-path="url(#57add611fe)"><path fill="#d50b2e" d="M 343.324219 442.339844 C 340.902344 436.617188 337.4375 431.476562 333.023438 427.0625 C 328.609375 422.648438 323.46875 419.179688 317.742188 416.757812 C 311.816406 414.253906 305.523438 412.980469 299.03125 412.980469 L 297.9375 412.980469 L 297.9375 462.144531 L 300.128906 462.144531 L 300.128906 415.183594 C 324.558594 415.761719 344.324219 435.523438 344.898438 459.953125 L 344.898438 462.144531 L 347.101562 462.144531 L 347.101562 461.050781 C 347.101562 454.5625 345.832031 448.265625 343.324219 442.339844 " fill-opacity="1" fill-rule="nonzero"/></g><g clip-path="url(#6cec5d819b)"><path fill="#d50b2e" d="M 299.035156 462.144531 L 288.953125 462.144531 L 288.953125 459.953125 L 299.035156 459.953125 L 299.035156 462.144531 " fill-opacity="1" fill-rule="nonzero"/></g><g clip-path="url(#c9c0467d37)"><path fill="#d50b2e" d="M 356.085938 462.144531 L 346.007812 462.144531 L 346.007812 459.953125 L 356.085938 459.953125 L 356.085938 462.144531 " fill-opacity="1" fill-rule="nonzero"/></g><g clip-path="url(#343f2361ca)"><g transform="matrix(1, 0, 0, 1, 300, 457)"><g clip-path="url(#e4f29a4f6a)"><g clip-path="url(#0b7ec23906)"><path fill="#ffffff" d="M 0.117188 9.5625 L 0.117188 0.734375 L 44.925781 0.734375 L 44.925781 9.5625 Z M 0.117188 9.5625 " fill-opacity="1" fill-rule="nonzero"/></g></g></g></g><g clip-path="url(#19e3bb6af7)"><g transform="matrix(1, 0, 0, 1, 202, 482)"><g clip-path="url(#8eb6634ad0)"><g clip-path="url(#754dea4058)"><path fill="#d50b2e" d="M 0.566406 0.804688 L 47.679688 0.804688 L 47.679688 156.316406 L 0.566406 156.316406 Z M 0.566406 0.804688 " fill-opacity="1" fill-rule="nonzero"/></g></g></g></g><g clip-path="url(#3f8d1b671a)"><g transform="matrix(1, 0, 0, 1, 395, 482)"><g clip-path="url(#0802e4647d)"><g clip-path="url(#30e157e403)"><path fill="#d50b2e" d="M 0.253906 0.804688 L 47.367188 0.804688 L 47.367188 156.316406 L 0.253906 156.316406 Z M 0.253906 0.804688 " fill-opacity="1" fill-rule="nonzero"/></g></g></g></g><g clip-path="url(#fcbb942d2e)"><g transform="matrix(1, 0, 0, 1, 202, 462)"><g clip-path="url(#259c3c26d1)"><g clip-path="url(#46ab7045ba)"><path fill="#d50b2e" d="M 0.566406 0.152344 L 240.484375 0.152344 L 240.484375 198.277344 L 0.566406 198.277344 Z M 0.566406 0.152344 " fill-opacity="1" fill-rule="nonzero"/></g></g></g></g><g fill="#ffffff" fill-opacity="1"><g transform="translate(296.130877, 569.45827)"><g><path d="M 16.4375 0 L 12.875 0 L 11.578125 -3.953125 L 5.03125 -3.953125 L 3.734375 0 L 0.25 0 L 6.171875 -17.125 L 10.515625 -17.125 Z M 8.140625 -13.546875 L 5.9375 -6.796875 L 10.640625 -6.796875 L 8.4375 -13.546875 Z M 8.140625 -13.546875 "/></g></g><g transform="translate(312.817482, 569.45827)"><g><path d="M 5.921875 0.25 C 4.460938 0.25 3.382812 -0.144531 2.6875 -0.9375 C 2 -1.726562 1.65625 -2.867188 1.65625 -4.359375 L 1.65625 -12.921875 L 4.90625 -12.921875 L 4.90625 -4.765625 C 4.90625 -3.972656 5.070312 -3.394531 5.40625 -3.03125 C 5.75 -2.675781 6.273438 -2.5 6.984375 -2.5 C 7.890625 -2.5 8.59375 -2.789062 9.09375 -3.375 C 9.59375 -3.96875 9.84375 -4.894531 9.84375 -6.15625 L 9.84375 -12.921875 L 13.078125 -12.921875 L 13.078125 0 L 9.96875 0 L 9.96875 -1.890625 L 9.71875 -1.953125 C 9.300781 -1.210938 8.796875 -0.660156 8.203125 -0.296875 C 7.609375 0.0664062 6.847656 0.25 5.921875 0.25 Z M 5.921875 0.25 "/></g></g><g transform="translate(327.759312, 569.45827)"><g><path d="M 5.359375 0.25 C 4.203125 0.25 3.316406 -0.0625 2.703125 -0.6875 C 2.085938 -1.320312 1.78125 -2.28125 1.78125 -3.5625 L 1.78125 -18.109375 L 5.03125 -18.109375 L 5.03125 -3.6875 C 5.03125 -2.894531 5.351562 -2.5 6 -2.5 C 6.1875 -2.5 6.390625 -2.53125 6.609375 -2.59375 L 6.765625 -2.546875 L 7.0625 -0.0625 C 6.882812 0.03125 6.644531 0.101562 6.34375 0.15625 C 6.050781 0.21875 5.722656 0.25 5.359375 0.25 Z M 5.359375 0.25 "/></g></g><g transform="translate(335.183388, 569.45827)"><g><path d="M 5.03125 0.25 C 4.207031 0.25 3.488281 0.0976562 2.875 -0.203125 C 2.269531 -0.515625 1.800781 -0.960938 1.46875 -1.546875 C 1.144531 -2.140625 0.984375 -2.847656 0.984375 -3.671875 C 0.984375 -4.441406 1.144531 -5.082031 1.46875 -5.59375 C 1.800781 -6.113281 2.3125 -6.539062 3 -6.875 C 3.6875 -7.207031 4.582031 -7.460938 5.6875 -7.640625 C 6.457031 -7.765625 7.046875 -7.898438 7.453125 -8.046875 C 7.859375 -8.203125 8.128906 -8.375 8.265625 -8.5625 C 8.410156 -8.75 8.484375 -8.988281 8.484375 -9.28125 C 8.484375 -9.6875 8.335938 -10 8.046875 -10.21875 C 7.753906 -10.4375 7.273438 -10.546875 6.609375 -10.546875 C 5.890625 -10.546875 5.203125 -10.382812 4.546875 -10.0625 C 3.898438 -9.75 3.34375 -9.332031 2.875 -8.8125 L 2.640625 -8.8125 L 1.28125 -10.859375 C 1.9375 -11.585938 2.734375 -12.148438 3.671875 -12.546875 C 4.617188 -12.953125 5.648438 -13.15625 6.765625 -13.15625 C 8.472656 -13.15625 9.707031 -12.789062 10.46875 -12.0625 C 11.238281 -11.34375 11.625 -10.316406 11.625 -8.984375 L 11.625 -3.375 C 11.625 -2.789062 11.878906 -2.5 12.390625 -2.5 C 12.585938 -2.5 12.78125 -2.535156 12.96875 -2.609375 L 13.125 -2.5625 L 13.359375 -0.296875 C 13.179688 -0.179688 12.929688 -0.0859375 12.609375 -0.015625 C 12.285156 0.0546875 11.9375 0.09375 11.5625 0.09375 C 10.789062 0.09375 10.1875 -0.0507812 9.75 -0.34375 C 9.3125 -0.644531 9 -1.113281 8.8125 -1.75 L 8.578125 -1.765625 C 7.941406 -0.421875 6.757812 0.25 5.03125 0.25 Z M 6.0625 -2.171875 C 6.8125 -2.171875 7.410156 -2.421875 7.859375 -2.921875 C 8.304688 -3.429688 8.53125 -4.132812 8.53125 -5.03125 L 8.53125 -6.34375 L 8.3125 -6.390625 C 8.113281 -6.234375 7.859375 -6.101562 7.546875 -6 C 7.234375 -5.894531 6.78125 -5.789062 6.1875 -5.6875 C 5.476562 -5.570312 4.96875 -5.367188 4.65625 -5.078125 C 4.351562 -4.796875 4.203125 -4.394531 4.203125 -3.875 C 4.203125 -3.320312 4.363281 -2.898438 4.6875 -2.609375 C 5.019531 -2.316406 5.476562 -2.171875 6.0625 -2.171875 Z M 6.0625 -2.171875 "/></g></g></g></svg>