<svg xmlns="http://www.w3.org/2000/svg" xmlns:xlink="http://www.w3.org/1999/xlink" width="861" zoomAndPan="magnify" viewBox="0 0 645.75 661.499985" height="882" preserveAspectRatio="xMidYMid meet" version="1.0"><defs><clipPath id="2126fc3570"><path d="M 0.117188 0 L 645.382812 0 L 645.382812 661 L 0.117188 661 Z M 0.117188 0 " clip-rule="nonzero"/></clipPath><clipPath id="40da32fe67"><path d="M 202.566406 224.761719 L 442.367188 224.761719 L 442.367188 660.277344 L 202.566406 660.277344 Z M 202.566406 224.761719 " clip-rule="nonzero"/></clipPath><clipPath id="40456ad99a"><path d="M 0.566406 0.761719 L 240.367188 0.761719 L 240.367188 436.277344 L 0.566406 436.277344 Z M 0.566406 0.761719 " clip-rule="nonzero"/></clipPath><clipPath id="9e5450360c"><rect x="0" width="241" y="0" height="437"/></clipPath><clipPath id="c141636a83"><path d="M 202.566406 224.761719 L 442.363281 224.761719 L 442.363281 660.179688 L 202.566406 660.179688 Z M 202.566406 224.761719 " clip-rule="nonzero"/></clipPath><clipPath id="b5bb1b2f45"><path d="M 0.117188 0.0390625 L 644.808594 0.0390625 L 644.808594 228.316406 L 0.117188 228.316406 Z M 0.117188 0.0390625 " clip-rule="nonzero"/></clipPath><clipPath id="f5f2540672"><path d="M 0.117188 0.0390625 L 644.808594 0.0390625 L 644.808594 228.316406 L 0.117188 228.316406 Z M 0.117188 0.0390625 " clip-rule="nonzero"/></clipPath><clipPath id="80017966d3"><rect x="0" width="645" y="0" height="229"/></clipPath><clipPath id="018173a699"><path d="M 0.296875 0.0390625 L 644.808594 0.0390625 L 644.808594 228.3125 L 0.296875 228.3125 Z M 0.296875 0.0390625 " clip-rule="nonzero"/></clipPath><clipPath id="ed475e02a3"><path d="M 202.566406 226.25 L 442.367188 226.25 L 442.367188 462.152344 L 202.566406 462.152344 Z M 202.566406 226.25 " clip-rule="nonzero"/></clipPath><clipPath id="4cd1b4a8da"><path d="M 0.566406 0.25 L 240.367188 0.25 L 240.367188 236.152344 L 0.566406 236.152344 Z M 0.566406 0.25 " clip-rule="nonzero"/></clipPath><clipPath id="42c6b04d5c"><rect x="0" width="241" y="0" height="237"/></clipPath><clipPath id="cc86b3e063"><path d="M 202.566406 226.25 L 442.359375 226.25 L 442.359375 462.144531 L 202.566406 462.144531 Z M 202.566406 226.25 " clip-rule="nonzero"/></clipPath><clipPath id="6d27c5b547"><path d="M 30.3125 0.0351562 L 209.542969 0.0351562 L 209.542969 47.148438 L 30.3125 47.148438 Z M 30.3125 0.0351562 " clip-rule="nonzero"/></clipPath><clipPath id="2a6d233e31"><path d="M 0.3125 0.0351562 L 179.542969 0.0351562 L 179.542969 47.148438 L 0.3125 47.148438 Z M 0.3125 0.0351562 " clip-rule="nonzero"/></clipPath><clipPath id="cf5a629a80"><rect x="0" width="180" y="0" height="48"/></clipPath><clipPath id="ddf6213afb"><path d="M 435.398438 0 L 614.625 0 L 614.625 47.109375 L 435.398438 47.109375 Z M 435.398438 0 " clip-rule="nonzero"/></clipPath><clipPath id="fcc056530f"><path d="M 0.398438 0 L 179.625 0 L 179.625 47.109375 L 0.398438 47.109375 Z M 0.398438 0 " clip-rule="nonzero"/></clipPath><clipPath id="652912c097"><rect x="0" width="180" y="0" height="48"/></clipPath><clipPath id="c500f7b289"><path d="M 230.523438 0 L 414.410156 0 L 414.410156 47.109375 L 230.523438 47.109375 Z M 230.523438 0 " clip-rule="nonzero"/></clipPath><clipPath id="25dabc7d8b"><path d="M 0.523438 0 L 184.410156 0 L 184.410156 47.109375 L 0.523438 47.109375 Z M 0.523438 0 " clip-rule="nonzero"/></clipPath><clipPath id="5a68c6e425"><rect x="0" width="185" y="0" height="48"/></clipPath><clipPath id="d04fa634ee"><path d="M 535.394531 177.066406 L 614.847656 177.066406 L 614.847656 226.246094 L 535.394531 226.246094 Z M 535.394531 177.066406 " clip-rule="nonzero"/></clipPath><clipPath id="3c5d3b099c"><path d="M 0.394531 0.0664062 L 79.847656 0.0664062 L 79.847656 49.246094 L 0.394531 49.246094 Z M 0.394531 0.0664062 " clip-rule="nonzero"/></clipPath><clipPath id="9d6e426dc9"><rect x="0" width="80" y="0" height="50"/></clipPath><clipPath id="093633a54f"><path d="M 452.859375 177.058594 L 524.90625 177.058594 L 524.90625 226.238281 L 452.859375 226.238281 Z M 452.859375 177.058594 " clip-rule="nonzero"/></clipPath><clipPath id="23537662a8"><path d="M 0.859375 0.0585938 L 72.90625 0.0585938 L 72.90625 49.238281 L 0.859375 49.238281 Z M 0.859375 0.0585938 " clip-rule="nonzero"/></clipPath><clipPath id="d4607f81f7"><rect x="0" width="73" y="0" height="50"/></clipPath><clipPath id="930b4679ca"><path d="M 300.117188 221.832031 L 344.9375 221.832031 L 344.9375 230.660156 L 300.117188 230.660156 Z M 300.117188 221.832031 " clip-rule="nonzero"/></clipPath><clipPath id="a6f59e2336"><path d="M 0.117188 0.832031 L 44.9375 0.832031 L 44.9375 9.660156 L 0.117188 9.660156 Z M 0.117188 0.832031 " clip-rule="nonzero"/></clipPath><clipPath id="d73b693cab"><rect x="0" width="45" y="0" height="10"/></clipPath><clipPath id="75525fdd52"><path d="M 288.953125 226.25 L 356.402344 226.25 L 356.402344 275.710938 L 288.953125 275.710938 Z M 288.953125 226.25 " clip-rule="nonzero"/></clipPath><clipPath id="2fadcdf659"><path d="M 9 0.25 L 60 0.25 L 60 49.421875 L 9 49.421875 Z M 9 0.25 " clip-rule="nonzero"/></clipPath><clipPath id="00256cbde0"><path d="M 0.953125 0.25 L 12 0.25 L 12 3 L 0.953125 3 Z M 0.953125 0.25 " clip-rule="nonzero"/></clipPath><clipPath id="1f923389f2"><path d="M 58 0.25 L 68.25 0.25 L 68.25 3 L 58 3 Z M 58 0.25 " clip-rule="nonzero"/></clipPath><clipPath id="9df439e004"><rect x="0" width="69" y="0" height="50"/></clipPath><clipPath id="6042bde99b"><path d="M 30.308594 179.132812 L 192.074219 179.132812 L 192.074219 226.246094 L 30.308594 226.246094 Z M 30.308594 179.132812 " clip-rule="nonzero"/></clipPath><clipPath id="8fb687cbbf"><path d="M 0.308594 0.132812 L 162.074219 0.132812 L 162.074219 47.246094 L 0.308594 47.246094 Z M 0.308594 0.132812 " clip-rule="nonzero"/></clipPath><clipPath id="d1eb172719"><rect x="0" width="163" y="0" height="48"/></clipPath><clipPath id="8efaf0b828"><path d="M 468.765625 183.34375 L 509 183.34375 L 509 222.316406 L 468.765625 222.316406 Z M 468.765625 183.34375 " clip-rule="nonzero"/></clipPath><clipPath id="5c5b6faca1"><path d="M 400.566406 228.515625 L 442.535156 228.515625 L 442.535156 318.445312 L 400.566406 318.445312 Z M 400.566406 228.515625 " clip-rule="nonzero"/></clipPath><clipPath id="50908f02ca"><path d="M 0.566406 0.515625 L 42.535156 0.515625 L 42.535156 90.246094 L 0.566406 90.246094 Z M 0.566406 0.515625 " clip-rule="nonzero"/></clipPath><clipPath id="89faea33cf"><rect x="0" width="43" y="0" height="91"/></clipPath><clipPath id="a840131a35"><path d="M 202.621094 363.066406 L 258.421875 363.066406 L 258.421875 442.519531 L 202.621094 442.519531 Z M 202.621094 363.066406 " clip-rule="nonzero"/></clipPath><clipPath id="c5b86b146c"><path d="M 0.621094 0.0664062 L 56.421875 0.0664062 L 56.421875 79.519531 L 0.621094 79.519531 Z M 0.621094 0.0664062 " clip-rule="nonzero"/></clipPath><clipPath id="079feadee8"><rect x="0" width="57" y="0" height="80"/></clipPath><clipPath id="066bf4aa6d"><path d="M 209.539062 376.675781 L 254.503906 376.675781 L 254.503906 429 L 209.539062 429 Z M 209.539062 376.675781 " clip-rule="nonzero"/></clipPath><clipPath id="68cb48545b"><path d="M 297 412.972656 L 348 412.972656 L 348 462.433594 L 297 462.433594 Z M 297 412.972656 " clip-rule="nonzero"/></clipPath><clipPath id="08f83f1c8f"><path d="M 288.953125 459 L 300 459 L 300 462.433594 L 288.953125 462.433594 Z M 288.953125 459 " clip-rule="nonzero"/></clipPath><clipPath id="dca1f662ca"><path d="M 346 459 L 356.402344 459 L 356.402344 462.433594 L 346 462.433594 Z M 346 459 " clip-rule="nonzero"/></clipPath><clipPath id="69e12c0f94"><path d="M 300.117188 457.734375 L 344.9375 457.734375 L 344.9375 466.5625 L 300.117188 466.5625 Z M 300.117188 457.734375 " clip-rule="nonzero"/></clipPath><clipPath id="94bafe7d22"><path d="M 0.117188 0.734375 L 44.9375 0.734375 L 44.9375 9.5625 L 0.117188 9.5625 Z M 0.117188 0.734375 " clip-rule="nonzero"/></clipPath><clipPath id="1105f8550b"><rect x="0" width="45" y="0" height="10"/></clipPath><clipPath id="556174f734"><path d="M 202.566406 482.804688 L 249.679688 482.804688 L 249.679688 638.296875 L 202.566406 638.296875 Z M 202.566406 482.804688 " clip-rule="nonzero"/></clipPath><clipPath id="2f662458e9"><path d="M 0.566406 0.804688 L 47.679688 0.804688 L 47.679688 156.296875 L 0.566406 156.296875 Z M 0.566406 0.804688 " clip-rule="nonzero"/></clipPath><clipPath id="f2b4cda71e"><rect x="0" width="48" y="0" height="157"/></clipPath><clipPath id="beb6b8837e"><path d="M 395.253906 482.804688 L 442.367188 482.804688 L 442.367188 638.296875 L 395.253906 638.296875 Z M 395.253906 482.804688 " clip-rule="nonzero"/></clipPath><clipPath id="0cd2b67ccf"><path d="M 0.253906 0.804688 L 47.367188 0.804688 L 47.367188 156.296875 L 0.253906 156.296875 Z M 0.253906 0.804688 " clip-rule="nonzero"/></clipPath><clipPath id="ce0f45b9ec"><rect x="0" width="48" y="0" height="157"/></clipPath></defs><g clip-path="url(#2126fc3570)"><path fill="#ffffff" d="M 0.117188 0 L 645.382812 0 L 645.382812 661 L 0.117188 661 Z M 0.117188 0 " fill-opacity="1" fill-rule="nonzero"/></g><g clip-path="url(#40da32fe67)"><g transform="matrix(1, 0, 0, 1, 202, 224)"><g clip-path="url(#9e5450360c)"><g clip-path="url(#40456ad99a)"><path fill="#ffffff" d="M 0.566406 0.761719 L 240.367188 0.761719 L 240.367188 436.332031 L 0.566406 436.332031 Z M 0.566406 0.761719 " fill-opacity="1" fill-rule="nonzero"/></g></g></g></g><g clip-path="url(#c141636a83)"><path stroke-linecap="butt" transform="matrix(0.749433, 0, 0, 0.749433, 202.566829, 224.762758)" fill="none" stroke-linejoin="miter" d="M -0.000563446 -0.00138635 L 319.970314 -0.00138635 L 319.970314 581.119893 L -0.000563446 581.119893 Z M -0.000563446 -0.00138635 " stroke="#d50b2e" stroke-width="8" stroke-opacity="1" stroke-miterlimit="4"/></g><g clip-path="url(#b5bb1b2f45)"><g transform="matrix(1, 0, 0, 1, 0.000000000000000014, 0)"><g clip-path="url(#80017966d3)"><g clip-path="url(#f5f2540672)"><path fill="#ffffff" d="M 644.808594 0.0390625 L 644.808594 228.316406 L 0.109375 228.316406 L 0.109375 0.0390625 Z M 644.808594 0.0390625 " fill-opacity="1" fill-rule="nonzero"/></g></g></g></g><g clip-path="url(#018173a699)"><path stroke-linecap="butt" transform="matrix(0, 0.749433, -0.749433, 0, 644.809469, 0.039681)" fill="none" stroke-linejoin="miter" d="M -0.000825294 0.00116821 L 304.593834 0.00116821 L 304.593834 860.234279 L -0.000825294 860.234279 Z M -0.000825294 0.00116821 " stroke="#d50b2e" stroke-width="8" stroke-opacity="1" stroke-miterlimit="4"/></g><g clip-path="url(#ed475e02a3)"><g transform="matrix(1, 0, 0, 1, 202, 226)"><g clip-path="url(#42c6b04d5c)"><g clip-path="url(#4cd1b4a8da)"><path fill="#ffffff" d="M 0.566406 0.25 L 240.15625 0.25 L 240.15625 236.152344 L 0.566406 236.152344 Z M 0.566406 0.25 " fill-opacity="1" fill-rule="nonzero"/></g></g></g></g><g clip-path="url(#cc86b3e063)"><path stroke-linecap="butt" transform="matrix(0.749433, 0, 0, 0.749433, 202.568116, 226.250193)" fill="none" stroke-linejoin="miter" d="M -0.00228185 -0.000256913 L 319.963363 -0.000256913 L 319.963363 314.763542 L -0.00228185 314.763542 Z M -0.00228185 -0.000256913 " stroke="#d50b2e" stroke-width="8" stroke-opacity="1" stroke-miterlimit="4"/></g><g clip-path="url(#6d27c5b547)"><g transform="matrix(1, 0, 0, 1, 30, 0)"><g clip-path="url(#cf5a629a80)"><g clip-path="url(#2a6d233e31)"><path fill="#d50b2e" d="M 0.3125 47.148438 L 0.3125 0.0351562 L 179.5625 0.0351562 L 179.5625 47.148438 Z M 0.3125 47.148438 " fill-opacity="1" fill-rule="nonzero"/></g></g></g></g><g clip-path="url(#ddf6213afb)"><g transform="matrix(1, 0, 0, 1, 435, 0)"><g clip-path="url(#652912c097)"><g clip-path="url(#fcc056530f)"><path fill="#d50b2e" d="M 0.398438 47.109375 L 0.398438 -0.00390625 L 179.652344 -0.00390625 L 179.652344 47.109375 Z M 0.398438 47.109375 " fill-opacity="1" fill-rule="nonzero"/></g></g></g></g><g clip-path="url(#c500f7b289)"><g transform="matrix(1, 0, 0, 1, 230, 0)"><g clip-path="url(#5a68c6e425)"><g clip-path="url(#25dabc7d8b)"><path fill="#d50b2e" d="M 0.523438 47.109375 L 0.523438 -0.00390625 L 184.375 -0.00390625 L 184.375 47.109375 Z M 0.523438 47.109375 " fill-opacity="1" fill-rule="nonzero"/></g></g></g></g><g clip-path="url(#d04fa634ee)"><g transform="matrix(1, 0, 0, 1, 535, 177)"><g clip-path="url(#9d6e426dc9)"><g clip-path="url(#3c5d3b099c)"><path fill="#d50b2e" d="M 0.394531 49.246094 L 0.394531 0.0664062 L 79.929688 0.0664062 L 79.929688 49.246094 Z M 0.394531 49.246094 " fill-opacity="1" fill-rule="nonzero"/></g></g></g></g><g clip-path="url(#093633a54f)"><g transform="matrix(1, 0, 0, 1, 452, 177)"><g clip-path="url(#d4607f81f7)"><g clip-path="url(#23537662a8)"><path fill="#d50b2e" d="M 0.859375 49.238281 L 0.859375 0.0585938 L 72.898438 0.0585938 L 72.898438 49.238281 Z M 0.859375 49.238281 " fill-opacity="1" fill-rule="nonzero"/></g></g></g></g><g clip-path="url(#930b4679ca)"><g transform="matrix(1, 0, 0, 1, 300, 221)"><g clip-path="url(#d73b693cab)"><g clip-path="url(#a6f59e2336)"><path fill="#ffffff" d="M 0.117188 9.660156 L 0.117188 0.832031 L 44.925781 0.832031 L 44.925781 9.660156 Z M 0.117188 9.660156 " fill-opacity="1" fill-rule="nonzero"/></g></g></g></g><g clip-path="url(#75525fdd52)"><g transform="matrix(1, 0, 0, 1, 288, 226)"><g clip-path="url(#9df439e004)"><g clip-path="url(#2fadcdf659)"><path fill="#d50b2e" d="M 55.324219 20.050781 C 52.902344 25.777344 49.4375 30.917969 45.023438 35.332031 C 40.609375 39.746094 35.46875 43.210938 29.742188 45.632812 C 23.816406 48.140625 17.523438 49.410156 11.03125 49.410156 L 9.9375 49.410156 L 9.9375 0.246094 L 12.128906 0.246094 L 12.128906 47.207031 C 36.558594 46.632812 56.324219 26.867188 56.898438 2.4375 L 56.898438 0.246094 L 59.101562 0.246094 L 59.101562 1.34375 C 59.101562 7.832031 57.832031 14.125 55.324219 20.050781 " fill-opacity="1" fill-rule="nonzero"/></g><g clip-path="url(#00256cbde0)"><path fill="#d50b2e" d="M 11.035156 0.25 L 0.953125 0.25 L 0.953125 2.4375 L 11.035156 2.4375 L 11.035156 0.25 " fill-opacity="1" fill-rule="nonzero"/></g><g clip-path="url(#1f923389f2)"><path fill="#d50b2e" d="M 68.085938 0.25 L 58.007812 0.25 L 58.007812 2.4375 L 68.085938 2.4375 L 68.085938 0.25 " fill-opacity="1" fill-rule="nonzero"/></g></g></g></g><g clip-path="url(#6042bde99b)"><g transform="matrix(1, 0, 0, 1, 30, 179)"><g clip-path="url(#d1eb172719)"><g clip-path="url(#8fb687cbbf)"><path fill="#d50b2e" d="M 0.308594 47.246094 L 0.308594 0.132812 L 162.078125 0.132812 L 162.078125 47.246094 Z M 0.308594 47.246094 " fill-opacity="1" fill-rule="nonzero"/></g></g></g></g><g clip-path="url(#8efaf0b828)"><path fill="#ffffff" d="M 476.539062 191.308594 C 477.605469 191.308594 478.566406 190.859375 479.265625 190.132812 C 479.957031 189.410156 480.382812 188.417969 480.382812 187.324219 C 480.382812 186.234375 479.957031 185.242188 479.265625 184.519531 C 478.566406 183.792969 477.605469 183.34375 476.539062 183.34375 C 475.472656 183.34375 474.511719 183.792969 473.8125 184.523438 C 473.121094 185.242188 472.695312 186.234375 472.695312 187.328125 C 472.695312 188.417969 473.121094 189.410156 473.8125 190.132812 C 474.511719 190.859375 475.472656 191.308594 476.539062 191.308594 Z M 474.738281 185.410156 C 475.199219 184.929688 475.835938 184.632812 476.539062 184.632812 C 477.238281 184.632812 477.878906 184.929688 478.335938 185.410156 C 478.804688 185.898438 479.09375 186.574219 479.09375 187.324219 C 479.09375 188.078125 478.804688 188.753906 478.335938 189.242188 C 477.878906 189.722656 477.238281 190.019531 476.539062 190.019531 C 475.835938 190.019531 475.199219 189.722656 474.738281 189.242188 C 474.273438 188.753906 473.980469 188.078125 473.980469 187.324219 C 473.980469 186.574219 474.273438 185.898438 474.738281 185.410156 Z M 483.0625 193.167969 C 482.320312 192.433594 481.296875 191.980469 480.171875 191.980469 L 472.90625 191.980469 C 471.78125 191.980469 470.757812 192.433594 470.015625 193.167969 C 469.269531 193.902344 468.808594 194.917969 468.808594 196.035156 L 468.808594 205.226562 C 468.808594 205.90625 469.074219 206.523438 469.507812 206.976562 C 469.949219 207.433594 470.554688 207.714844 471.222656 207.714844 C 471.628906 207.714844 472.015625 207.609375 472.351562 207.425781 L 472.351562 219.539062 C 472.351562 220.21875 472.621094 220.839844 473.054688 221.289062 C 473.492188 221.75 474.097656 222.03125 474.769531 222.03125 C 475.4375 222.03125 476.042969 221.746094 476.480469 221.289062 C 476.503906 221.269531 476.519531 221.25 476.539062 221.226562 C 476.558594 221.25 476.578125 221.269531 476.597656 221.289062 C 477.035156 221.75 477.644531 222.03125 478.3125 222.03125 C 478.980469 222.03125 479.585938 221.746094 480.027344 221.289062 C 480.460938 220.839844 480.730469 220.21875 480.730469 219.539062 L 480.730469 207.425781 C 481.066406 207.613281 481.449219 207.71875 481.855469 207.71875 C 482.523438 207.71875 483.132812 207.433594 483.570312 206.976562 C 484.003906 206.523438 484.273438 205.90625 484.273438 205.226562 L 484.273438 196.035156 C 484.269531 194.917969 483.808594 193.902344 483.0625 193.167969 Z M 482.644531 206.085938 C 482.441406 206.296875 482.160156 206.429688 481.855469 206.429688 C 481.546875 206.429688 481.269531 206.296875 481.066406 206.085938 C 480.855469 205.867188 480.726562 205.5625 480.726562 205.226562 L 480.726562 197.277344 C 480.726562 196.917969 480.4375 196.632812 480.082031 196.632812 C 479.726562 196.632812 479.4375 196.917969 479.4375 197.277344 L 479.4375 219.542969 C 479.4375 219.878906 479.308594 220.183594 479.097656 220.402344 C 478.894531 220.613281 478.617188 220.746094 478.308594 220.746094 C 478.003906 220.746094 477.726562 220.613281 477.523438 220.402344 C 477.3125 220.183594 477.183594 219.878906 477.183594 219.542969 L 477.183594 207.179688 C 477.183594 206.824219 476.894531 206.535156 476.539062 206.535156 C 476.183594 206.535156 475.894531 206.824219 475.894531 207.179688 L 475.894531 219.542969 C 475.894531 219.878906 475.765625 220.183594 475.554688 220.402344 C 475.351562 220.613281 475.070312 220.746094 474.765625 220.746094 C 474.460938 220.746094 474.179688 220.613281 473.976562 220.402344 C 473.769531 220.183594 473.636719 219.878906 473.636719 219.542969 L 473.636719 197.277344 C 473.636719 196.917969 473.347656 196.632812 472.992188 196.632812 C 472.636719 196.632812 472.351562 196.917969 472.351562 197.277344 L 472.351562 205.226562 C 472.351562 205.5625 472.21875 205.867188 472.011719 206.085938 C 471.808594 206.296875 471.527344 206.429688 471.222656 206.429688 C 470.914062 206.429688 470.636719 206.296875 470.433594 206.085938 C 470.222656 205.867188 470.09375 205.5625 470.09375 205.226562 L 470.09375 196.035156 C 470.09375 195.273438 470.40625 194.582031 470.914062 194.082031 C 471.425781 193.578125 472.128906 193.265625 472.90625 193.265625 L 480.167969 193.265625 C 480.945312 193.265625 481.648438 193.578125 482.15625 194.082031 C 482.664062 194.582031 482.980469 195.273438 482.980469 196.035156 L 482.980469 200.179688 C 482.980469 200.179688 482.980469 200.183594 482.980469 200.183594 L 482.980469 205.226562 C 482.980469 205.5625 482.851562 205.867188 482.644531 206.085938 Z M 499.398438 191.308594 C 500.464844 191.308594 501.429688 190.859375 502.125 190.132812 C 502.816406 189.410156 503.246094 188.417969 503.246094 187.324219 C 503.246094 186.234375 502.816406 185.242188 502.125 184.519531 C 501.429688 183.792969 500.464844 183.34375 499.398438 183.34375 C 498.335938 183.34375 497.371094 183.792969 496.675781 184.523438 C 495.984375 185.242188 495.554688 186.234375 495.554688 187.328125 C 495.554688 188.417969 495.984375 189.410156 496.675781 190.132812 C 497.371094 190.859375 498.335938 191.308594 499.398438 191.308594 Z M 497.597656 185.410156 C 498.0625 184.929688 498.695312 184.632812 499.398438 184.632812 C 500.101562 184.632812 500.738281 184.929688 501.199219 185.410156 C 501.664062 185.898438 501.957031 186.574219 501.957031 187.324219 C 501.957031 188.078125 501.664062 188.753906 501.199219 189.242188 C 500.738281 189.722656 500.101562 190.019531 499.398438 190.019531 C 498.695312 190.019531 498.058594 189.722656 497.597656 189.242188 C 497.132812 188.753906 496.84375 188.078125 496.84375 187.324219 C 496.84375 186.574219 497.132812 185.898438 497.597656 185.410156 Z M 508.765625 203.457031 C 507.957031 200.617188 507.207031 197.40625 506.253906 194.652344 C 506.003906 193.921875 505.5625 193.285156 504.996094 192.816406 C 504.355469 192.292969 503.5625 191.976562 502.699219 191.976562 L 496.097656 191.976562 C 495.238281 191.976562 494.445312 192.292969 493.804688 192.816406 C 493.238281 193.285156 492.796875 193.917969 492.546875 194.652344 C 492.535156 194.675781 492.527344 194.699219 492.519531 194.722656 L 492.507812 194.765625 C 492.488281 194.828125 492.472656 194.886719 492.457031 194.945312 C 492.457031 194.949219 492.457031 194.949219 492.457031 194.953125 L 490.035156 203.457031 C 489.855469 204.089844 489.917969 204.75 490.160156 205.300781 C 490.414062 205.871094 490.863281 206.335938 491.445312 206.558594 C 491.503906 206.582031 491.5625 206.601562 491.621094 206.621094 C 491.917969 206.703125 492.21875 206.71875 492.507812 206.671875 L 491.710938 209.480469 C 491.613281 209.820312 491.8125 210.179688 492.152344 210.273438 C 492.210938 210.292969 492.269531 210.300781 492.328125 210.300781 L 495.214844 210.300781 L 495.214844 219.539062 C 495.214844 220.21875 495.480469 220.839844 495.914062 221.289062 C 496.355469 221.75 496.960938 222.03125 497.628906 222.03125 C 498.296875 222.03125 498.90625 221.746094 499.34375 221.289062 C 499.363281 221.269531 499.382812 221.246094 499.402344 221.226562 C 499.421875 221.246094 499.441406 221.269531 499.460938 221.289062 C 499.898438 221.746094 500.507812 222.03125 501.175781 222.03125 C 501.84375 222.03125 502.449219 221.746094 502.886719 221.289062 C 503.320312 220.835938 503.589844 220.21875 503.589844 219.539062 L 503.589844 210.296875 L 506.476562 210.296875 C 506.832031 210.296875 507.121094 210.011719 507.121094 209.65625 C 507.121094 209.582031 507.109375 209.511719 507.085938 209.445312 L 506.292969 206.667969 C 506.585938 206.714844 506.882812 206.703125 507.183594 206.617188 C 507.238281 206.597656 507.296875 206.578125 507.351562 206.558594 C 507.9375 206.335938 508.390625 205.871094 508.640625 205.296875 C 508.882812 204.75 508.945312 204.089844 508.765625 203.457031 Z M 498.417969 220.402344 C 498.214844 220.613281 497.933594 220.746094 497.628906 220.746094 C 497.324219 220.746094 497.042969 220.613281 496.839844 220.402344 C 496.632812 220.183594 496.5 219.878906 496.5 219.542969 L 496.5 210.300781 L 498.757812 210.300781 L 498.757812 219.542969 C 498.757812 219.878906 498.625 220.183594 498.417969 220.402344 Z M 502.300781 219.542969 C 502.300781 219.878906 502.167969 220.183594 501.960938 220.402344 C 501.757812 220.613281 501.476562 220.746094 501.171875 220.746094 C 500.867188 220.746094 500.585938 220.613281 500.382812 220.402344 C 500.171875 220.183594 500.042969 219.878906 500.042969 219.542969 L 500.042969 210.300781 L 502.300781 210.300781 Z M 507.460938 204.785156 C 507.34375 205.054688 507.140625 205.269531 506.890625 205.363281 L 506.828125 205.382812 C 506.617188 205.441406 506.402344 205.40625 506.214844 205.304688 C 506.011719 205.1875 505.835938 204.980469 505.738281 204.714844 C 505.730469 204.691406 505.722656 204.664062 505.714844 204.640625 L 503.550781 197.046875 C 503.480469 196.792969 503.261719 196.617188 503.011719 196.585938 C 502.929688 196.574219 502.84375 196.582031 502.757812 196.605469 C 502.417969 196.703125 502.21875 197.058594 502.316406 197.398438 C 503.007812 199.832031 503.660156 202.5625 504.464844 204.945312 L 505.621094 209.011719 L 493.179688 209.011719 L 494.335938 204.945312 C 495.140625 202.5625 495.792969 199.835938 496.484375 197.398438 C 496.582031 197.058594 496.382812 196.703125 496.042969 196.605469 C 495.699219 196.507812 495.34375 196.707031 495.246094 197.046875 L 493.085938 204.640625 C 493.078125 204.664062 493.070312 204.6875 493.0625 204.714844 C 492.964844 204.980469 492.789062 205.183594 492.582031 205.300781 C 492.398438 205.40625 492.179688 205.441406 491.972656 205.382812 L 491.90625 205.363281 C 491.65625 205.269531 491.457031 205.054688 491.339844 204.78125 C 491.210938 204.492188 491.175781 204.144531 491.273438 203.808594 L 493.757812 195.070312 C 493.757812 195.070312 493.761719 195.070312 493.761719 195.066406 C 493.933594 194.5625 494.234375 194.125 494.621094 193.804688 C 495.03125 193.464844 495.546875 193.265625 496.101562 193.265625 L 502.703125 193.265625 C 503.257812 193.265625 503.769531 193.464844 504.183594 193.804688 C 504.566406 194.121094 504.867188 194.554688 505.039062 195.054688 L 507.53125 203.808594 C 507.621094 204.144531 507.589844 204.492188 507.460938 204.785156 Z M 488.542969 183.988281 L 488.542969 221.390625 C 488.542969 221.746094 488.253906 222.035156 487.898438 222.035156 C 487.542969 222.035156 487.253906 221.746094 487.253906 221.390625 L 487.253906 183.988281 C 487.253906 183.632812 487.542969 183.34375 487.898438 183.34375 C 488.253906 183.34375 488.542969 183.632812 488.542969 183.988281 Z M 488.542969 183.988281 " fill-opacity="1" fill-rule="nonzero"/></g><g clip-path="url(#5c5b6faca1)"><g transform="matrix(1, 0, 0, 1, 400, 228)"><g clip-path="url(#89faea33cf)"><g clip-path="url(#50908f02ca)"><path fill="#d50b2e" d="M 26.285156 88.78125 L 26.285156 84.1875 L 15.03125 84.1875 C 14.820312 84.1875 14.613281 84.148438 14.417969 84.066406 C 14.222656 83.984375 14.046875 83.867188 13.894531 83.71875 C 13.746094 83.566406 13.628906 83.394531 13.546875 83.195312 C 13.464844 83 13.425781 82.792969 13.425781 82.582031 L 13.425781 77.835938 L 2.175781 77.835938 C 1.960938 77.835938 1.753906 77.792969 1.558594 77.710938 C 1.363281 77.628906 1.1875 77.515625 1.039062 77.363281 C 0.886719 77.214844 0.769531 77.039062 0.6875 76.84375 C 0.605469 76.644531 0.566406 76.441406 0.566406 76.226562 L 0.566406 14.535156 C 0.566406 14.320312 0.605469 14.117188 0.6875 13.917969 C 0.769531 13.722656 0.886719 13.550781 1.039062 13.398438 C 1.1875 13.246094 1.363281 13.132812 1.558594 13.050781 C 1.753906 12.96875 1.960938 12.925781 2.175781 12.925781 L 13.425781 12.925781 L 13.425781 8.179688 C 13.425781 7.96875 13.464844 7.761719 13.546875 7.566406 C 13.628906 7.367188 13.746094 7.195312 13.894531 7.042969 C 14.046875 6.894531 14.222656 6.777344 14.417969 6.695312 C 14.613281 6.613281 14.820312 6.574219 15.03125 6.574219 L 26.285156 6.574219 L 26.285156 1.980469 C 26.285156 1.769531 26.324219 1.5625 26.40625 1.367188 C 26.488281 1.167969 26.605469 0.996094 26.753906 0.84375 C 26.90625 0.695312 27.082031 0.578125 27.277344 0.496094 C 27.472656 0.414062 27.679688 0.375 27.890625 0.375 L 40.75 0.375 C 40.964844 0.375 41.171875 0.414062 41.367188 0.496094 C 41.5625 0.578125 41.738281 0.695312 41.886719 0.84375 C 42.039062 0.996094 42.15625 1.167969 42.238281 1.367188 C 42.320312 1.5625 42.359375 1.769531 42.359375 1.980469 L 42.359375 88.78125 C 42.359375 88.996094 42.320312 89.199219 42.238281 89.394531 C 42.15625 89.59375 42.039062 89.765625 41.886719 89.917969 C 41.738281 90.070312 41.5625 90.183594 41.367188 90.265625 C 41.171875 90.347656 40.964844 90.386719 40.75 90.386719 L 27.890625 90.386719 C 27.679688 90.386719 27.472656 90.347656 27.277344 90.265625 C 27.082031 90.183594 26.90625 90.070312 26.753906 89.917969 C 26.605469 89.765625 26.488281 89.59375 26.40625 89.394531 C 26.324219 89.199219 26.285156 88.996094 26.285156 88.78125 Z M 3.78125 16.140625 L 3.78125 74.621094 L 13.425781 74.621094 L 13.425781 16.140625 Z M 16.640625 9.789062 L 16.640625 80.972656 L 26.285156 80.972656 L 26.285156 9.789062 Z M 39.144531 87.171875 L 39.144531 3.589844 L 29.5 3.589844 L 29.5 87.171875 Z M 39.144531 87.171875 " fill-opacity="1" fill-rule="nonzero"/></g></g></g></g><g clip-path="url(#a840131a35)"><g transform="matrix(1, 0, 0, 1, 202, 363)"><g clip-path="url(#079feadee8)"><g clip-path="url(#c5b86b146c)"><path fill="#d50b2e" d="M 0.621094 0.0664062 L 56.421875 0.0664062 L 56.421875 79.625 L 0.621094 79.625 Z M 0.621094 0.0664062 " fill-opacity="1" fill-rule="nonzero"/></g></g></g></g><path fill="#ffffff" d="M 246.640625 428.882812 L 217.347656 428.882812 C 217.214844 428.882812 217.085938 428.855469 216.964844 428.804688 C 216.84375 428.753906 216.734375 428.679688 216.640625 428.585938 C 216.546875 428.492188 216.472656 428.382812 216.421875 428.261719 C 216.371094 428.140625 216.34375 428.011719 216.34375 427.878906 L 216.34375 390.894531 C 216.34375 390.761719 216.371094 390.636719 216.421875 390.511719 C 216.472656 390.390625 216.546875 390.28125 216.640625 390.1875 C 216.734375 390.09375 216.84375 390.019531 216.964844 389.96875 C 217.085938 389.917969 217.214844 389.894531 217.347656 389.894531 L 246.640625 389.894531 C 246.773438 389.894531 246.898438 389.917969 247.023438 389.96875 C 247.144531 390.019531 247.253906 390.09375 247.347656 390.1875 C 247.441406 390.28125 247.515625 390.390625 247.566406 390.511719 C 247.617188 390.636719 247.644531 390.761719 247.644531 390.894531 L 247.644531 427.878906 C 247.644531 428.011719 247.617188 428.140625 247.566406 428.261719 C 247.515625 428.382812 247.441406 428.492188 247.347656 428.585938 C 247.253906 428.679688 247.144531 428.753906 247.023438 428.804688 C 246.898438 428.855469 246.773438 428.882812 246.640625 428.882812 Z M 218.351562 426.875 L 245.636719 426.875 L 245.636719 391.898438 L 218.351562 391.898438 Z M 218.351562 426.875 " fill-opacity="1" fill-rule="nonzero"/><path fill="#ffffff" d="M 231.992188 428.882812 C 231.859375 428.882812 231.730469 428.855469 231.609375 428.804688 C 231.484375 428.753906 231.378906 428.679688 231.28125 428.585938 C 231.1875 428.492188 231.117188 428.382812 231.066406 428.261719 C 231.015625 428.140625 230.988281 428.011719 230.988281 427.878906 L 230.988281 390.894531 C 230.988281 390.761719 231.015625 390.636719 231.066406 390.511719 C 231.117188 390.390625 231.1875 390.28125 231.28125 390.1875 C 231.378906 390.09375 231.484375 390.019531 231.609375 389.96875 C 231.730469 389.917969 231.859375 389.894531 231.992188 389.894531 C 232.125 389.894531 232.253906 389.917969 232.375 389.96875 C 232.5 390.019531 232.609375 390.09375 232.703125 390.1875 C 232.796875 390.28125 232.867188 390.390625 232.917969 390.511719 C 232.972656 390.636719 232.996094 390.761719 232.996094 390.894531 L 232.996094 427.878906 C 232.996094 428.011719 232.972656 428.140625 232.917969 428.261719 C 232.867188 428.382812 232.796875 428.492188 232.703125 428.585938 C 232.609375 428.679688 232.5 428.753906 232.375 428.804688 C 232.253906 428.855469 232.125 428.882812 231.992188 428.882812 Z M 231.992188 428.882812 " fill-opacity="1" fill-rule="nonzero"/><path fill="#ffffff" d="M 224.667969 415.890625 C 224.535156 415.890625 224.410156 415.863281 224.285156 415.8125 C 224.164062 415.761719 224.054688 415.691406 223.960938 415.597656 C 223.867188 415.503906 223.792969 415.394531 223.742188 415.269531 C 223.691406 415.148438 223.667969 415.019531 223.667969 414.886719 L 223.667969 403.886719 C 223.667969 403.753906 223.691406 403.625 223.742188 403.503906 C 223.792969 403.378906 223.867188 403.269531 223.960938 403.175781 C 224.054688 403.082031 224.164062 403.011719 224.285156 402.957031 C 224.410156 402.90625 224.535156 402.882812 224.667969 402.882812 C 224.800781 402.882812 224.929688 402.90625 225.054688 402.957031 C 225.175781 403.011719 225.285156 403.082031 225.378906 403.175781 C 225.472656 403.269531 225.546875 403.378906 225.597656 403.503906 C 225.648438 403.625 225.671875 403.753906 225.671875 403.886719 L 225.671875 414.886719 C 225.671875 415.019531 225.648438 415.148438 225.597656 415.269531 C 225.546875 415.394531 225.472656 415.503906 225.378906 415.597656 C 225.285156 415.691406 225.175781 415.761719 225.054688 415.8125 C 224.929688 415.863281 224.800781 415.890625 224.667969 415.890625 Z M 224.667969 415.890625 " fill-opacity="1" fill-rule="nonzero"/><path fill="#ffffff" d="M 224.667969 415.890625 C 224.398438 415.890625 224.164062 415.796875 223.96875 415.605469 L 221.296875 413.003906 C 221.199219 412.914062 221.125 412.804688 221.074219 412.683594 C 221.019531 412.558594 220.992188 412.433594 220.988281 412.296875 C 220.988281 412.164062 221.011719 412.035156 221.058594 411.910156 C 221.109375 411.789062 221.179688 411.675781 221.273438 411.582031 C 221.367188 411.484375 221.476562 411.410156 221.597656 411.359375 C 221.71875 411.308594 221.847656 411.28125 221.980469 411.277344 C 222.117188 411.277344 222.246094 411.300781 222.367188 411.351562 C 222.492188 411.402344 222.601562 411.472656 222.695312 411.566406 L 225.371094 414.167969 C 225.515625 414.3125 225.609375 414.480469 225.652344 414.683594 C 225.695312 414.882812 225.675781 415.078125 225.597656 415.265625 C 225.523438 415.453125 225.398438 415.605469 225.230469 415.71875 C 225.0625 415.835938 224.875 415.890625 224.667969 415.890625 Z M 224.667969 415.890625 " fill-opacity="1" fill-rule="nonzero"/><path fill="#ffffff" d="M 224.667969 415.890625 C 224.464844 415.890625 224.277344 415.835938 224.109375 415.71875 C 223.941406 415.605469 223.816406 415.453125 223.738281 415.265625 C 223.664062 415.078125 223.644531 414.882812 223.6875 414.683594 C 223.730469 414.480469 223.824219 414.3125 223.96875 414.167969 L 226.640625 411.566406 C 226.738281 411.46875 226.847656 411.394531 226.972656 411.34375 C 227.09375 411.292969 227.226562 411.265625 227.359375 411.265625 C 227.496094 411.265625 227.625 411.292969 227.75 411.347656 C 227.875 411.398438 227.984375 411.472656 228.078125 411.570312 C 228.171875 411.667969 228.242188 411.777344 228.292969 411.90625 C 228.339844 412.03125 228.363281 412.160156 228.359375 412.296875 C 228.355469 412.429688 228.328125 412.558594 228.273438 412.683594 C 228.21875 412.804688 228.140625 412.914062 228.042969 413.003906 L 225.371094 415.605469 C 225.175781 415.796875 224.941406 415.890625 224.667969 415.890625 Z M 224.667969 415.890625 " fill-opacity="1" fill-rule="nonzero"/><path fill="#ffffff" d="M 239.316406 415.890625 C 239.183594 415.890625 239.054688 415.867188 238.933594 415.816406 C 238.808594 415.765625 238.699219 415.691406 238.605469 415.597656 C 238.511719 415.503906 238.441406 415.394531 238.390625 415.273438 C 238.339844 415.148438 238.3125 415.019531 238.3125 414.886719 L 238.3125 403.886719 C 238.3125 403.753906 238.339844 403.625 238.390625 403.503906 C 238.441406 403.378906 238.511719 403.269531 238.605469 403.175781 C 238.699219 403.082031 238.808594 403.011719 238.933594 402.957031 C 239.054688 402.90625 239.183594 402.882812 239.316406 402.882812 C 239.449219 402.882812 239.578125 402.90625 239.699219 402.957031 C 239.824219 403.011719 239.933594 403.082031 240.027344 403.175781 C 240.121094 403.269531 240.191406 403.378906 240.242188 403.503906 C 240.292969 403.625 240.320312 403.753906 240.320312 403.886719 L 240.320312 414.886719 C 240.320312 415.019531 240.292969 415.148438 240.242188 415.273438 C 240.191406 415.394531 240.121094 415.503906 240.027344 415.597656 C 239.933594 415.691406 239.824219 415.765625 239.699219 415.816406 C 239.578125 415.867188 239.449219 415.890625 239.316406 415.890625 Z M 239.316406 415.890625 " fill-opacity="1" fill-rule="nonzero"/><path fill="#ffffff" d="M 236.644531 407.492188 C 236.4375 407.492188 236.25 407.4375 236.082031 407.324219 C 235.910156 407.207031 235.789062 407.058594 235.710938 406.867188 C 235.636719 406.675781 235.617188 406.484375 235.660156 406.28125 C 235.703125 406.082031 235.796875 405.910156 235.945312 405.769531 L 238.617188 403.167969 C 238.710938 403.074219 238.820312 403 238.945312 402.949219 C 239.070312 402.902344 239.195312 402.875 239.332031 402.878906 C 239.464844 402.878906 239.59375 402.90625 239.714844 402.957031 C 239.839844 403.011719 239.945312 403.085938 240.039062 403.179688 C 240.132812 403.277344 240.203125 403.386719 240.253906 403.511719 C 240.300781 403.636719 240.324219 403.765625 240.324219 403.898438 C 240.320312 404.03125 240.292969 404.160156 240.238281 404.28125 C 240.1875 404.402344 240.113281 404.511719 240.015625 404.605469 L 237.34375 407.207031 C 237.148438 407.398438 236.914062 407.492188 236.644531 407.492188 Z M 236.644531 407.492188 " fill-opacity="1" fill-rule="nonzero"/><path fill="#ffffff" d="M 241.988281 407.492188 C 241.714844 407.492188 241.484375 407.398438 241.289062 407.210938 L 238.617188 404.605469 C 238.519531 404.511719 238.445312 404.40625 238.394531 404.28125 C 238.339844 404.160156 238.3125 404.03125 238.3125 403.898438 C 238.308594 403.765625 238.335938 403.636719 238.382812 403.515625 C 238.433594 403.390625 238.503906 403.28125 238.597656 403.183594 C 238.6875 403.089844 238.796875 403.015625 238.917969 402.964844 C 239.042969 402.910156 239.167969 402.882812 239.300781 402.882812 C 239.433594 402.878906 239.5625 402.902344 239.6875 402.953125 C 239.8125 403.003906 239.921875 403.074219 240.015625 403.167969 L 242.6875 405.769531 C 242.835938 405.910156 242.929688 406.082031 242.972656 406.28125 C 243.015625 406.484375 243 406.679688 242.921875 406.867188 C 242.84375 407.058594 242.722656 407.210938 242.550781 407.324219 C 242.378906 407.4375 242.191406 407.496094 241.988281 407.492188 Z M 241.988281 407.492188 " fill-opacity="1" fill-rule="nonzero"/><path fill="#ffffff" d="M 241.988281 391.898438 L 221.996094 391.898438 C 221.863281 391.898438 221.734375 391.875 221.613281 391.824219 C 221.488281 391.773438 221.382812 391.699219 221.289062 391.605469 C 221.195312 391.511719 221.121094 391.402344 221.070312 391.28125 C 221.019531 391.15625 220.992188 391.027344 220.992188 390.894531 L 220.992188 384.957031 C 220.992188 384.824219 221.019531 384.695312 221.070312 384.574219 C 221.121094 384.449219 221.195312 384.339844 221.289062 384.246094 C 221.382812 384.152344 221.488281 384.082031 221.613281 384.03125 C 221.734375 383.976562 221.863281 383.953125 221.996094 383.953125 L 241.988281 383.953125 C 242.121094 383.953125 242.25 383.976562 242.375 384.03125 C 242.496094 384.082031 242.605469 384.152344 242.699219 384.246094 C 242.792969 384.339844 242.867188 384.449219 242.917969 384.574219 C 242.96875 384.695312 242.992188 384.824219 242.992188 384.957031 L 242.992188 390.894531 C 242.992188 391.027344 242.96875 391.15625 242.917969 391.28125 C 242.867188 391.402344 242.792969 391.511719 242.699219 391.605469 C 242.605469 391.699219 242.496094 391.773438 242.375 391.824219 C 242.25 391.875 242.121094 391.898438 241.988281 391.898438 Z M 223 389.894531 L 240.984375 389.894531 L 240.984375 385.960938 L 223 385.960938 Z M 223 389.894531 " fill-opacity="1" fill-rule="nonzero"/><path fill="#ffffff" d="M 226.835938 389.089844 C 226.703125 389.089844 226.574219 389.066406 226.453125 389.015625 C 226.328125 388.964844 226.222656 388.890625 226.125 388.796875 C 226.03125 388.703125 225.960938 388.59375 225.910156 388.472656 C 225.859375 388.347656 225.832031 388.222656 225.832031 388.089844 L 225.832031 387.765625 C 225.832031 387.628906 225.859375 387.503906 225.910156 387.378906 C 225.960938 387.257812 226.03125 387.148438 226.125 387.054688 C 226.222656 386.960938 226.328125 386.886719 226.453125 386.835938 C 226.574219 386.785156 226.703125 386.761719 226.835938 386.761719 C 226.96875 386.761719 227.097656 386.785156 227.21875 386.835938 C 227.34375 386.886719 227.453125 386.960938 227.546875 387.054688 C 227.640625 387.148438 227.710938 387.257812 227.765625 387.378906 C 227.816406 387.503906 227.839844 387.628906 227.839844 387.765625 L 227.839844 388.089844 C 227.839844 388.222656 227.816406 388.347656 227.765625 388.472656 C 227.710938 388.59375 227.640625 388.703125 227.546875 388.796875 C 227.453125 388.890625 227.34375 388.964844 227.21875 389.015625 C 227.097656 389.066406 226.96875 389.089844 226.835938 389.089844 Z M 226.835938 389.089844 " fill-opacity="1" fill-rule="nonzero"/><path fill="#ffffff" d="M 237.148438 389.089844 C 237.015625 389.089844 236.886719 389.066406 236.765625 389.015625 C 236.640625 388.964844 236.535156 388.890625 236.4375 388.796875 C 236.34375 388.703125 236.273438 388.59375 236.222656 388.472656 C 236.171875 388.347656 236.144531 388.222656 236.144531 388.089844 L 236.144531 387.765625 C 236.144531 387.628906 236.171875 387.503906 236.222656 387.378906 C 236.273438 387.257812 236.34375 387.148438 236.4375 387.054688 C 236.535156 386.960938 236.640625 386.886719 236.765625 386.835938 C 236.886719 386.785156 237.015625 386.761719 237.148438 386.761719 C 237.28125 386.761719 237.410156 386.785156 237.53125 386.835938 C 237.65625 386.886719 237.765625 386.960938 237.859375 387.054688 C 237.953125 387.148438 238.023438 387.257812 238.074219 387.378906 C 238.128906 387.503906 238.152344 387.628906 238.152344 387.765625 L 238.152344 388.089844 C 238.152344 388.222656 238.128906 388.347656 238.074219 388.472656 C 238.023438 388.59375 237.953125 388.703125 237.859375 388.796875 C 237.765625 388.890625 237.65625 388.964844 237.53125 389.015625 C 237.410156 389.066406 237.28125 389.089844 237.148438 389.089844 Z M 237.148438 389.089844 " fill-opacity="1" fill-rule="nonzero"/><g clip-path="url(#066bf4aa6d)"><path fill="#ffffff" d="M 253.441406 428.882812 L 210.542969 428.882812 C 210.410156 428.882812 210.28125 428.855469 210.160156 428.804688 C 210.035156 428.753906 209.925781 428.679688 209.832031 428.585938 C 209.738281 428.492188 209.667969 428.382812 209.617188 428.261719 C 209.566406 428.140625 209.539062 428.011719 209.539062 427.878906 L 209.539062 377.703125 C 209.539062 377.570312 209.566406 377.441406 209.617188 377.316406 C 209.667969 377.195312 209.738281 377.085938 209.832031 376.992188 C 209.925781 376.898438 210.035156 376.824219 210.160156 376.773438 C 210.28125 376.722656 210.410156 376.699219 210.542969 376.699219 L 253.441406 376.699219 C 253.574219 376.699219 253.703125 376.722656 253.828125 376.773438 C 253.949219 376.824219 254.058594 376.898438 254.152344 376.992188 C 254.246094 377.085938 254.320312 377.195312 254.371094 377.316406 C 254.421875 377.441406 254.445312 377.570312 254.445312 377.703125 L 254.445312 427.878906 C 254.445312 428.011719 254.421875 428.140625 254.371094 428.261719 C 254.320312 428.382812 254.246094 428.492188 254.152344 428.585938 C 254.058594 428.679688 253.949219 428.753906 253.828125 428.804688 C 253.703125 428.855469 253.574219 428.882812 253.441406 428.882812 Z M 211.546875 426.875 L 252.4375 426.875 L 252.4375 378.707031 L 211.546875 378.707031 Z M 211.546875 426.875 " fill-opacity="1" fill-rule="nonzero"/></g><g clip-path="url(#68cb48545b)"><path fill="#d50b2e" d="M 343.324219 442.339844 C 340.902344 436.617188 337.4375 431.476562 333.023438 427.0625 C 328.609375 422.648438 323.46875 419.179688 317.742188 416.757812 C 311.816406 414.253906 305.523438 412.980469 299.03125 412.980469 L 297.9375 412.980469 L 297.9375 462.144531 L 300.128906 462.144531 L 300.128906 415.183594 C 324.558594 415.761719 344.324219 435.523438 344.898438 459.953125 L 344.898438 462.144531 L 347.101562 462.144531 L 347.101562 461.050781 C 347.101562 454.5625 345.832031 448.265625 343.324219 442.339844 " fill-opacity="1" fill-rule="nonzero"/></g><g clip-path="url(#08f83f1c8f)"><path fill="#d50b2e" d="M 299.035156 462.144531 L 288.953125 462.144531 L 288.953125 459.953125 L 299.035156 459.953125 L 299.035156 462.144531 " fill-opacity="1" fill-rule="nonzero"/></g><g clip-path="url(#dca1f662ca)"><path fill="#d50b2e" d="M 356.085938 462.144531 L 346.007812 462.144531 L 346.007812 459.953125 L 356.085938 459.953125 L 356.085938 462.144531 " fill-opacity="1" fill-rule="nonzero"/></g><g clip-path="url(#69e12c0f94)"><g transform="matrix(1, 0, 0, 1, 300, 457)"><g clip-path="url(#1105f8550b)"><g clip-path="url(#94bafe7d22)"><path fill="#ffffff" d="M 0.117188 9.5625 L 0.117188 0.734375 L 44.925781 0.734375 L 44.925781 9.5625 Z M 0.117188 9.5625 " fill-opacity="1" fill-rule="nonzero"/></g></g></g></g><g clip-path="url(#556174f734)"><g transform="matrix(1, 0, 0, 1, 202, 482)"><g clip-path="url(#f2b4cda71e)"><g clip-path="url(#2f662458e9)"><path fill="#d50b2e" d="M 0.566406 0.804688 L 47.679688 0.804688 L 47.679688 156.316406 L 0.566406 156.316406 Z M 0.566406 0.804688 " fill-opacity="1" fill-rule="nonzero"/></g></g></g></g><g clip-path="url(#beb6b8837e)"><g transform="matrix(1, 0, 0, 1, 395, 482)"><g clip-path="url(#ce0f45b9ec)"><g clip-path="url(#0cd2b67ccf)"><path fill="#d50b2e" d="M 0.253906 0.804688 L 47.367188 0.804688 L 47.367188 156.316406 L 0.253906 156.316406 Z M 0.253906 0.804688 " fill-opacity="1" fill-rule="nonzero"/></g></g></g></g></svg>