<svg xmlns="http://www.w3.org/2000/svg" xmlns:xlink="http://www.w3.org/1999/xlink" width="861" zoomAndPan="magnify" viewBox="0 0 645.75 661.499985" height="882" preserveAspectRatio="xMidYMid meet" version="1.0"><defs><g/><clipPath id="7b3548f7e4"><path d="M 0.117188 0 L 645.382812 0 L 645.382812 661 L 0.117188 661 Z M 0.117188 0 " clip-rule="nonzero"/></clipPath><clipPath id="07c533ec7d"><path d="M 202.566406 224.761719 L 442.367188 224.761719 L 442.367188 660.277344 L 202.566406 660.277344 Z M 202.566406 224.761719 " clip-rule="nonzero"/></clipPath><clipPath id="77576d4857"><path d="M 0.566406 0.761719 L 240.367188 0.761719 L 240.367188 436.277344 L 0.566406 436.277344 Z M 0.566406 0.761719 " clip-rule="nonzero"/></clipPath><clipPath id="62a8ec2c2d"><rect x="0" width="241" y="0" height="437"/></clipPath><clipPath id="defe194ce9"><path d="M 202.566406 224.761719 L 442.363281 224.761719 L 442.363281 660.179688 L 202.566406 660.179688 Z M 202.566406 224.761719 " clip-rule="nonzero"/></clipPath><clipPath id="b6b2f99542"><path d="M 0.117188 0.0390625 L 644.808594 0.0390625 L 644.808594 228.316406 L 0.117188 228.316406 Z M 0.117188 0.0390625 " clip-rule="nonzero"/></clipPath><clipPath id="bba213577e"><path d="M 0.117188 0.0390625 L 644.808594 0.0390625 L 644.808594 228.316406 L 0.117188 228.316406 Z M 0.117188 0.0390625 " clip-rule="nonzero"/></clipPath><clipPath id="fcab97570c"><rect x="0" width="645" y="0" height="229"/></clipPath><clipPath id="c1c97003e5"><path d="M 0.296875 0.0390625 L 644.808594 0.0390625 L 644.808594 228.3125 L 0.296875 228.3125 Z M 0.296875 0.0390625 " clip-rule="nonzero"/></clipPath><clipPath id="c7708bf9bb"><path d="M 202.566406 226.25 L 442.367188 226.25 L 442.367188 462.152344 L 202.566406 462.152344 Z M 202.566406 226.25 " clip-rule="nonzero"/></clipPath><clipPath id="af6446eb59"><path d="M 0.566406 0.25 L 240.367188 0.25 L 240.367188 236.152344 L 0.566406 236.152344 Z M 0.566406 0.25 " clip-rule="nonzero"/></clipPath><clipPath id="018c0f219a"><rect x="0" width="241" y="0" height="237"/></clipPath><clipPath id="354885b7db"><path d="M 202.566406 226.25 L 442.359375 226.25 L 442.359375 462.144531 L 202.566406 462.144531 Z M 202.566406 226.25 " clip-rule="nonzero"/></clipPath><clipPath id="388ce361d4"><path d="M 30.3125 0.0351562 L 209.542969 0.0351562 L 209.542969 47.148438 L 30.3125 47.148438 Z M 30.3125 0.0351562 " clip-rule="nonzero"/></clipPath><clipPath id="1416e0be2f"><path d="M 0.3125 0.0351562 L 179.542969 0.0351562 L 179.542969 47.148438 L 0.3125 47.148438 Z M 0.3125 0.0351562 " clip-rule="nonzero"/></clipPath><clipPath id="7e115972ec"><rect x="0" width="180" y="0" height="48"/></clipPath><clipPath id="2c74a1cd09"><path d="M 435.398438 0 L 614.625 0 L 614.625 47.109375 L 435.398438 47.109375 Z M 435.398438 0 " clip-rule="nonzero"/></clipPath><clipPath id="cb79c50fa3"><path d="M 0.398438 0 L 179.625 0 L 179.625 47.109375 L 0.398438 47.109375 Z M 0.398438 0 " clip-rule="nonzero"/></clipPath><clipPath id="cb0f5b2758"><rect x="0" width="180" y="0" height="48"/></clipPath><clipPath id="9ab74b705e"><path d="M 230.523438 0 L 414.410156 0 L 414.410156 47.109375 L 230.523438 47.109375 Z M 230.523438 0 " clip-rule="nonzero"/></clipPath><clipPath id="235f3cc714"><path d="M 0.523438 0 L 184.410156 0 L 184.410156 47.109375 L 0.523438 47.109375 Z M 0.523438 0 " clip-rule="nonzero"/></clipPath><clipPath id="da923b8a28"><rect x="0" width="185" y="0" height="48"/></clipPath><clipPath id="3c37119299"><path d="M 535.394531 177.066406 L 614.847656 177.066406 L 614.847656 226.246094 L 535.394531 226.246094 Z M 535.394531 177.066406 " clip-rule="nonzero"/></clipPath><clipPath id="3fcc0dc74a"><path d="M 0.394531 0.0664062 L 79.847656 0.0664062 L 79.847656 49.246094 L 0.394531 49.246094 Z M 0.394531 0.0664062 " clip-rule="nonzero"/></clipPath><clipPath id="c5f7a06937"><rect x="0" width="80" y="0" height="50"/></clipPath><clipPath id="827167cf9e"><path d="M 452.859375 177.058594 L 524.90625 177.058594 L 524.90625 226.238281 L 452.859375 226.238281 Z M 452.859375 177.058594 " clip-rule="nonzero"/></clipPath><clipPath id="c6c17ee3b0"><path d="M 0.859375 0.0585938 L 72.90625 0.0585938 L 72.90625 49.238281 L 0.859375 49.238281 Z M 0.859375 0.0585938 " clip-rule="nonzero"/></clipPath><clipPath id="7f2427936f"><rect x="0" width="73" y="0" height="50"/></clipPath><clipPath id="2b371dfedb"><path d="M 300.117188 221.832031 L 344.9375 221.832031 L 344.9375 230.660156 L 300.117188 230.660156 Z M 300.117188 221.832031 " clip-rule="nonzero"/></clipPath><clipPath id="b6623d7e73"><path d="M 0.117188 0.832031 L 44.9375 0.832031 L 44.9375 9.660156 L 0.117188 9.660156 Z M 0.117188 0.832031 " clip-rule="nonzero"/></clipPath><clipPath id="4bd70a7fdd"><rect x="0" width="45" y="0" height="10"/></clipPath><clipPath id="b8ffed50ad"><path d="M 288.953125 226.25 L 356.402344 226.25 L 356.402344 275.710938 L 288.953125 275.710938 Z M 288.953125 226.25 " clip-rule="nonzero"/></clipPath><clipPath id="d605525949"><path d="M 9 0.25 L 60 0.25 L 60 49.421875 L 9 49.421875 Z M 9 0.25 " clip-rule="nonzero"/></clipPath><clipPath id="c4a4eaef8b"><path d="M 0.953125 0.25 L 12 0.25 L 12 3 L 0.953125 3 Z M 0.953125 0.25 " clip-rule="nonzero"/></clipPath><clipPath id="601765050c"><path d="M 58 0.25 L 68.25 0.25 L 68.25 3 L 58 3 Z M 58 0.25 " clip-rule="nonzero"/></clipPath><clipPath id="676b6d5e9e"><rect x="0" width="69" y="0" height="50"/></clipPath><clipPath id="840c66b3d8"><path d="M 30.308594 179.132812 L 192.074219 179.132812 L 192.074219 226.246094 L 30.308594 226.246094 Z M 30.308594 179.132812 " clip-rule="nonzero"/></clipPath><clipPath id="326f761d66"><path d="M 0.308594 0.132812 L 162.074219 0.132812 L 162.074219 47.246094 L 0.308594 47.246094 Z M 0.308594 0.132812 " clip-rule="nonzero"/></clipPath><clipPath id="78a340b300"><rect x="0" width="163" y="0" height="48"/></clipPath><clipPath id="003de3a344"><path d="M 468.765625 183.34375 L 509 183.34375 L 509 222.316406 L 468.765625 222.316406 Z M 468.765625 183.34375 " clip-rule="nonzero"/></clipPath><clipPath id="3aada91382"><path d="M 400.566406 228.515625 L 442.535156 228.515625 L 442.535156 318.445312 L 400.566406 318.445312 Z M 400.566406 228.515625 " clip-rule="nonzero"/></clipPath><clipPath id="be1c9a991b"><path d="M 0.566406 0.515625 L 42.535156 0.515625 L 42.535156 90.246094 L 0.566406 90.246094 Z M 0.566406 0.515625 " clip-rule="nonzero"/></clipPath><clipPath id="c96230889a"><rect x="0" width="43" y="0" height="91"/></clipPath><clipPath id="2ad36d28ab"><path d="M 297 412.972656 L 348 412.972656 L 348 462.433594 L 297 462.433594 Z M 297 412.972656 " clip-rule="nonzero"/></clipPath><clipPath id="7504dbad51"><path d="M 288.953125 459 L 300 459 L 300 462.433594 L 288.953125 462.433594 Z M 288.953125 459 " clip-rule="nonzero"/></clipPath><clipPath id="762ea2d6ac"><path d="M 346 459 L 356.402344 459 L 356.402344 462.433594 L 346 462.433594 Z M 346 459 " clip-rule="nonzero"/></clipPath><clipPath id="38b5239404"><path d="M 300.117188 457.734375 L 344.9375 457.734375 L 344.9375 466.5625 L 300.117188 466.5625 Z M 300.117188 457.734375 " clip-rule="nonzero"/></clipPath><clipPath id="c48a167eec"><path d="M 0.117188 0.734375 L 44.9375 0.734375 L 44.9375 9.5625 L 0.117188 9.5625 Z M 0.117188 0.734375 " clip-rule="nonzero"/></clipPath><clipPath id="bf3b825da5"><rect x="0" width="45" y="0" height="10"/></clipPath><clipPath id="083d58044e"><path d="M 202.566406 482.804688 L 249.679688 482.804688 L 249.679688 638.296875 L 202.566406 638.296875 Z M 202.566406 482.804688 " clip-rule="nonzero"/></clipPath><clipPath id="820232ed23"><path d="M 0.566406 0.804688 L 47.679688 0.804688 L 47.679688 156.296875 L 0.566406 156.296875 Z M 0.566406 0.804688 " clip-rule="nonzero"/></clipPath><clipPath id="e76089be61"><rect x="0" width="48" y="0" height="157"/></clipPath><clipPath id="654776941f"><path d="M 395.253906 482.804688 L 442.367188 482.804688 L 442.367188 638.296875 L 395.253906 638.296875 Z M 395.253906 482.804688 " clip-rule="nonzero"/></clipPath><clipPath id="c81a8e103a"><path d="M 0.253906 0.804688 L 47.367188 0.804688 L 47.367188 156.296875 L 0.253906 156.296875 Z M 0.253906 0.804688 " clip-rule="nonzero"/></clipPath><clipPath id="f669ca3cfa"><rect x="0" width="48" y="0" height="157"/></clipPath><clipPath id="c3cdcf76fd"><path d="M 202.566406 462.152344 L 442.367188 462.152344 L 442.367188 660.277344 L 202.566406 660.277344 Z M 202.566406 462.152344 " clip-rule="nonzero"/></clipPath><clipPath id="69c561f5cc"><path d="M 0.566406 0.152344 L 240.367188 0.152344 L 240.367188 198.277344 L 0.566406 198.277344 Z M 0.566406 0.152344 " clip-rule="nonzero"/></clipPath><clipPath id="77423b51ff"><rect x="0" width="241" y="0" height="199"/></clipPath></defs><g clip-path="url(#7b3548f7e4)"><path fill="#ffffff" d="M 0.117188 0 L 645.382812 0 L 645.382812 661 L 0.117188 661 Z M 0.117188 0 " fill-opacity="1" fill-rule="nonzero"/></g><g clip-path="url(#07c533ec7d)"><g transform="matrix(1, 0, 0, 1, 202, 224)"><g clip-path="url(#62a8ec2c2d)"><g clip-path="url(#77576d4857)"><path fill="#ffffff" d="M 0.566406 0.761719 L 240.367188 0.761719 L 240.367188 436.332031 L 0.566406 436.332031 Z M 0.566406 0.761719 " fill-opacity="1" fill-rule="nonzero"/></g></g></g></g><g clip-path="url(#defe194ce9)"><path stroke-linecap="butt" transform="matrix(0.749433, 0, 0, 0.749433, 202.566829, 224.762758)" fill="none" stroke-linejoin="miter" d="M -0.000563446 -0.00138635 L 319.970314 -0.00138635 L 319.970314 581.119893 L -0.000563446 581.119893 Z M -0.000563446 -0.00138635 " stroke="#d50b2e" stroke-width="8" stroke-opacity="1" stroke-miterlimit="4"/></g><g clip-path="url(#b6b2f99542)"><g transform="matrix(1, 0, 0, 1, 0.000000000000000014, 0)"><g clip-path="url(#fcab97570c)"><g clip-path="url(#bba213577e)"><path fill="#ffffff" d="M 644.808594 0.0390625 L 644.808594 228.316406 L 0.109375 228.316406 L 0.109375 0.0390625 Z M 644.808594 0.0390625 " fill-opacity="1" fill-rule="nonzero"/></g></g></g></g><g clip-path="url(#c1c97003e5)"><path stroke-linecap="butt" transform="matrix(0, 0.749433, -0.749433, 0, 644.809469, 0.039681)" fill="none" stroke-linejoin="miter" d="M -0.000825294 0.00116821 L 304.593834 0.00116821 L 304.593834 860.234279 L -0.000825294 860.234279 Z M -0.000825294 0.00116821 " stroke="#d50b2e" stroke-width="8" stroke-opacity="1" stroke-miterlimit="4"/></g><g clip-path="url(#c7708bf9bb)"><g transform="matrix(1, 0, 0, 1, 202, 226)"><g clip-path="url(#018c0f219a)"><g clip-path="url(#af6446eb59)"><path fill="#ffffff" d="M 0.566406 0.25 L 240.15625 0.25 L 240.15625 236.152344 L 0.566406 236.152344 Z M 0.566406 0.25 " fill-opacity="1" fill-rule="nonzero"/></g></g></g></g><g clip-path="url(#354885b7db)"><path stroke-linecap="butt" transform="matrix(0.749433, 0, 0, 0.749433, 202.568116, 226.250193)" fill="none" stroke-linejoin="miter" d="M -0.00228185 -0.000256913 L 319.963363 -0.000256913 L 319.963363 314.763542 L -0.00228185 314.763542 Z M -0.00228185 -0.000256913 " stroke="#d50b2e" stroke-width="8" stroke-opacity="1" stroke-miterlimit="4"/></g><g clip-path="url(#388ce361d4)"><g transform="matrix(1, 0, 0, 1, 30, 0)"><g clip-path="url(#7e115972ec)"><g clip-path="url(#1416e0be2f)"><path fill="#d50b2e" d="M 0.3125 47.148438 L 0.3125 0.0351562 L 179.5625 0.0351562 L 179.5625 47.148438 Z M 0.3125 47.148438 " fill-opacity="1" fill-rule="nonzero"/></g></g></g></g><g clip-path="url(#2c74a1cd09)"><g transform="matrix(1, 0, 0, 1, 435, 0)"><g clip-path="url(#cb0f5b2758)"><g clip-path="url(#cb79c50fa3)"><path fill="#d50b2e" d="M 0.398438 47.109375 L 0.398438 -0.00390625 L 179.652344 -0.00390625 L 179.652344 47.109375 Z M 0.398438 47.109375 " fill-opacity="1" fill-rule="nonzero"/></g></g></g></g><g clip-path="url(#9ab74b705e)"><g transform="matrix(1, 0, 0, 1, 230, 0)"><g clip-path="url(#da923b8a28)"><g clip-path="url(#235f3cc714)"><path fill="#d50b2e" d="M 0.523438 47.109375 L 0.523438 -0.00390625 L 184.375 -0.00390625 L 184.375 47.109375 Z M 0.523438 47.109375 " fill-opacity="1" fill-rule="nonzero"/></g></g></g></g><g clip-path="url(#3c37119299)"><g transform="matrix(1, 0, 0, 1, 535, 177)"><g clip-path="url(#c5f7a06937)"><g clip-path="url(#3fcc0dc74a)"><path fill="#d50b2e" d="M 0.394531 49.246094 L 0.394531 0.0664062 L 79.929688 0.0664062 L 79.929688 49.246094 Z M 0.394531 49.246094 " fill-opacity="1" fill-rule="nonzero"/></g></g></g></g><g clip-path="url(#827167cf9e)"><g transform="matrix(1, 0, 0, 1, 452, 177)"><g clip-path="url(#7f2427936f)"><g clip-path="url(#c6c17ee3b0)"><path fill="#d50b2e" d="M 0.859375 49.238281 L 0.859375 0.0585938 L 72.898438 0.0585938 L 72.898438 49.238281 Z M 0.859375 49.238281 " fill-opacity="1" fill-rule="nonzero"/></g></g></g></g><g clip-path="url(#2b371dfedb)"><g transform="matrix(1, 0, 0, 1, 300, 221)"><g clip-path="url(#4bd70a7fdd)"><g clip-path="url(#b6623d7e73)"><path fill="#ffffff" d="M 0.117188 9.660156 L 0.117188 0.832031 L 44.925781 0.832031 L 44.925781 9.660156 Z M 0.117188 9.660156 " fill-opacity="1" fill-rule="nonzero"/></g></g></g></g><g clip-path="url(#b8ffed50ad)"><g transform="matrix(1, 0, 0, 1, 288, 226)"><g clip-path="url(#676b6d5e9e)"><g clip-path="url(#d605525949)"><path fill="#d50b2e" d="M 55.324219 20.050781 C 52.902344 25.777344 49.4375 30.917969 45.023438 35.332031 C 40.609375 39.746094 35.46875 43.210938 29.742188 45.632812 C 23.816406 48.140625 17.523438 49.410156 11.03125 49.410156 L 9.9375 49.410156 L 9.9375 0.246094 L 12.128906 0.246094 L 12.128906 47.207031 C 36.558594 46.632812 56.324219 26.867188 56.898438 2.4375 L 56.898438 0.246094 L 59.101562 0.246094 L 59.101562 1.34375 C 59.101562 7.832031 57.832031 14.125 55.324219 20.050781 " fill-opacity="1" fill-rule="nonzero"/></g><g clip-path="url(#c4a4eaef8b)"><path fill="#d50b2e" d="M 11.035156 0.25 L 0.953125 0.25 L 0.953125 2.4375 L 11.035156 2.4375 L 11.035156 0.25 " fill-opacity="1" fill-rule="nonzero"/></g><g clip-path="url(#601765050c)"><path fill="#d50b2e" d="M 68.085938 0.25 L 58.007812 0.25 L 58.007812 2.4375 L 68.085938 2.4375 L 68.085938 0.25 " fill-opacity="1" fill-rule="nonzero"/></g></g></g></g><g clip-path="url(#840c66b3d8)"><g transform="matrix(1, 0, 0, 1, 30, 179)"><g clip-path="url(#78a340b300)"><g clip-path="url(#326f761d66)"><path fill="#d50b2e" d="M 0.308594 47.246094 L 0.308594 0.132812 L 162.078125 0.132812 L 162.078125 47.246094 Z M 0.308594 47.246094 " fill-opacity="1" fill-rule="nonzero"/></g></g></g></g><g clip-path="url(#003de3a344)"><path fill="#ffffff" d="M 476.539062 191.308594 C 477.605469 191.308594 478.566406 190.859375 479.265625 190.132812 C 479.957031 189.410156 480.382812 188.417969 480.382812 187.324219 C 480.382812 186.234375 479.957031 185.242188 479.265625 184.519531 C 478.566406 183.792969 477.605469 183.34375 476.539062 183.34375 C 475.472656 183.34375 474.511719 183.792969 473.8125 184.523438 C 473.121094 185.242188 472.695312 186.234375 472.695312 187.328125 C 472.695312 188.417969 473.121094 189.410156 473.8125 190.132812 C 474.511719 190.859375 475.472656 191.308594 476.539062 191.308594 Z M 474.738281 185.410156 C 475.199219 184.929688 475.835938 184.632812 476.539062 184.632812 C 477.238281 184.632812 477.878906 184.929688 478.335938 185.410156 C 478.804688 185.898438 479.09375 186.574219 479.09375 187.324219 C 479.09375 188.078125 478.804688 188.753906 478.335938 189.242188 C 477.878906 189.722656 477.238281 190.019531 476.539062 190.019531 C 475.835938 190.019531 475.199219 189.722656 474.738281 189.242188 C 474.273438 188.753906 473.980469 188.078125 473.980469 187.324219 C 473.980469 186.574219 474.273438 185.898438 474.738281 185.410156 Z M 483.0625 193.167969 C 482.320312 192.433594 481.296875 191.980469 480.171875 191.980469 L 472.90625 191.980469 C 471.78125 191.980469 470.757812 192.433594 470.015625 193.167969 C 469.269531 193.902344 468.808594 194.917969 468.808594 196.035156 L 468.808594 205.226562 C 468.808594 205.90625 469.074219 206.523438 469.507812 206.976562 C 469.949219 207.433594 470.554688 207.714844 471.222656 207.714844 C 471.628906 207.714844 472.015625 207.609375 472.351562 207.425781 L 472.351562 219.539062 C 472.351562 220.21875 472.621094 220.839844 473.054688 221.289062 C 473.492188 221.75 474.097656 222.03125 474.769531 222.03125 C 475.4375 222.03125 476.042969 221.746094 476.480469 221.289062 C 476.503906 221.269531 476.519531 221.25 476.539062 221.226562 C 476.558594 221.25 476.578125 221.269531 476.597656 221.289062 C 477.035156 221.75 477.644531 222.03125 478.3125 222.03125 C 478.980469 222.03125 479.585938 221.746094 480.027344 221.289062 C 480.460938 220.839844 480.730469 220.21875 480.730469 219.539062 L 480.730469 207.425781 C 481.066406 207.613281 481.449219 207.71875 481.855469 207.71875 C 482.523438 207.71875 483.132812 207.433594 483.570312 206.976562 C 484.003906 206.523438 484.273438 205.90625 484.273438 205.226562 L 484.273438 196.035156 C 484.269531 194.917969 483.808594 193.902344 483.0625 193.167969 Z M 482.644531 206.085938 C 482.441406 206.296875 482.160156 206.429688 481.855469 206.429688 C 481.546875 206.429688 481.269531 206.296875 481.066406 206.085938 C 480.855469 205.867188 480.726562 205.5625 480.726562 205.226562 L 480.726562 197.277344 C 480.726562 196.917969 480.4375 196.632812 480.082031 196.632812 C 479.726562 196.632812 479.4375 196.917969 479.4375 197.277344 L 479.4375 219.542969 C 479.4375 219.878906 479.308594 220.183594 479.097656 220.402344 C 478.894531 220.613281 478.617188 220.746094 478.308594 220.746094 C 478.003906 220.746094 477.726562 220.613281 477.523438 220.402344 C 477.3125 220.183594 477.183594 219.878906 477.183594 219.542969 L 477.183594 207.179688 C 477.183594 206.824219 476.894531 206.535156 476.539062 206.535156 C 476.183594 206.535156 475.894531 206.824219 475.894531 207.179688 L 475.894531 219.542969 C 475.894531 219.878906 475.765625 220.183594 475.554688 220.402344 C 475.351562 220.613281 475.070312 220.746094 474.765625 220.746094 C 474.460938 220.746094 474.179688 220.613281 473.976562 220.402344 C 473.769531 220.183594 473.636719 219.878906 473.636719 219.542969 L 473.636719 197.277344 C 473.636719 196.917969 473.347656 196.632812 472.992188 196.632812 C 472.636719 196.632812 472.351562 196.917969 472.351562 197.277344 L 472.351562 205.226562 C 472.351562 205.5625 472.21875 205.867188 472.011719 206.085938 C 471.808594 206.296875 471.527344 206.429688 471.222656 206.429688 C 470.914062 206.429688 470.636719 206.296875 470.433594 206.085938 C 470.222656 205.867188 470.09375 205.5625 470.09375 205.226562 L 470.09375 196.035156 C 470.09375 195.273438 470.40625 194.582031 470.914062 194.082031 C 471.425781 193.578125 472.128906 193.265625 472.90625 193.265625 L 480.167969 193.265625 C 480.945312 193.265625 481.648438 193.578125 482.15625 194.082031 C 482.664062 194.582031 482.980469 195.273438 482.980469 196.035156 L 482.980469 200.179688 C 482.980469 200.179688 482.980469 200.183594 482.980469 200.183594 L 482.980469 205.226562 C 482.980469 205.5625 482.851562 205.867188 482.644531 206.085938 Z M 499.398438 191.308594 C 500.464844 191.308594 501.429688 190.859375 502.125 190.132812 C 502.816406 189.410156 503.246094 188.417969 503.246094 187.324219 C 503.246094 186.234375 502.816406 185.242188 502.125 184.519531 C 501.429688 183.792969 500.464844 183.34375 499.398438 183.34375 C 498.335938 183.34375 497.371094 183.792969 496.675781 184.523438 C 495.984375 185.242188 495.554688 186.234375 495.554688 187.328125 C 495.554688 188.417969 495.984375 189.410156 496.675781 190.132812 C 497.371094 190.859375 498.335938 191.308594 499.398438 191.308594 Z M 497.597656 185.410156 C 498.0625 184.929688 498.695312 184.632812 499.398438 184.632812 C 500.101562 184.632812 500.738281 184.929688 501.199219 185.410156 C 501.664062 185.898438 501.957031 186.574219 501.957031 187.324219 C 501.957031 188.078125 501.664062 188.753906 501.199219 189.242188 C 500.738281 189.722656 500.101562 190.019531 499.398438 190.019531 C 498.695312 190.019531 498.058594 189.722656 497.597656 189.242188 C 497.132812 188.753906 496.84375 188.078125 496.84375 187.324219 C 496.84375 186.574219 497.132812 185.898438 497.597656 185.410156 Z M 508.765625 203.457031 C 507.957031 200.617188 507.207031 197.40625 506.253906 194.652344 C 506.003906 193.921875 505.5625 193.285156 504.996094 192.816406 C 504.355469 192.292969 503.5625 191.976562 502.699219 191.976562 L 496.097656 191.976562 C 495.238281 191.976562 494.445312 192.292969 493.804688 192.816406 C 493.238281 193.285156 492.796875 193.917969 492.546875 194.652344 C 492.535156 194.675781 492.527344 194.699219 492.519531 194.722656 L 492.507812 194.765625 C 492.488281 194.828125 492.472656 194.886719 492.457031 194.945312 C 492.457031 194.949219 492.457031 194.949219 492.457031 194.953125 L 490.035156 203.457031 C 489.855469 204.089844 489.917969 204.75 490.160156 205.300781 C 490.414062 205.871094 490.863281 206.335938 491.445312 206.558594 C 491.503906 206.582031 491.5625 206.601562 491.621094 206.621094 C 491.917969 206.703125 492.21875 206.71875 492.507812 206.671875 L 491.710938 209.480469 C 491.613281 209.820312 491.8125 210.179688 492.152344 210.273438 C 492.210938 210.292969 492.269531 210.300781 492.328125 210.300781 L 495.214844 210.300781 L 495.214844 219.539062 C 495.214844 220.21875 495.480469 220.839844 495.914062 221.289062 C 496.355469 221.75 496.960938 222.03125 497.628906 222.03125 C 498.296875 222.03125 498.90625 221.746094 499.34375 221.289062 C 499.363281 221.269531 499.382812 221.246094 499.402344 221.226562 C 499.421875 221.246094 499.441406 221.269531 499.460938 221.289062 C 499.898438 221.746094 500.507812 222.03125 501.175781 222.03125 C 501.84375 222.03125 502.449219 221.746094 502.886719 221.289062 C 503.320312 220.835938 503.589844 220.21875 503.589844 219.539062 L 503.589844 210.296875 L 506.476562 210.296875 C 506.832031 210.296875 507.121094 210.011719 507.121094 209.65625 C 507.121094 209.582031 507.109375 209.511719 507.085938 209.445312 L 506.292969 206.667969 C 506.585938 206.714844 506.882812 206.703125 507.183594 206.617188 C 507.238281 206.597656 507.296875 206.578125 507.351562 206.558594 C 507.9375 206.335938 508.390625 205.871094 508.640625 205.296875 C 508.882812 204.75 508.945312 204.089844 508.765625 203.457031 Z M 498.417969 220.402344 C 498.214844 220.613281 497.933594 220.746094 497.628906 220.746094 C 497.324219 220.746094 497.042969 220.613281 496.839844 220.402344 C 496.632812 220.183594 496.5 219.878906 496.5 219.542969 L 496.5 210.300781 L 498.757812 210.300781 L 498.757812 219.542969 C 498.757812 219.878906 498.625 220.183594 498.417969 220.402344 Z M 502.300781 219.542969 C 502.300781 219.878906 502.167969 220.183594 501.960938 220.402344 C 501.757812 220.613281 501.476562 220.746094 501.171875 220.746094 C 500.867188 220.746094 500.585938 220.613281 500.382812 220.402344 C 500.171875 220.183594 500.042969 219.878906 500.042969 219.542969 L 500.042969 210.300781 L 502.300781 210.300781 Z M 507.460938 204.785156 C 507.34375 205.054688 507.140625 205.269531 506.890625 205.363281 L 506.828125 205.382812 C 506.617188 205.441406 506.402344 205.40625 506.214844 205.304688 C 506.011719 205.1875 505.835938 204.980469 505.738281 204.714844 C 505.730469 204.691406 505.722656 204.664062 505.714844 204.640625 L 503.550781 197.046875 C 503.480469 196.792969 503.261719 196.617188 503.011719 196.585938 C 502.929688 196.574219 502.84375 196.582031 502.757812 196.605469 C 502.417969 196.703125 502.21875 197.058594 502.316406 197.398438 C 503.007812 199.832031 503.660156 202.5625 504.464844 204.945312 L 505.621094 209.011719 L 493.179688 209.011719 L 494.335938 204.945312 C 495.140625 202.5625 495.792969 199.835938 496.484375 197.398438 C 496.582031 197.058594 496.382812 196.703125 496.042969 196.605469 C 495.699219 196.507812 495.34375 196.707031 495.246094 197.046875 L 493.085938 204.640625 C 493.078125 204.664062 493.070312 204.6875 493.0625 204.714844 C 492.964844 204.980469 492.789062 205.183594 492.582031 205.300781 C 492.398438 205.40625 492.179688 205.441406 491.972656 205.382812 L 491.90625 205.363281 C 491.65625 205.269531 491.457031 205.054688 491.339844 204.78125 C 491.210938 204.492188 491.175781 204.144531 491.273438 203.808594 L 493.757812 195.070312 C 493.757812 195.070312 493.761719 195.070312 493.761719 195.066406 C 493.933594 194.5625 494.234375 194.125 494.621094 193.804688 C 495.03125 193.464844 495.546875 193.265625 496.101562 193.265625 L 502.703125 193.265625 C 503.257812 193.265625 503.769531 193.464844 504.183594 193.804688 C 504.566406 194.121094 504.867188 194.554688 505.039062 195.054688 L 507.53125 203.808594 C 507.621094 204.144531 507.589844 204.492188 507.460938 204.785156 Z M 488.542969 183.988281 L 488.542969 221.390625 C 488.542969 221.746094 488.253906 222.035156 487.898438 222.035156 C 487.542969 222.035156 487.253906 221.746094 487.253906 221.390625 L 487.253906 183.988281 C 487.253906 183.632812 487.542969 183.34375 487.898438 183.34375 C 488.253906 183.34375 488.542969 183.632812 488.542969 183.988281 Z M 488.542969 183.988281 " fill-opacity="1" fill-rule="nonzero"/></g><g clip-path="url(#3aada91382)"><g transform="matrix(1, 0, 0, 1, 400, 228)"><g clip-path="url(#c96230889a)"><g clip-path="url(#be1c9a991b)"><path fill="#d50b2e" d="M 26.285156 88.78125 L 26.285156 84.1875 L 15.03125 84.1875 C 14.820312 84.1875 14.613281 84.148438 14.417969 84.066406 C 14.222656 83.984375 14.046875 83.867188 13.894531 83.71875 C 13.746094 83.566406 13.628906 83.394531 13.546875 83.195312 C 13.464844 83 13.425781 82.792969 13.425781 82.582031 L 13.425781 77.835938 L 2.175781 77.835938 C 1.960938 77.835938 1.753906 77.792969 1.558594 77.710938 C 1.363281 77.628906 1.1875 77.515625 1.039062 77.363281 C 0.886719 77.214844 0.769531 77.039062 0.6875 76.84375 C 0.605469 76.644531 0.566406 76.441406 0.566406 76.226562 L 0.566406 14.535156 C 0.566406 14.320312 0.605469 14.117188 0.6875 13.917969 C 0.769531 13.722656 0.886719 13.550781 1.039062 13.398438 C 1.1875 13.246094 1.363281 13.132812 1.558594 13.050781 C 1.753906 12.96875 1.960938 12.925781 2.175781 12.925781 L 13.425781 12.925781 L 13.425781 8.179688 C 13.425781 7.96875 13.464844 7.761719 13.546875 7.566406 C 13.628906 7.367188 13.746094 7.195312 13.894531 7.042969 C 14.046875 6.894531 14.222656 6.777344 14.417969 6.695312 C 14.613281 6.613281 14.820312 6.574219 15.03125 6.574219 L 26.285156 6.574219 L 26.285156 1.980469 C 26.285156 1.769531 26.324219 1.5625 26.40625 1.367188 C 26.488281 1.167969 26.605469 0.996094 26.753906 0.84375 C 26.90625 0.695312 27.082031 0.578125 27.277344 0.496094 C 27.472656 0.414062 27.679688 0.375 27.890625 0.375 L 40.75 0.375 C 40.964844 0.375 41.171875 0.414062 41.367188 0.496094 C 41.5625 0.578125 41.738281 0.695312 41.886719 0.84375 C 42.039062 0.996094 42.15625 1.167969 42.238281 1.367188 C 42.320312 1.5625 42.359375 1.769531 42.359375 1.980469 L 42.359375 88.78125 C 42.359375 88.996094 42.320312 89.199219 42.238281 89.394531 C 42.15625 89.59375 42.039062 89.765625 41.886719 89.917969 C 41.738281 90.070312 41.5625 90.183594 41.367188 90.265625 C 41.171875 90.347656 40.964844 90.386719 40.75 90.386719 L 27.890625 90.386719 C 27.679688 90.386719 27.472656 90.347656 27.277344 90.265625 C 27.082031 90.183594 26.90625 90.070312 26.753906 89.917969 C 26.605469 89.765625 26.488281 89.59375 26.40625 89.394531 C 26.324219 89.199219 26.285156 88.996094 26.285156 88.78125 Z M 3.78125 16.140625 L 3.78125 74.621094 L 13.425781 74.621094 L 13.425781 16.140625 Z M 16.640625 9.789062 L 16.640625 80.972656 L 26.285156 80.972656 L 26.285156 9.789062 Z M 39.144531 87.171875 L 39.144531 3.589844 L 29.5 3.589844 L 29.5 87.171875 Z M 39.144531 87.171875 " fill-opacity="1" fill-rule="nonzero"/></g></g></g></g><g clip-path="url(#2ad36d28ab)"><path fill="#d50b2e" d="M 343.324219 442.339844 C 340.902344 436.617188 337.4375 431.476562 333.023438 427.0625 C 328.609375 422.648438 323.46875 419.179688 317.742188 416.757812 C 311.816406 414.253906 305.523438 412.980469 299.03125 412.980469 L 297.9375 412.980469 L 297.9375 462.144531 L 300.128906 462.144531 L 300.128906 415.183594 C 324.558594 415.761719 344.324219 435.523438 344.898438 459.953125 L 344.898438 462.144531 L 347.101562 462.144531 L 347.101562 461.050781 C 347.101562 454.5625 345.832031 448.265625 343.324219 442.339844 " fill-opacity="1" fill-rule="nonzero"/></g><g clip-path="url(#7504dbad51)"><path fill="#d50b2e" d="M 299.035156 462.144531 L 288.953125 462.144531 L 288.953125 459.953125 L 299.035156 459.953125 L 299.035156 462.144531 " fill-opacity="1" fill-rule="nonzero"/></g><g clip-path="url(#762ea2d6ac)"><path fill="#d50b2e" d="M 356.085938 462.144531 L 346.007812 462.144531 L 346.007812 459.953125 L 356.085938 459.953125 L 356.085938 462.144531 " fill-opacity="1" fill-rule="nonzero"/></g><g clip-path="url(#38b5239404)"><g transform="matrix(1, 0, 0, 1, 300, 457)"><g clip-path="url(#bf3b825da5)"><g clip-path="url(#c48a167eec)"><path fill="#ffffff" d="M 0.117188 9.5625 L 0.117188 0.734375 L 44.925781 0.734375 L 44.925781 9.5625 Z M 0.117188 9.5625 " fill-opacity="1" fill-rule="nonzero"/></g></g></g></g><g clip-path="url(#083d58044e)"><g transform="matrix(1, 0, 0, 1, 202, 482)"><g clip-path="url(#e76089be61)"><g clip-path="url(#820232ed23)"><path fill="#d50b2e" d="M 0.566406 0.804688 L 47.679688 0.804688 L 47.679688 156.316406 L 0.566406 156.316406 Z M 0.566406 0.804688 " fill-opacity="1" fill-rule="nonzero"/></g></g></g></g><g clip-path="url(#654776941f)"><g transform="matrix(1, 0, 0, 1, 395, 482)"><g clip-path="url(#f669ca3cfa)"><g clip-path="url(#c81a8e103a)"><path fill="#d50b2e" d="M 0.253906 0.804688 L 47.367188 0.804688 L 47.367188 156.316406 L 0.253906 156.316406 Z M 0.253906 0.804688 " fill-opacity="1" fill-rule="nonzero"/></g></g></g></g><g clip-path="url(#c3cdcf76fd)"><g transform="matrix(1, 0, 0, 1, 202, 462)"><g clip-path="url(#77423b51ff)"><g clip-path="url(#69c561f5cc)"><path fill="#d50b2e" d="M 0.566406 0.152344 L 240.484375 0.152344 L 240.484375 198.277344 L 0.566406 198.277344 Z M 0.566406 0.152344 " fill-opacity="1" fill-rule="nonzero"/></g></g></g></g><g fill="#ffffff" fill-opacity="1"><g transform="translate(284.069682, 569.45827)"><g><path d="M 5.328125 0 L 2.21875 0 L 2.21875 -17.125 L 6.65625 -17.125 L 10.984375 -4.53125 L 11.234375 -4.53125 L 15.546875 -17.125 L 19.859375 -17.125 L 19.859375 0 L 16.65625 0 L 16.65625 -11.3125 L 16.359375 -11.359375 L 12.40625 0 L 9.578125 0 L 5.625 -11.359375 L 5.328125 -11.3125 Z M 5.328125 0 "/></g></g><g transform="translate(306.16626, 569.45827)"><g><path d="M 12.765625 -5.734375 L 4.46875 -5.734375 C 4.5625 -4.609375 4.878906 -3.785156 5.421875 -3.265625 C 5.960938 -2.753906 6.707031 -2.5 7.65625 -2.5 C 8.394531 -2.5 8.992188 -2.640625 9.453125 -2.921875 C 9.921875 -3.203125 10.296875 -3.625 10.578125 -4.1875 L 10.828125 -4.1875 L 12.96875 -2.796875 C 12.550781 -1.890625 11.914062 -1.15625 11.0625 -0.59375 C 10.21875 -0.03125 9.082031 0.25 7.65625 0.25 C 6.320312 0.25 5.164062 -0.00390625 4.1875 -0.515625 C 3.21875 -1.023438 2.46875 -1.78125 1.9375 -2.78125 C 1.414062 -3.78125 1.15625 -5.003906 1.15625 -6.453125 C 1.15625 -7.921875 1.429688 -9.15625 1.984375 -10.15625 C 2.546875 -11.164062 3.296875 -11.914062 4.234375 -12.40625 C 5.179688 -12.90625 6.242188 -13.15625 7.421875 -13.15625 C 9.253906 -13.15625 10.65625 -12.671875 11.625 -11.703125 C 12.59375 -10.742188 13.078125 -9.328125 13.078125 -7.453125 C 13.078125 -6.765625 13.054688 -6.238281 13.015625 -5.875 Z M 9.984375 -7.828125 C 9.953125 -8.804688 9.722656 -9.519531 9.296875 -9.96875 C 8.867188 -10.414062 8.242188 -10.640625 7.421875 -10.640625 C 5.785156 -10.640625 4.820312 -9.703125 4.53125 -7.828125 Z M 9.984375 -7.828125 "/></g></g><g transform="translate(320.206428, 569.45827)"><g><path d="M 1.859375 0 L 1.859375 -12.921875 L 4.984375 -12.921875 L 4.984375 -11.015625 L 5.21875 -10.96875 C 6.019531 -12.425781 7.328125 -13.15625 9.140625 -13.15625 C 10.628906 -13.15625 11.722656 -12.75 12.421875 -11.9375 C 13.117188 -11.132812 13.46875 -9.953125 13.46875 -8.390625 L 13.46875 0 L 10.21875 0 L 10.21875 -8 C 10.21875 -8.851562 10.046875 -9.46875 9.703125 -9.84375 C 9.359375 -10.226562 8.8125 -10.421875 8.0625 -10.421875 C 7.125 -10.421875 6.394531 -10.117188 5.875 -9.515625 C 5.363281 -8.921875 5.109375 -7.976562 5.109375 -6.6875 L 5.109375 0 Z M 1.859375 0 "/></g></g><g transform="translate(335.335617, 569.45827)"><g><path d="M 6.046875 0.25 C 5.160156 0.25 4.347656 0.144531 3.609375 -0.0625 C 2.878906 -0.269531 2.253906 -0.554688 1.734375 -0.921875 C 1.210938 -1.285156 0.828125 -1.703125 0.578125 -2.171875 L 2.390625 -4.109375 L 2.640625 -4.109375 C 3.066406 -3.535156 3.570312 -3.101562 4.15625 -2.8125 C 4.738281 -2.519531 5.375 -2.375 6.0625 -2.375 C 6.695312 -2.375 7.171875 -2.488281 7.484375 -2.71875 C 7.804688 -2.945312 7.96875 -3.269531 7.96875 -3.6875 C 7.96875 -4.019531 7.851562 -4.296875 7.625 -4.515625 C 7.394531 -4.734375 7.023438 -4.90625 6.515625 -5.03125 L 4.796875 -5.453125 C 3.515625 -5.753906 2.578125 -6.21875 1.984375 -6.84375 C 1.398438 -7.46875 1.109375 -8.265625 1.109375 -9.234375 C 1.109375 -10.046875 1.3125 -10.742188 1.71875 -11.328125 C 2.132812 -11.921875 2.710938 -12.375 3.453125 -12.6875 C 4.203125 -13 5.070312 -13.15625 6.0625 -13.15625 C 7.226562 -13.15625 8.191406 -12.988281 8.953125 -12.65625 C 9.722656 -12.320312 10.320312 -11.875 10.75 -11.3125 L 9.015625 -9.4375 L 8.78125 -9.4375 C 8.425781 -9.84375 8.019531 -10.140625 7.5625 -10.328125 C 7.113281 -10.515625 6.613281 -10.609375 6.0625 -10.609375 C 4.78125 -10.609375 4.140625 -10.210938 4.140625 -9.421875 C 4.140625 -9.078125 4.257812 -8.800781 4.5 -8.59375 C 4.738281 -8.382812 5.160156 -8.210938 5.765625 -8.078125 L 7.359375 -7.734375 C 8.671875 -7.453125 9.628906 -7 10.234375 -6.375 C 10.835938 -5.757812 11.140625 -4.925781 11.140625 -3.875 C 11.140625 -3.050781 10.9375 -2.328125 10.53125 -1.703125 C 10.125 -1.078125 9.535156 -0.59375 8.765625 -0.25 C 8.003906 0.0820312 7.097656 0.25 6.046875 0.25 Z M 6.046875 0.25 "/></g></g><g transform="translate(347.244583, 569.45827)"><g><path d="M 5.03125 0.25 C 4.207031 0.25 3.488281 0.0976562 2.875 -0.203125 C 2.269531 -0.515625 1.800781 -0.960938 1.46875 -1.546875 C 1.144531 -2.140625 0.984375 -2.847656 0.984375 -3.671875 C 0.984375 -4.441406 1.144531 -5.082031 1.46875 -5.59375 C 1.800781 -6.113281 2.3125 -6.539062 3 -6.875 C 3.6875 -7.207031 4.582031 -7.460938 5.6875 -7.640625 C 6.457031 -7.765625 7.046875 -7.898438 7.453125 -8.046875 C 7.859375 -8.203125 8.128906 -8.375 8.265625 -8.5625 C 8.410156 -8.75 8.484375 -8.988281 8.484375 -9.28125 C 8.484375 -9.6875 8.335938 -10 8.046875 -10.21875 C 7.753906 -10.4375 7.273438 -10.546875 6.609375 -10.546875 C 5.890625 -10.546875 5.203125 -10.382812 4.546875 -10.0625 C 3.898438 -9.75 3.34375 -9.332031 2.875 -8.8125 L 2.640625 -8.8125 L 1.28125 -10.859375 C 1.9375 -11.585938 2.734375 -12.148438 3.671875 -12.546875 C 4.617188 -12.953125 5.648438 -13.15625 6.765625 -13.15625 C 8.472656 -13.15625 9.707031 -12.789062 10.46875 -12.0625 C 11.238281 -11.34375 11.625 -10.316406 11.625 -8.984375 L 11.625 -3.375 C 11.625 -2.789062 11.878906 -2.5 12.390625 -2.5 C 12.585938 -2.5 12.78125 -2.535156 12.96875 -2.609375 L 13.125 -2.5625 L 13.359375 -0.296875 C 13.179688 -0.179688 12.929688 -0.0859375 12.609375 -0.015625 C 12.285156 0.0546875 11.9375 0.09375 11.5625 0.09375 C 10.789062 0.09375 10.1875 -0.0507812 9.75 -0.34375 C 9.3125 -0.644531 9 -1.113281 8.8125 -1.75 L 8.578125 -1.765625 C 7.941406 -0.421875 6.757812 0.25 5.03125 0.25 Z M 6.0625 -2.171875 C 6.8125 -2.171875 7.410156 -2.421875 7.859375 -2.921875 C 8.304688 -3.429688 8.53125 -4.132812 8.53125 -5.03125 L 8.53125 -6.34375 L 8.3125 -6.390625 C 8.113281 -6.234375 7.859375 -6.101562 7.546875 -6 C 7.234375 -5.894531 6.78125 -5.789062 6.1875 -5.6875 C 5.476562 -5.570312 4.96875 -5.367188 4.65625 -5.078125 C 4.351562 -4.796875 4.203125 -4.394531 4.203125 -3.875 C 4.203125 -3.320312 4.363281 -2.898438 4.6875 -2.609375 C 5.019531 -2.316406 5.476562 -2.171875 6.0625 -2.171875 Z M 6.0625 -2.171875 "/></g></g></g></svg>